<svg width="1828" height="1545" xmlns="http://www.w3.org/2000/svg" xmlns:xlink="http://www.w3.org/1999/xlink" xml:space="preserve" overflow="hidden"><defs><clipPath id="clip0"><rect x="142" y="618" width="1828" height="1545"/></clipPath></defs><g clip-path="url(#clip0)" transform="translate(-142 -618)"><path d="M194.5 1386.33C194.5 1358.81 216.812 1336.5 244.334 1336.5L592.666 1336.5C620.188 1336.5 642.5 1358.81 642.5 1386.33L642.5 1585.67C642.5 1613.19 620.188 1635.5 592.666 1635.5L244.334 1635.5C216.812 1635.5 194.5 1613.19 194.5 1585.67Z" stroke="#0068B5" stroke-width="4.58333" stroke-linecap="butt" stroke-linejoin="miter" stroke-miterlimit="4" stroke-opacity="1" fill="#FDF5DB" fill-rule="evenodd" fill-opacity="1"/><text fill="#000000" fill-opacity="1" font-family="Arial,Arial_MSFontService,sans-serif" font-style="normal" font-variant="normal" font-weight="400" font-stretch="normal" font-size="64" text-anchor="start" direction="ltr" writing-mode="lr-tb" unicode-bidi="normal" text-decoration="none" transform="matrix(1 0 0 1 270.634 1432)">struct cnet<tspan fill="#000000" fill-opacity="1" font-family="Arial,Arial_MSFontService,sans-serif" font-style="normal" font-variant="normal" font-weight="400" font-stretch="normal" font-size="64" text-anchor="start" direction="ltr" writing-mode="lr-tb" unicode-bidi="normal" text-decoration="none" x="-25.2083" y="154">stk_t *stks[ ]</tspan></text><path d="M0-2.86458 97.7079-2.86458 97.7079 420.593 94.8433 417.729 166.769 417.729 166.769 423.458 91.9787 423.458 91.9787 0 94.8433 2.86458 0 2.86458ZM162.186 406.843 189.686 420.593 162.186 434.343Z" fill="#0068B5" fill-rule="nonzero" fill-opacity="1" transform="matrix(1 0 0 -1 642 1485.59)"/><path d="M146.5 690.158C146.5 652.239 177.239 621.5 215.158 621.5L1895.84 621.5C1933.76 621.5 1964.5 652.239 1964.5 690.158L1964.5 2089.84C1964.5 2127.76 1933.76 2158.5 1895.84 2158.5L215.158 2158.5C177.239 2158.5 146.5 2127.76 146.5 2089.84Z" stroke="#0068B5" stroke-width="4.58333" stroke-linecap="butt" stroke-linejoin="miter" stroke-miterlimit="4" stroke-dasharray="18.3333 13.75" stroke-opacity="1" fill="none" fill-rule="evenodd"/><text fill="#000000" fill-opacity="1" font-family="Arial,Arial_MSFontService,sans-serif" font-style="normal" font-variant="normal" font-weight="400" font-stretch="normal" font-size="64" text-anchor="start" direction="ltr" writing-mode="lr-tb" unicode-bidi="normal" text-decoration="none" transform="matrix(1 0 0 1 673.429 722)">CNDP Application Process</text><path d="M0-2.86458 97.3563-2.86458 97.3563 126.453 94.4917 123.588 166.067 123.588 166.067 129.317 91.6272 129.317 91.6272 0 94.4917 2.86458 0 2.86458ZM161.483 112.703 188.983 126.453 161.483 140.203Z" fill="#0068B5" fill-rule="nonzero" fill-opacity="1" transform="matrix(1 0 0 -1 642 1485.45)"/><path d="M642 1483.14 739.356 1483.14 739.356 1649.04 736.492 1646.18 808.067 1646.18 808.067 1651.91 733.627 1651.91 733.627 1486 736.492 1488.86 642 1488.86ZM803.484 1635.29 830.984 1649.04 803.484 1662.79Z" fill="#0068B5" fill-rule="nonzero" fill-opacity="1"/><path d="M642 1483.14 739.349 1483.14 739.349 1940.54 736.485 1937.68 808.052 1937.68 808.052 1943.41 733.62 1943.41 733.62 1486 736.485 1488.86 642 1488.86ZM803.469 1926.79 830.969 1940.54 803.469 1954.29Z" fill="#0068B5" fill-rule="nonzero" fill-opacity="1"/><path d="M776.5 835.95C776.5 808.64 798.64 786.5 825.95 786.5L1834.05 786.5C1861.36 786.5 1883.5 808.64 1883.5 835.95L1883.5 2051.05C1883.5 2078.36 1861.36 2100.5 1834.05 2100.5L825.95 2100.5C798.64 2100.5 776.5 2078.36 776.5 2051.05Z" stroke="#0068B5" stroke-width="4.58333" stroke-linecap="butt" stroke-linejoin="miter" stroke-miterlimit="4" stroke-dasharray="18.3333 13.75" stroke-opacity="1" fill="none" fill-rule="evenodd"/><text fill="#000000" fill-opacity="1" font-family="Arial,Arial_MSFontService,sans-serif" font-style="normal" font-variant="normal" font-weight="400" font-stretch="normal" font-size="64" text-anchor="start" direction="ltr" writing-mode="lr-tb" unicode-bidi="normal" text-decoration="none" transform="matrix(1 0 0 1 864.21 881)">Stack<tspan fill="#000000" fill-opacity="1" font-family="Arial,Arial_MSFontService,sans-serif" font-style="normal" font-variant="normal" font-weight="400" font-stretch="normal" font-size="64" text-anchor="start" direction="ltr" writing-mode="lr-tb" unicode-bidi="normal" text-decoration="none" x="178.177" y="0">and</tspan><tspan fill="#000000" fill-opacity="1" font-family="Arial,Arial_MSFontService,sans-serif" font-style="normal" font-variant="normal" font-weight="400" font-stretch="normal" font-size="64" text-anchor="start" direction="ltr" writing-mode="lr-tb" unicode-bidi="normal" text-decoration="none" x="302.5" y="0">Graph data per</tspan><tspan fill="#000000" fill-opacity="1" font-family="Arial,Arial_MSFontService,sans-serif" font-style="normal" font-variant="normal" font-weight="400" font-stretch="normal" font-size="64" text-anchor="start" direction="ltr" writing-mode="lr-tb" unicode-bidi="normal" text-decoration="none" x="749.948" y="0">threa</tspan>d</text><path d="M832.5 1023.67C832.5 1011.98 841.977 1002.5 853.667 1002.5L1259.33 1002.5C1271.02 1002.5 1280.5 1011.98 1280.5 1023.67L1280.5 1108.33C1280.5 1120.02 1271.02 1129.5 1259.33 1129.5L853.667 1129.5C841.977 1129.5 832.5 1120.02 832.5 1108.33Z" stroke="#0068B5" stroke-width="4.58333" stroke-linecap="butt" stroke-linejoin="miter" stroke-miterlimit="4" stroke-opacity="1" fill="#FAE093" fill-rule="evenodd" fill-opacity="1"/><text fill="#000000" fill-opacity="1" font-family="Arial,Arial_MSFontService,sans-serif" font-style="normal" font-variant="normal" font-weight="400" font-stretch="normal" font-size="64" text-anchor="start" direction="ltr" writing-mode="lr-tb" unicode-bidi="normal" text-decoration="none" transform="matrix(1 0 0 1 921.008 1089)">stack<tspan fill="#000000" fill-opacity="1" font-family="Arial,Arial_MSFontService,sans-serif" font-style="normal" font-variant="normal" font-weight="400" font-stretch="normal" font-size="64" text-anchor="start" direction="ltr" writing-mode="lr-tb" unicode-bidi="normal" text-decoration="none" x="167.292" y="0">info</tspan></text><path d="M1374.5 1002.83C1374.5 985.529 1388.53 971.5 1405.83 971.5L1792.17 971.5C1809.47 971.5 1823.5 985.529 1823.5 1002.83L1823.5 1128.17C1823.5 1145.47 1809.47 1159.5 1792.17 1159.5L1405.83 1159.5C1388.53 1159.5 1374.5 1145.47 1374.5 1128.17Z" stroke="#0068B5" stroke-width="4.58333" stroke-linecap="butt" stroke-linejoin="miter" stroke-miterlimit="4" stroke-opacity="1" fill="#BDE3FF" fill-rule="evenodd" fill-opacity="1"/><text fill="#000000" fill-opacity="1" font-family="Arial,Arial_MSFontService,sans-serif" font-style="normal" font-variant="normal" font-weight="400" font-stretch="normal" font-size="55" text-anchor="start" direction="ltr" writing-mode="lr-tb" unicode-bidi="normal" text-decoration="none" transform="matrix(1 0 0 1 1476.91 1052)">graph info<tspan fill="#000000" fill-opacity="1" font-family="Arial,Arial_MSFontService,sans-serif" font-style="normal" font-variant="normal" font-weight="400" font-stretch="normal" font-size="55" text-anchor="start" direction="ltr" writing-mode="lr-tb" unicode-bidi="normal" text-decoration="none" x="13.475" y="66">*nodes[ ]</tspan></text><path d="M1280 1062.14 1351.15 1062.14 1351.15 1067.86 1280 1067.86ZM1346.57 1051.25 1374.07 1065 1346.57 1078.75Z" fill="#0068B5" fill-rule="nonzero" fill-opacity="1"/><path d="M805.5 927.248C805.5 920.76 810.76 915.5 817.248 915.5L1836.75 915.5C1843.24 915.5 1848.5 920.76 1848.5 927.248L1848.5 1166.75C1848.5 1173.24 1843.24 1178.5 1836.75 1178.5L817.248 1178.5C810.76 1178.5 805.5 1173.24 805.5 1166.75Z" stroke="#0068B5" stroke-width="4.58333" stroke-linecap="butt" stroke-linejoin="miter" stroke-miterlimit="4" stroke-dasharray="18.3333 13.75" stroke-opacity="1" fill="none" fill-rule="evenodd"/><text fill="#8F5DA2" fill-opacity="1" font-family="Arial,Arial_MSFontService,sans-serif" font-style="normal" font-variant="normal" font-weight="400" font-stretch="normal" font-size="50" text-anchor="start" direction="ltr" writing-mode="lr-tb" unicode-bidi="normal" text-decoration="none" transform="matrix(1 0 0 1 827.183 986)">Thread<tspan fill="#8F5DA2" fill-opacity="1" font-family="Arial,Arial_MSFontService,sans-serif" font-style="normal" font-variant="normal" font-weight="400" font-stretch="normal" font-size="50" text-anchor="start" direction="ltr" writing-mode="lr-tb" unicode-bidi="normal" text-decoration="none" x="173.594" y="0">1</tspan></text><path d="M831.5 1317.67C831.5 1305.98 840.977 1296.5 852.667 1296.5L1259.33 1296.5C1271.02 1296.5 1280.5 1305.98 1280.5 1317.67L1280.5 1402.33C1280.5 1414.02 1271.02 1423.5 1259.33 1423.5L852.667 1423.5C840.977 1423.5 831.5 1414.02 831.5 1402.33Z" stroke="#0068B5" stroke-width="4.58333" stroke-linecap="butt" stroke-linejoin="miter" stroke-miterlimit="4" stroke-opacity="1" fill="#FAE093" fill-rule="evenodd" fill-opacity="1"/><text fill="#000000" fill-opacity="1" font-family="Arial,Arial_MSFontService,sans-serif" font-style="normal" font-variant="normal" font-weight="400" font-stretch="normal" font-size="64" text-anchor="start" direction="ltr" writing-mode="lr-tb" unicode-bidi="normal" text-decoration="none" transform="matrix(1 0 0 1 920.305 1383)">stack<tspan fill="#000000" fill-opacity="1" font-family="Arial,Arial_MSFontService,sans-serif" font-style="normal" font-variant="normal" font-weight="400" font-stretch="normal" font-size="64" text-anchor="start" direction="ltr" writing-mode="lr-tb" unicode-bidi="normal" text-decoration="none" x="167.292" y="0">info</tspan></text><path d="M1374.5 1296.83C1374.5 1279.53 1388.53 1265.5 1405.83 1265.5L1791.17 1265.5C1808.47 1265.5 1822.5 1279.53 1822.5 1296.83L1822.5 1422.17C1822.5 1439.47 1808.47 1453.5 1791.17 1453.5L1405.83 1453.5C1388.53 1453.5 1374.5 1439.47 1374.5 1422.17Z" stroke="#0068B5" stroke-width="4.58333" stroke-linecap="butt" stroke-linejoin="miter" stroke-miterlimit="4" stroke-opacity="1" fill="#BDE3FF" fill-rule="evenodd" fill-opacity="1"/><text fill="#000000" fill-opacity="1" font-family="Arial,Arial_MSFontService,sans-serif" font-style="normal" font-variant="normal" font-weight="400" font-stretch="normal" font-size="55" text-anchor="start" direction="ltr" writing-mode="lr-tb" unicode-bidi="normal" text-decoration="none" transform="matrix(1 0 0 1 1476.21 1346)">graph info<tspan fill="#000000" fill-opacity="1" font-family="Arial,Arial_MSFontService,sans-serif" font-style="normal" font-variant="normal" font-weight="400" font-stretch="normal" font-size="55" text-anchor="start" direction="ltr" writing-mode="lr-tb" unicode-bidi="normal" text-decoration="none" x="13.475" y="66">*nodes[ ]</tspan></text><path d="M1.09899e-05-2.86458 71.1525-2.86431 71.1525 2.86486-1.09899e-05 2.86458ZM66.5692-13.7497 94.0691 0.000360892 66.5691 13.7503Z" fill="#0068B5" fill-rule="nonzero" fill-opacity="1" transform="matrix(1 0 0 -1 1280 1359)"/><path d="M805.5 1220.25C805.5 1213.76 810.76 1208.5 817.248 1208.5L1836.75 1208.5C1843.24 1208.5 1848.5 1213.76 1848.5 1220.25L1848.5 1459.75C1848.5 1466.24 1843.24 1471.5 1836.75 1471.5L817.248 1471.5C810.76 1471.5 805.5 1466.24 805.5 1459.75Z" stroke="#0068B5" stroke-width="4.58333" stroke-linecap="butt" stroke-linejoin="miter" stroke-miterlimit="4" stroke-dasharray="18.3333 13.75" stroke-opacity="1" fill="none" fill-rule="evenodd"/><text fill="#8F5DA2" fill-opacity="1" font-family="Arial,Arial_MSFontService,sans-serif" font-style="normal" font-variant="normal" font-weight="400" font-stretch="normal" font-size="50" text-anchor="start" direction="ltr" writing-mode="lr-tb" unicode-bidi="normal" text-decoration="none" transform="matrix(1 0 0 1 827.183 1278)">Thread<tspan fill="#8F5DA2" fill-opacity="1" font-family="Arial,Arial_MSFontService,sans-serif" font-style="normal" font-variant="normal" font-weight="400" font-stretch="normal" font-size="50" text-anchor="start" direction="ltr" writing-mode="lr-tb" unicode-bidi="normal" text-decoration="none" x="173.594" y="0">2</tspan></text><path d="M831.5 1606.67C831.5 1594.98 840.977 1585.5 852.667 1585.5L1259.33 1585.5C1271.02 1585.5 1280.5 1594.98 1280.5 1606.67L1280.5 1691.33C1280.5 1703.02 1271.02 1712.5 1259.33 1712.5L852.667 1712.5C840.977 1712.5 831.5 1703.02 831.5 1691.33Z" stroke="#0068B5" stroke-width="4.58333" stroke-linecap="butt" stroke-linejoin="miter" stroke-miterlimit="4" stroke-opacity="1" fill="#FAE093" fill-rule="evenodd" fill-opacity="1"/><text fill="#000000" fill-opacity="1" font-family="Arial,Arial_MSFontService,sans-serif" font-style="normal" font-variant="normal" font-weight="400" font-stretch="normal" font-size="64" text-anchor="start" direction="ltr" writing-mode="lr-tb" unicode-bidi="normal" text-decoration="none" transform="matrix(1 0 0 1 920.305 1672)">stack<tspan fill="#000000" fill-opacity="1" font-family="Arial,Arial_MSFontService,sans-serif" font-style="normal" font-variant="normal" font-weight="400" font-stretch="normal" font-size="64" text-anchor="start" direction="ltr" writing-mode="lr-tb" unicode-bidi="normal" text-decoration="none" x="167.292" y="0">info</tspan></text><path d="M1374.5 1586.83C1374.5 1569.53 1388.53 1555.5 1405.83 1555.5L1791.17 1555.5C1808.47 1555.5 1822.5 1569.53 1822.5 1586.83L1822.5 1712.17C1822.5 1729.47 1808.47 1743.5 1791.17 1743.5L1405.83 1743.5C1388.53 1743.5 1374.5 1729.47 1374.5 1712.17Z" stroke="#0068B5" stroke-width="4.58333" stroke-linecap="butt" stroke-linejoin="miter" stroke-miterlimit="4" stroke-opacity="1" fill="#BDE3FF" fill-rule="evenodd" fill-opacity="1"/><text fill="#000000" fill-opacity="1" font-family="Arial,Arial_MSFontService,sans-serif" font-style="normal" font-variant="normal" font-weight="400" font-stretch="normal" font-size="55" text-anchor="start" direction="ltr" writing-mode="lr-tb" unicode-bidi="normal" text-decoration="none" transform="matrix(1 0 0 1 1476.21 1636)">graph info<tspan fill="#000000" fill-opacity="1" font-family="Arial,Arial_MSFontService,sans-serif" font-style="normal" font-variant="normal" font-weight="400" font-stretch="normal" font-size="55" text-anchor="start" direction="ltr" writing-mode="lr-tb" unicode-bidi="normal" text-decoration="none" x="13.475" y="66">*nodes[ ]</tspan></text><path d="M2.19797e-05-2.86458 71.1525-2.86404 71.1524 2.86513-2.19797e-05 2.86458ZM66.5692-13.7495 94.0691 0.000721785 66.569 13.7505Z" fill="#0068B5" fill-rule="nonzero" fill-opacity="1" transform="matrix(1 0 0 -1 1280 1649)"/><path d="M805.5 1512.25C805.5 1505.76 810.76 1500.5 817.248 1500.5L1836.75 1500.5C1843.24 1500.5 1848.5 1505.76 1848.5 1512.25L1848.5 1751.75C1848.5 1758.24 1843.24 1763.5 1836.75 1763.5L817.248 1763.5C810.76 1763.5 805.5 1758.24 805.5 1751.75Z" stroke="#0068B5" stroke-width="4.58333" stroke-linecap="butt" stroke-linejoin="miter" stroke-miterlimit="4" stroke-dasharray="18.3333 13.75" stroke-opacity="1" fill="none" fill-rule="evenodd"/><text fill="#8F5DA2" fill-opacity="1" font-family="Arial,Arial_MSFontService,sans-serif" font-style="normal" font-variant="normal" font-weight="400" font-stretch="normal" font-size="50" text-anchor="start" direction="ltr" writing-mode="lr-tb" unicode-bidi="normal" text-decoration="none" transform="matrix(1 0 0 1 827.183 1571)">Thread<tspan fill="#8F5DA2" fill-opacity="1" font-family="Arial,Arial_MSFontService,sans-serif" font-style="normal" font-variant="normal" font-weight="400" font-stretch="normal" font-size="50" text-anchor="start" direction="ltr" writing-mode="lr-tb" unicode-bidi="normal" text-decoration="none" x="173.594" y="0">3</tspan></text><path d="M831.5 1898.67C831.5 1886.98 840.977 1877.5 852.667 1877.5L1259.33 1877.5C1271.02 1877.5 1280.5 1886.98 1280.5 1898.67L1280.5 1983.33C1280.5 1995.02 1271.02 2004.5 1259.33 2004.5L852.667 2004.5C840.977 2004.5 831.5 1995.02 831.5 1983.33Z" stroke="#0068B5" stroke-width="4.58333" stroke-linecap="butt" stroke-linejoin="miter" stroke-miterlimit="4" stroke-opacity="1" fill="#FAE093" fill-rule="evenodd" fill-opacity="1"/><text fill="#000000" fill-opacity="1" font-family="Arial,Arial_MSFontService,sans-serif" font-style="normal" font-variant="normal" font-weight="400" font-stretch="normal" font-size="64" text-anchor="start" direction="ltr" writing-mode="lr-tb" unicode-bidi="normal" text-decoration="none" transform="matrix(1 0 0 1 920.288 1964)">stack<tspan fill="#000000" fill-opacity="1" font-family="Arial,Arial_MSFontService,sans-serif" font-style="normal" font-variant="normal" font-weight="400" font-stretch="normal" font-size="64" text-anchor="start" direction="ltr" writing-mode="lr-tb" unicode-bidi="normal" text-decoration="none" x="167.292" y="0">info</tspan></text><path d="M1374.5 1877.83C1374.5 1860.53 1388.53 1846.5 1405.83 1846.5L1791.17 1846.5C1808.47 1846.5 1822.5 1860.53 1822.5 1877.83L1822.5 2003.17C1822.5 2020.47 1808.47 2034.5 1791.17 2034.5L1405.83 2034.5C1388.53 2034.5 1374.5 2020.47 1374.5 2003.17Z" stroke="#0068B5" stroke-width="4.58333" stroke-linecap="butt" stroke-linejoin="miter" stroke-miterlimit="4" stroke-opacity="1" fill="#BDE3FF" fill-rule="evenodd" fill-opacity="1"/><text fill="#000000" fill-opacity="1" font-family="Arial,Arial_MSFontService,sans-serif" font-style="normal" font-variant="normal" font-weight="400" font-stretch="normal" font-size="55" text-anchor="start" direction="ltr" writing-mode="lr-tb" unicode-bidi="normal" text-decoration="none" transform="matrix(1 0 0 1 1476.19 1927)">graph info<tspan fill="#000000" fill-opacity="1" font-family="Arial,Arial_MSFontService,sans-serif" font-style="normal" font-variant="normal" font-weight="400" font-stretch="normal" font-size="55" text-anchor="start" direction="ltr" writing-mode="lr-tb" unicode-bidi="normal" text-decoration="none" x="13.475" y="66">*nodes[ ]</tspan></text><path d="M1.09899e-05-2.86458 71.1525-2.86431 71.1525 2.86486-1.09899e-05 2.86458ZM66.5692-13.7497 94.0691 0.000360892 66.5691 13.7503Z" fill="#0068B5" fill-rule="nonzero" fill-opacity="1" transform="matrix(1 0 0 -1 1280 1940)"/><path d="M805.5 1805.25C805.5 1798.76 810.76 1793.5 817.248 1793.5L1836.75 1793.5C1843.24 1793.5 1848.5 1798.76 1848.5 1805.25L1848.5 2044.75C1848.5 2051.24 1843.24 2056.5 1836.75 2056.5L817.248 2056.5C810.76 2056.5 805.5 2051.24 805.5 2044.75Z" stroke="#0068B5" stroke-width="4.58333" stroke-linecap="butt" stroke-linejoin="miter" stroke-miterlimit="4" stroke-dasharray="18.3333 13.75" stroke-opacity="1" fill="none" fill-rule="evenodd"/><text fill="#8F5DA2" fill-opacity="1" font-family="Arial,Arial_MSFontService,sans-serif" font-style="normal" font-variant="normal" font-weight="400" font-stretch="normal" font-size="50" text-anchor="start" direction="ltr" writing-mode="lr-tb" unicode-bidi="normal" text-decoration="none" transform="matrix(1 0 0 1 827.183 1864)">Thread<tspan fill="#8F5DA2" fill-opacity="1" font-family="Arial,Arial_MSFontService,sans-serif" font-style="normal" font-variant="normal" font-weight="400" font-stretch="normal" font-size="50" text-anchor="start" direction="ltr" writing-mode="lr-tb" unicode-bidi="normal" text-decoration="none" x="173.594" y="0">N</tspan></text></g></svg>