<?xml version="1.0" encoding="UTF-8" standalone="no"?>
<!-- Generated by graphviz version 2.43.0 (0)
 -->

<!-- Title: cnet_2 Pages: 1 -->

<svg
   width="759pt"
   height="578pt"
   viewBox="0.00 0.00 758.50 578.00"
   version="1.1"
   id="svg353"
   sodipodi:docname="cnet.svg"
   inkscape:version="1.1.2 (0a00cf5339, 2022-02-04)"
   xmlns:inkscape="http://www.inkscape.org/namespaces/inkscape"
   xmlns:sodipodi="http://sodipodi.sourceforge.net/DTD/sodipodi-0.dtd"
   xmlns="http://www.w3.org/2000/svg"
   xmlns:svg="http://www.w3.org/2000/svg">
  <defs
     id="defs357" />
  <sodipodi:namedview
     id="namedview355"
     pagecolor="#ffffff"
     bordercolor="#666666"
     borderopacity="1.0"
     inkscape:pageshadow="2"
     inkscape:pageopacity="0.0"
     inkscape:pagecheckerboard="0"
     inkscape:document-units="pt"
     showgrid="false"
     inkscape:zoom="1.1327855"
     inkscape:cx="661.20199"
     inkscape:cy="455.95571"
     inkscape:window-width="2201"
     inkscape:window-height="1044"
     inkscape:window-x="3587"
     inkscape:window-y="98"
     inkscape:window-maximized="0"
     inkscape:current-layer="graph0" />
  <g
     id="graph0"
     class="graph"
     transform="scale(1 1) rotate(0) translate(4 574)">
    <title
       id="title2">cnet_2</title>
    <polygon
       fill="mistyrose"
       stroke="transparent"
       points="-4,4 -4,-574 754.5,-574 754.5,4 -4,4"
       id="polygon4" />
    <text
       text-anchor="start"
       x="193.75"
       y="-11"
       font-family="Times,serif"
       font-size="14.00"
       id="text6">Graph Name: </text>
    <text
       text-anchor="start"
       x="293.75"
       y="-11"
       font-family="Times,serif"
       font-size="20.00"
       fill="blue"
       id="text8" />
    <text
       text-anchor="start"
       x="280.14874"
       y="-9.9786263"
       font-family="Times, serif"
       font-weight="bold"
       font-size="20px"
       fill="#0000ff"
       id="text10">CNET-Stack</text>
    <text
       text-anchor="start"
       x="373.75"
       y="-11"
       font-family="Times,serif"
       font-size="14.00"
       id="text12">      </text>
    <text
       text-anchor="start"
       x="401.75"
       y="-11"
       font-family="Times, serif"
       font-weight="bold"
       font-size="14px"
       id="text14"
       style="white-space:pre;inline-size:127.849"
       transform="matrix(0.98491839,0,0,1,58.944372,0)"
       xml:space="preserve"><tspan
         x="401.75"
         y="-11"
         id="tspan29598">(pkt_drop removed)</tspan></text>
    <!-- ip4_input -->
    <g
       id="node1"
       class="node">
      <title
         id="title16">ip4_input</title>
      <path
         fill="mediumspringgreen"
         stroke="black"
         d="M520,-354C520,-354 451,-354 451,-354 445,-354 439,-348 439,-342 439,-342 439,-330 439,-330 439,-324 445,-318 451,-318 451,-318 520,-318 520,-318 526,-318 532,-324 532,-330 532,-330 532,-342 532,-342 532,-348 526,-354 520,-354"
         id="path18" />
      <text
         text-anchor="middle"
         x="485.5"
         y="-332.2"
         font-family="Times,serif"
         font-size="16.00"
         id="text20">ip4_input</text>
    </g>
    <!-- ip4_forward -->
    <g
       id="node2"
       class="node">
      <title
         id="title23">ip4_forward</title>
      <path
         fill="mediumspringgreen"
         stroke="black"
         d="M382.5,-282C382.5,-282 292.5,-282 292.5,-282 286.5,-282 280.5,-276 280.5,-270 280.5,-270 280.5,-258 280.5,-258 280.5,-252 286.5,-246 292.5,-246 292.5,-246 382.5,-246 382.5,-246 388.5,-246 394.5,-252 394.5,-258 394.5,-258 394.5,-270 394.5,-270 394.5,-276 388.5,-282 382.5,-282"
         id="path25" />
      <text
         text-anchor="middle"
         x="337.5"
         y="-260.2"
         font-family="Times,serif"
         font-size="16.00"
         id="text27">ip4_forward</text>
    </g>
    <!-- ip4_input&#45;&gt;ip4_forward -->
    <g
       id="edge1"
       class="edge">
      <title
         id="title30">ip4_input-&gt;ip4_forward</title>
      <path
         fill="none"
         stroke="blue"
         d="M449.3,-317.88C428.07,-307.84 401.18,-295.12 379.09,-284.67"
         id="path32" />
      <polygon
         fill="blue"
         stroke="blue"
         points="379.91,-282.74 373.59,-282.07 378.11,-286.53 379.91,-282.74"
         id="polygon34" />
    </g>
    <!-- ip4_proto -->
    <g
       id="node3"
       class="node">
      <title
         id="title37">ip4_proto</title>
      <path
         fill="mediumspringgreen"
         stroke="black"
         d="M610,-282C610,-282 541,-282 541,-282 535,-282 529,-276 529,-270 529,-270 529,-258 529,-258 529,-252 535,-246 541,-246 541,-246 610,-246 610,-246 616,-246 622,-252 622,-258 622,-258 622,-270 622,-270 622,-276 616,-282 610,-282"
         id="path39" />
      <text
         text-anchor="middle"
         x="575.5"
         y="-260.2"
         font-family="Times,serif"
         font-size="16.00"
         id="text41">ip4_proto</text>
    </g>
    <!-- ip4_input&#45;&gt;ip4_proto -->
    <g
       id="edge2"
       class="edge">
      <title
         id="title44">ip4_input-&gt;ip4_proto</title>
      <path
         fill="none"
         stroke="blue"
         d="M507.75,-317.7C520.06,-308.12 535.46,-296.14 548.47,-286.02"
         id="path46" />
      <polygon
         fill="blue"
         stroke="blue"
         points="550.06,-287.45 553.51,-282.1 547.48,-284.13 550.06,-287.45"
         id="polygon48" />
    </g>
    <!-- arp_request -->
    <g
       id="node5"
       class="node">
      <title
         id="title51">arp_request</title>
      <path
         fill="mediumspringgreen"
         stroke="black"
         d="M498.5,-210C498.5,-210 408.5,-210 408.5,-210 402.5,-210 396.5,-204 396.5,-198 396.5,-198 396.5,-186 396.5,-186 396.5,-180 402.5,-174 408.5,-174 408.5,-174 498.5,-174 498.5,-174 504.5,-174 510.5,-180 510.5,-186 510.5,-186 510.5,-198 510.5,-198 510.5,-204 504.5,-210 498.5,-210"
         id="path53" />
      <text
         text-anchor="middle"
         x="453.5"
         y="-188.2"
         font-family="Times,serif"
         font-size="16.00"
         id="text55">arp_request</text>
    </g>
    <!-- ip4_forward&#45;&gt;arp_request -->
    <g
       id="edge8"
       class="edge">
      <title
         id="title58">ip4_forward-&gt;arp_request</title>
      <path
         fill="none"
         stroke="blue"
         d="M365.88,-245.88C382.17,-236.05 402.72,-223.64 419.82,-213.32"
         id="path60" />
      <polygon
         fill="blue"
         stroke="blue"
         points="420.96,-215.09 425.01,-210.19 418.79,-211.49 420.96,-215.09"
         id="polygon62" />
    </g>
    <!-- eth_tx&#45;0 -->
    <g
       id="node6"
       class="node">
      <title
         id="title65">eth_tx-0</title>
      <path
         fill="cyan"
         stroke="black"
         d="M69,-210C69,-210 12,-210 12,-210 6,-210 0,-204 0,-198 0,-198 0,-186 0,-186 0,-180 6,-174 12,-174 12,-174 69,-174 69,-174 75,-174 81,-180 81,-186 81,-186 81,-198 81,-198 81,-204 75,-210 69,-210"
         id="path67" />
      <text
         text-anchor="middle"
         x="40.5"
         y="-188.2"
         font-family="Times,serif"
         font-size="16.00"
         id="text69">eth_tx-0</text>
    </g>
    <!-- ip4_forward&#45;&gt;eth_tx&#45;0 -->
    <g
       id="edge9"
       class="edge">
      <title
         id="title72">ip4_forward-&gt;eth_tx-0</title>
      <path
         fill="none"
         stroke="blue"
         d="M280.31,-248.06C277.33,-247.35 274.38,-246.66 271.5,-246 191.1,-227.71 169.09,-231.57 89.5,-210 88.63,-209.76 87.75,-209.52 86.87,-209.27"
         id="path74" />
      <polygon
         fill="blue"
         stroke="blue"
         points="87.36,-207.22 81.01,-207.54 86.17,-211.25 87.36,-207.22"
         id="polygon76" />
    </g>
    <!-- eth_tx&#45;1 -->
    <g
       id="node7"
       class="node">
      <title
         id="title79">eth_tx-1</title>
      <path
         fill="cyan"
         stroke="black"
         d="M168,-210C168,-210 111,-210 111,-210 105,-210 99,-204 99,-198 99,-198 99,-186 99,-186 99,-180 105,-174 111,-174 111,-174 168,-174 168,-174 174,-174 180,-180 180,-186 180,-186 180,-198 180,-198 180,-204 174,-210 168,-210"
         id="path81" />
      <text
         text-anchor="middle"
         x="139.5"
         y="-188.2"
         font-family="Times,serif"
         font-size="16.00"
         id="text83">eth_tx-1</text>
    </g>
    <!-- ip4_forward&#45;&gt;eth_tx&#45;1 -->
    <g
       id="edge10"
       class="edge">
      <title
         id="title86">ip4_forward-&gt;eth_tx-1</title>
      <path
         fill="none"
         stroke="blue"
         d="M289.32,-245.97C257.85,-234.84 216.99,-220.39 185.89,-209.4"
         id="path88" />
      <polygon
         fill="blue"
         stroke="blue"
         points="186.55,-207.41 180.2,-207.39 185.15,-211.37 186.55,-207.41"
         id="polygon90" />
    </g>
    <!-- eth_tx&#45;2 -->
    <g
       id="node8"
       class="node">
      <title
         id="title93">eth_tx-2</title>
      <path
         fill="cyan"
         stroke="black"
         d="M267,-210C267,-210 210,-210 210,-210 204,-210 198,-204 198,-198 198,-198 198,-186 198,-186 198,-180 204,-174 210,-174 210,-174 267,-174 267,-174 273,-174 279,-180 279,-186 279,-186 279,-198 279,-198 279,-204 273,-210 267,-210"
         id="path95" />
      <text
         text-anchor="middle"
         x="238.5"
         y="-188.2"
         font-family="Times,serif"
         font-size="16.00"
         id="text97">eth_tx-2</text>
    </g>
    <!-- ip4_forward&#45;&gt;eth_tx&#45;2 -->
    <g
       id="edge11"
       class="edge">
      <title
         id="title100">ip4_forward-&gt;eth_tx-2</title>
      <path
         fill="none"
         stroke="blue"
         d="M313.28,-245.88C299.62,-236.22 282.44,-224.07 268,-213.86"
         id="path102" />
      <polygon
         fill="blue"
         stroke="blue"
         points="268.92,-211.94 262.81,-210.19 266.5,-215.37 268.92,-211.94"
         id="polygon104" />
    </g>
    <!-- eth_tx&#45;3 -->
    <g
       id="node9"
       class="node">
      <title
         id="title107">eth_tx-3</title>
      <path
         fill="cyan"
         stroke="black"
         d="M366,-210C366,-210 309,-210 309,-210 303,-210 297,-204 297,-198 297,-198 297,-186 297,-186 297,-180 303,-174 309,-174 309,-174 366,-174 366,-174 372,-174 378,-180 378,-186 378,-186 378,-198 378,-198 378,-204 372,-210 366,-210"
         id="path109" />
      <text
         text-anchor="middle"
         x="337.5"
         y="-188.2"
         font-family="Times,serif"
         font-size="16.00"
         id="text111">eth_tx-3</text>
    </g>
    <!-- ip4_forward&#45;&gt;eth_tx&#45;3 -->
    <g
       id="edge12"
       class="edge">
      <title
         id="title114">ip4_forward-&gt;eth_tx-3</title>
      <path
         fill="none"
         stroke="blue"
         d="M337.5,-245.7C337.5,-236.8 337.5,-225.82 337.5,-216.2"
         id="path116" />
      <polygon
         fill="blue"
         stroke="blue"
         points="339.6,-216.1 337.5,-210.1 335.4,-216.1 339.6,-216.1"
         id="polygon118" />
    </g>
    <!-- udp_input -->
    <g
       id="node10"
       class="node">
      <title
         id="title121">udp_input</title>
      <path
         fill="cornsilk"
         stroke="black"
         d="M726.5,-210C726.5,-210 652.5,-210 652.5,-210 646.5,-210 640.5,-204 640.5,-198 640.5,-198 640.5,-186 640.5,-186 640.5,-180 646.5,-174 652.5,-174 652.5,-174 726.5,-174 726.5,-174 732.5,-174 738.5,-180 738.5,-186 738.5,-186 738.5,-198 738.5,-198 738.5,-204 732.5,-210 726.5,-210"
         id="path123" />
      <text
         text-anchor="middle"
         x="689.5"
         y="-188.2"
         font-family="Times,serif"
         font-size="16.00"
         id="text125">udp_input</text>
    </g>
    <!-- ip4_proto&#45;&gt;udp_input -->
    <g
       id="edge13"
       class="edge">
      <title
         id="title128">ip4_proto-&gt;udp_input</title>
      <path
         fill="none"
         stroke="blue"
         d="M603.39,-245.88C619.26,-236.13 639.25,-223.86 655.97,-213.59"
         id="path130" />
      <polygon
         fill="blue"
         stroke="blue"
         points="657.49,-215.12 661.51,-210.19 655.29,-211.54 657.49,-215.12"
         id="polygon132" />
    </g>
    <!-- tcp_input -->
    <g
       id="node11"
       class="node">
      <title
         id="title135">tcp_input</title>
      <path
         fill="lightpink"
         stroke="black"
         d="M610,-210C610,-210 541,-210 541,-210 535,-210 529,-204 529,-198 529,-198 529,-186 529,-186 529,-180 535,-174 541,-174 541,-174 610,-174 610,-174 616,-174 622,-180 622,-186 622,-186 622,-198 622,-198 622,-204 616,-210 610,-210"
         id="path137" />
      <text
         text-anchor="middle"
         x="575.5"
         y="-188.2"
         font-family="Times,serif"
         font-size="16.00"
         id="text139">tcp_input</text>
    </g>
    <!-- ip4_proto&#45;&gt;tcp_input -->
    <g
       id="edge14"
       class="edge">
      <title
         id="title142">ip4_proto-&gt;tcp_input</title>
      <path
         fill="none"
         stroke="blue"
         d="M575.5,-245.7C575.5,-236.8 575.5,-225.82 575.5,-216.2"
         id="path144" />
      <polygon
         fill="blue"
         stroke="blue"
         points="577.6,-216.1 575.5,-210.1 573.4,-216.1 577.6,-216.1"
         id="polygon146" />
    </g>
    <!-- ip4_output -->
    <g
       id="node4"
       class="node">
      <title
         id="title149">ip4_output</title>
      <path
         fill="mediumspringgreen"
         stroke="black"
         d="M250.5,-282C250.5,-282 170.5,-282 170.5,-282 164.5,-282 158.5,-276 158.5,-270 158.5,-270 158.5,-258 158.5,-258 158.5,-252 164.5,-246 170.5,-246 170.5,-246 250.5,-246 250.5,-246 256.5,-246 262.5,-252 262.5,-258 262.5,-258 262.5,-270 262.5,-270 262.5,-276 256.5,-282 250.5,-282"
         id="path151" />
      <text
         text-anchor="middle"
         x="210.5"
         y="-260.2"
         font-family="Times,serif"
         font-size="16.00"
         id="text153">ip4_output</text>
    </g>
    <!-- ip4_output&#45;&gt;arp_request -->
    <g
       id="edge3"
       class="edge">
      <title
         id="title156">ip4_output-&gt;arp_request</title>
      <path
         fill="none"
         stroke="blue"
         d="M262.63,-247.98C300.11,-237.19 350.84,-222.57 390.58,-211.12"
         id="path158" />
      <polygon
         fill="blue"
         stroke="blue"
         points="391.18,-213.14 396.36,-209.46 390.01,-209.1 391.18,-213.14"
         id="polygon160" />
    </g>
    <!-- ip4_output&#45;&gt;eth_tx&#45;0 -->
    <g
       id="edge4"
       class="edge">
      <title
         id="title163">ip4_output-&gt;eth_tx-0</title>
      <path
         fill="none"
         stroke="blue"
         d="M168.91,-245.88C144.06,-235.64 112.43,-222.62 86.78,-212.06"
         id="path165" />
      <polygon
         fill="blue"
         stroke="blue"
         points="87.42,-210.05 81.07,-209.71 85.82,-213.93 87.42,-210.05"
         id="polygon167" />
    </g>
    <!-- ip4_output&#45;&gt;eth_tx&#45;1 -->
    <g
       id="edge5"
       class="edge">
      <title
         id="title170">ip4_output-&gt;eth_tx-1</title>
      <path
         fill="none"
         stroke="blue"
         d="M192.95,-245.7C183.41,-236.29 171.51,-224.56 161.37,-214.56"
         id="path172" />
      <polygon
         fill="blue"
         stroke="blue"
         points="162.6,-212.82 156.85,-210.1 159.65,-215.81 162.6,-212.82"
         id="polygon174" />
    </g>
    <!-- ip4_output&#45;&gt;eth_tx&#45;2 -->
    <g
       id="edge6"
       class="edge">
      <title
         id="title177">ip4_output-&gt;eth_tx-2</title>
      <path
         fill="none"
         stroke="blue"
         d="M217.42,-245.7C221.02,-236.71 225.45,-225.61 229.33,-215.92"
         id="path179" />
      <polygon
         fill="blue"
         stroke="blue"
         points="231.38,-216.46 231.66,-210.1 227.48,-214.9 231.38,-216.46"
         id="polygon181" />
    </g>
    <!-- ip4_output&#45;&gt;eth_tx&#45;3 -->
    <g
       id="edge7"
       class="edge">
      <title
         id="title184">ip4_output-&gt;eth_tx-3</title>
      <path
         fill="none"
         stroke="blue"
         d="M241.57,-245.88C259.4,-236.05 281.9,-223.64 300.63,-213.32"
         id="path186" />
      <polygon
         fill="blue"
         stroke="blue"
         points="302.07,-214.93 306.31,-210.19 300.04,-211.25 302.07,-214.93"
         id="polygon188" />
    </g>
    <!-- chnl_recv -->
    <g
       id="node12"
       class="node">
      <title
         id="title191">chnl_recv</title>
      <path
         fill="yellowgreen"
         stroke="black"
         d="M606,-138C606,-138 537,-138 537,-138 531,-138 525,-132 525,-126 525,-126 525,-114 525,-114 525,-108 531,-102 537,-102 537,-102 606,-102 606,-102 612,-102 618,-108 618,-114 618,-114 618,-126 618,-126 618,-132 612,-138 606,-138"
         id="path193" />
      <text
         text-anchor="middle"
         x="571.5"
         y="-116.2"
         font-family="Times,serif"
         font-size="16.00"
         id="text195">chnl_recv</text>
    </g>
    <!-- udp_input&#45;&gt;chnl_recv -->
    <g
       id="edge15"
       class="edge">
      <title
         id="title198">udp_input-&gt;chnl_recv</title>
      <path
         fill="none"
         stroke="blue"
         d="M660.63,-173.88C644.06,-164.05 623.16,-151.64 605.76,-141.32"
         id="path200" />
      <polygon
         fill="blue"
         stroke="blue"
         points="606.71,-139.44 600.48,-138.19 604.57,-143.06 606.71,-139.44"
         id="polygon202" />
    </g>
    <!-- punt_kernel -->
    <g
       id="node13"
       class="node">
      <title
         id="title205">punt_kernel</title>
      <path
         fill="coral"
         stroke="black"
         d="M738.5,-138C738.5,-138 648.5,-138 648.5,-138 642.5,-138 636.5,-132 636.5,-126 636.5,-126 636.5,-114 636.5,-114 636.5,-108 642.5,-102 648.5,-102 648.5,-102 738.5,-102 738.5,-102 744.5,-102 750.5,-108 750.5,-114 750.5,-114 750.5,-126 750.5,-126 750.5,-132 744.5,-138 738.5,-138"
         id="path207" />
      <text
         text-anchor="middle"
         x="693.5"
         y="-116.2"
         font-family="Times,serif"
         font-size="16.00"
         id="text209">punt_kernel</text>
    </g>
    <!-- udp_input&#45;&gt;punt_kernel -->
    <g
       id="edge16"
       class="edge">
      <title
         id="title212">udp_input-&gt;punt_kernel</title>
      <path
         fill="none"
         stroke="blue"
         d="M690.49,-173.7C691,-164.8 691.62,-153.82 692.17,-144.2"
         id="path214" />
      <polygon
         fill="blue"
         stroke="blue"
         points="694.28,-144.21 692.52,-138.1 690.08,-143.97 694.28,-144.21"
         id="polygon216" />
    </g>
    <!-- tcp_input&#45;&gt;chnl_recv -->
    <g
       id="edge18"
       class="edge">
      <title
         id="title219">tcp_input-&gt;chnl_recv</title>
      <path
         fill="none"
         stroke="blue"
         d="M574.51,-173.7C574,-164.8 573.38,-153.82 572.83,-144.2"
         id="path221" />
      <polygon
         fill="blue"
         stroke="blue"
         points="574.92,-143.97 572.48,-138.1 570.72,-144.21 574.92,-143.97"
         id="polygon223" />
    </g>
    <!-- tcp_input&#45;&gt;punt_kernel -->
    <g
       id="edge19"
       class="edge">
      <title
         id="title226">tcp_input-&gt;punt_kernel</title>
      <path
         fill="none"
         stroke="blue"
         d="M604.37,-173.88C620.94,-164.05 641.84,-151.64 659.24,-141.32"
         id="path228" />
      <polygon
         fill="blue"
         stroke="blue"
         points="660.43,-143.06 664.52,-138.19 658.29,-139.44 660.43,-143.06"
         id="polygon230" />
    </g>
    <!-- chnl_callback -->
    <g
       id="node16"
       class="node">
      <title
         id="title233">chnl_callback</title>
      <path
         fill="lightgrey"
         stroke="black"
         d="M622.5,-66C622.5,-66 520.5,-66 520.5,-66 514.5,-66 508.5,-60 508.5,-54 508.5,-54 508.5,-42 508.5,-42 508.5,-36 514.5,-30 520.5,-30 520.5,-30 622.5,-30 622.5,-30 628.5,-30 634.5,-36 634.5,-42 634.5,-42 634.5,-54 634.5,-54 634.5,-60 628.5,-66 622.5,-66"
         id="path235" />
      <text
         text-anchor="middle"
         x="571.5"
         y="-44.2"
         font-family="Times,serif"
         font-size="16.00"
         id="text237">chnl_callback</text>
    </g>
    <!-- chnl_recv&#45;&gt;chnl_callback -->
    <g
       id="edge21"
       class="edge">
      <title
         id="title240">chnl_recv-&gt;chnl_callback</title>
      <path
         fill="none"
         stroke="blue"
         d="M571.5,-101.7C571.5,-92.8 571.5,-81.82 571.5,-72.2"
         id="path242" />
      <polygon
         fill="blue"
         stroke="blue"
         points="573.6,-72.1 571.5,-66.1 569.4,-72.1 573.6,-72.1"
         id="polygon244" />
    </g>
    <!-- udp_output -->
    <g
       id="node14"
       class="node">
      <title
         id="title247">udp_output</title>
      <path
         fill="cornsilk"
         stroke="black"
         d="M196,-354C196,-354 111,-354 111,-354 105,-354 99,-348 99,-342 99,-342 99,-330 99,-330 99,-324 105,-318 111,-318 111,-318 196,-318 196,-318 202,-318 208,-324 208,-330 208,-330 208,-342 208,-342 208,-348 202,-354 196,-354"
         id="path249" />
      <text
         text-anchor="middle"
         x="153.5"
         y="-332.2"
         font-family="Times,serif"
         font-size="16.00"
         id="text251">udp_output</text>
    </g>
    <!-- udp_output&#45;&gt;ip4_output -->
    <g
       id="edge17"
       class="edge">
      <title
         id="title254">udp_output-&gt;ip4_output</title>
      <path
         fill="none"
         stroke="blue"
         d="M167.59,-317.7C175.18,-308.37 184.63,-296.77 192.72,-286.83"
         id="path256" />
      <polygon
         fill="blue"
         stroke="blue"
         points="194.41,-288.08 196.57,-282.1 191.16,-285.43 194.41,-288.08"
         id="polygon258" />
    </g>
    <!-- tcp_output -->
    <g
       id="node15"
       class="node">
      <title
         id="title261">tcp_output</title>
      <path
         fill="lightpink"
         stroke="black"
         d="M318.5,-354C318.5,-354 238.5,-354 238.5,-354 232.5,-354 226.5,-348 226.5,-342 226.5,-342 226.5,-330 226.5,-330 226.5,-324 232.5,-318 238.5,-318 238.5,-318 318.5,-318 318.5,-318 324.5,-318 330.5,-324 330.5,-330 330.5,-330 330.5,-342 330.5,-342 330.5,-348 324.5,-354 318.5,-354"
         id="path263" />
      <text
         text-anchor="middle"
         x="278.5"
         y="-332.2"
         font-family="Times,serif"
         font-size="16.00"
         id="text265">tcp_output</text>
    </g>
    <!-- tcp_output&#45;&gt;ip4_output -->
    <g
       id="edge20"
       class="edge">
      <title
         id="title268">tcp_output-&gt;ip4_output</title>
      <path
         fill="none"
         stroke="blue"
         d="M261.69,-317.7C252.55,-308.29 241.16,-296.56 231.45,-286.56"
         id="path270" />
      <polygon
         fill="blue"
         stroke="blue"
         points="232.8,-284.94 227.12,-282.1 229.79,-287.87 232.8,-284.94"
         id="polygon272" />
    </g>
    <!-- kernel_recv -->
    <g
       id="node17"
       class="node">
      <title
         id="title275">kernel_recv</title>
      <path
         fill="lightcoral"
         stroke="black"
         d="M413,-570C413,-570 326,-570 326,-570 320,-570 314,-564 314,-558 314,-558 314,-546 314,-546 314,-540 320,-534 326,-534 326,-534 413,-534 413,-534 419,-534 425,-540 425,-546 425,-546 425,-558 425,-558 425,-564 419,-570 413,-570"
         id="path277" />
      <text
         text-anchor="middle"
         x="369.5"
         y="-548.2"
         font-family="Times,serif"
         font-size="16.00"
         id="text279">kernel_recv</text>
    </g>
    <!-- ptype -->
    <g
       id="node18"
       class="node">
      <title
         id="title282">ptype</title>
      <path
         fill="goldenrod"
         stroke="black"
         d="M503,-498C503,-498 466,-498 466,-498 460,-498 454,-492 454,-486 454,-486 454,-474 454,-474 454,-468 460,-462 466,-462 466,-462 503,-462 503,-462 509,-462 515,-468 515,-474 515,-474 515,-486 515,-486 515,-492 509,-498 503,-498"
         id="path284" />
      <text
         text-anchor="middle"
         x="484.5"
         y="-476.2"
         font-family="Times,serif"
         font-size="16.00"
         id="text286">ptype</text>
    </g>
    <!-- kernel_recv&#45;&gt;ptype -->
    <g
       id="edge22"
       class="edge">
      <title
         id="title289">kernel_recv-&gt;ptype</title>
      <path
         fill="none"
         stroke="blue"
         d="M397.63,-533.88C413.78,-524.05 434.16,-511.64 451.12,-501.32"
         id="path291" />
      <polygon
         fill="blue"
         stroke="blue"
         points="452.23,-503.1 456.26,-498.19 450.04,-499.52 452.23,-503.1"
         id="polygon293" />
    </g>
    <!-- ptype&#45;&gt;ip4_input -->
    <g
       id="edge25"
       class="edge">
      <title
         id="title296">ptype-&gt;ip4_input</title>
      <path
         fill="none"
         stroke="blue"
         d="M475.78,-461.83C471.13,-451.69 465.88,-438.44 463.5,-426 460.5,-410.28 460.37,-405.69 463.5,-390 465.56,-379.64 469.69,-368.78 473.82,-359.6"
         id="path298" />
      <polygon
         fill="blue"
         stroke="blue"
         points="475.74,-360.45 476.37,-354.12 471.93,-358.67 475.74,-360.45"
         id="polygon300" />
    </g>
    <!-- gtpu_input -->
    <g
       id="node21"
       class="node">
      <title
         id="title303">gtpu_input</title>
      <path
         fill="lightskyblue"
         stroke="black"
         d="M566,-426C566,-426 485,-426 485,-426 479,-426 473,-420 473,-414 473,-414 473,-402 473,-402 473,-396 479,-390 485,-390 485,-390 566,-390 566,-390 572,-390 578,-396 578,-402 578,-402 578,-414 578,-414 578,-420 572,-426 566,-426"
         id="path305" />
      <text
         text-anchor="middle"
         x="525.5"
         y="-404.2"
         font-family="Times,serif"
         font-size="16.00"
         id="text307">gtpu_input</text>
    </g>
    <!-- ptype&#45;&gt;gtpu_input -->
    <g
       id="edge26"
       class="edge">
      <title
         id="title310">ptype-&gt;gtpu_input</title>
      <path
         fill="none"
         stroke="blue"
         d="M494.63,-461.7C500,-452.54 506.64,-441.19 512.39,-431.38"
         id="path312" />
      <polygon
         fill="blue"
         stroke="blue"
         points="514.26,-432.34 515.48,-426.1 510.64,-430.22 514.26,-432.34"
         id="polygon314" />
    </g>
    <!-- eth_rx&#45;0 -->
    <g
       id="node19"
       class="node">
      <title
         id="title317">eth_rx-0</title>
      <path
         fill="lavender"
         stroke="black"
         d="M513.5,-570C513.5,-570 455.5,-570 455.5,-570 449.5,-570 443.5,-564 443.5,-558 443.5,-558 443.5,-546 443.5,-546 443.5,-540 449.5,-534 455.5,-534 455.5,-534 513.5,-534 513.5,-534 519.5,-534 525.5,-540 525.5,-546 525.5,-546 525.5,-558 525.5,-558 525.5,-564 519.5,-570 513.5,-570"
         id="path319" />
      <text
         text-anchor="middle"
         x="484.5"
         y="-548.2"
         font-family="Times,serif"
         font-size="16.00"
         id="text321">eth_rx-0</text>
    </g>
    <!-- eth_rx&#45;0&#45;&gt;ptype -->
    <g
       id="edge23"
       class="edge">
      <title
         id="title324">eth_rx-0-&gt;ptype</title>
      <path
         fill="none"
         stroke="blue"
         d="M484.5,-533.7C484.5,-524.8 484.5,-513.82 484.5,-504.2"
         id="path326" />
      <polygon
         fill="blue"
         stroke="blue"
         points="486.6,-504.1 484.5,-498.1 482.4,-504.1 486.6,-504.1"
         id="polygon328" />
    </g>
    <!-- eth_rx&#45;1 -->
    <g
       id="node20"
       class="node">
      <title
         id="title331">eth_rx-1</title>
      <path
         fill="lavender"
         stroke="black"
         d="M613.5,-570C613.5,-570 555.5,-570 555.5,-570 549.5,-570 543.5,-564 543.5,-558 543.5,-558 543.5,-546 543.5,-546 543.5,-540 549.5,-534 555.5,-534 555.5,-534 613.5,-534 613.5,-534 619.5,-534 625.5,-540 625.5,-546 625.5,-546 625.5,-558 625.5,-558 625.5,-564 619.5,-570 613.5,-570"
         id="path333" />
      <text
         text-anchor="middle"
         x="584.5"
         y="-548.2"
         font-family="Times,serif"
         font-size="16.00"
         id="text335">eth_rx-1</text>
    </g>
    <!-- eth_rx&#45;1&#45;&gt;ptype -->
    <g
       id="edge24"
       class="edge">
      <title
         id="title338">eth_rx-1-&gt;ptype</title>
      <path
         fill="none"
         stroke="blue"
         d="M560.04,-533.88C546.24,-524.22 528.89,-512.07 514.3,-501.86"
         id="path340" />
      <polygon
         fill="blue"
         stroke="blue"
         points="515.18,-499.91 509.06,-498.19 512.77,-503.35 515.18,-499.91"
         id="polygon342" />
    </g>
    <!-- gtpu_input&#45;&gt;ip4_input -->
    <g
       id="edge27"
       class="edge">
      <title
         id="title345">gtpu_input-&gt;ip4_input</title>
      <path
         fill="none"
         stroke="blue"
         d="M515.61,-389.7C510.38,-380.54 503.9,-369.19 498.29,-359.38"
         id="path347" />
      <polygon
         fill="blue"
         stroke="blue"
         points="500.07,-358.27 495.27,-354.1 496.43,-360.36 500.07,-358.27"
         id="polygon349" />
    </g>
  </g>
</svg>
