<svg width="1462" height="1636" xmlns="http://www.w3.org/2000/svg" xmlns:xlink="http://www.w3.org/1999/xlink" xml:space="preserve" overflow="hidden"><defs><clipPath id="clip0"><rect x="1347" y="545" width="1462" height="1636"/></clipPath></defs><g clip-path="url(#clip0)" transform="translate(-1347 -545)"><path d="M1377.5 594.642C1377.5 570.263 1397.26 550.5 1421.64 550.5L2762.36 550.5C2786.74 550.5 2806.5 570.263 2806.5 594.642L2806.5 1983.36C2806.5 2007.74 2786.74 2027.5 2762.36 2027.5L1421.64 2027.5C1397.26 2027.5 1377.5 2007.74 1377.5 1983.36Z" stroke="#8F5DA2" stroke-width="4.58333" stroke-linecap="butt" stroke-linejoin="miter" stroke-miterlimit="4" stroke-opacity="1" fill="#F2F2F2" fill-rule="evenodd" fill-opacity="1"/><text fill="#000000" fill-opacity="1" font-family="Helvetica Neue,Helvetica Neue_MSFontService,sans-serif" font-style="normal" font-variant="normal" font-weight="500" font-stretch="normal" font-size="83" text-anchor="start" direction="ltr" writing-mode="lr-tb" unicode-bidi="normal" text-decoration="none" transform="matrix(1 0 0 1 1408.54 662)">POD</text><path d="M1988.5 612.965C1988.5 599.453 1999.45 588.5 2012.96 588.5L2756.03 588.5C2769.54 588.5 2780.49 599.453 2780.49 612.965L2780.49 1442.04C2780.49 1455.55 2769.54 1466.5 2756.03 1466.5L2012.96 1466.5C1999.45 1466.5 1988.5 1455.55 1988.5 1442.04Z" stroke="#8F5DA2" stroke-width="4.58333" stroke-linecap="butt" stroke-linejoin="miter" stroke-miterlimit="4" stroke-opacity="1" fill="#FDF5DB" fill-rule="evenodd" fill-opacity="1"/><text fill="#000000" fill-opacity="1" font-family="Helvetica Neue,Helvetica Neue_MSFontService,sans-serif" font-style="normal" font-variant="normal" font-weight="500" font-stretch="normal" font-size="83" text-anchor="start" direction="ltr" writing-mode="lr-tb" unicode-bidi="normal" text-decoration="none" transform="matrix(1 0 0 1 2013.65 694)">CNDP</text><path d="M2029.5 917.892C2029.5 903.316 2041.32 891.5 2055.89 891.5L2236.11 891.5C2250.68 891.5 2262.5 903.316 2262.5 917.892L2262.5 1117.11C2262.5 1131.68 2250.68 1143.5 2236.11 1143.5L2055.89 1143.5C2041.32 1143.5 2029.5 1131.68 2029.5 1117.11Z" stroke="#8F5DA2" stroke-width="4.58333" stroke-linecap="butt" stroke-linejoin="miter" stroke-miterlimit="4" stroke-opacity="1" fill="#BDE3FF" fill-rule="evenodd" fill-opacity="1"/><path d="M2029.5 760.299C2029.5 753.231 2035.23 747.5 2042.3 747.5L2726.7 747.5C2733.77 747.5 2739.5 753.231 2739.5 760.299L2739.5 847.701C2739.5 854.769 2733.77 860.5 2726.7 860.5L2042.3 860.5C2035.23 860.5 2029.5 854.769 2029.5 847.701Z" stroke="#8F5DA2" stroke-width="4.58333" stroke-linecap="butt" stroke-linejoin="miter" stroke-miterlimit="4" stroke-opacity="1" fill="#A6A6A6" fill-rule="evenodd" fill-opacity="1"/><text fill="#000000" fill-opacity="1" font-family="Helvetica Neue,Helvetica Neue_MSFontService,sans-serif" font-style="normal" font-variant="normal" font-weight="500" font-stretch="normal" font-size="55" text-anchor="start" direction="ltr" writing-mode="lr-tb" unicode-bidi="normal" text-decoration="none" transform="matrix(1 0 0 1 2240.32 823)">Applic<tspan fill="#000000" fill-opacity="1" font-family="Helvetica Neue,Helvetica Neue_MSFontService,sans-serif" font-style="normal" font-variant="normal" font-weight="500" font-stretch="normal" font-size="55" text-anchor="start" direction="ltr" writing-mode="lr-tb" unicode-bidi="normal" text-decoration="none" x="160.99" y="0">ation</tspan></text><path d="M2058.5 943.892C2058.5 929.316 2070.32 917.5 2084.89 917.5L2265.11 917.5C2279.68 917.5 2291.5 929.316 2291.5 943.892L2291.5 1143.11C2291.5 1157.68 2279.68 1169.5 2265.11 1169.5L2084.89 1169.5C2070.32 1169.5 2058.5 1157.68 2058.5 1143.11Z" stroke="#8F5DA2" stroke-width="4.58333" stroke-linecap="butt" stroke-linejoin="miter" stroke-miterlimit="4" stroke-opacity="1" fill="#BDE3FF" fill-rule="evenodd" fill-opacity="1"/><path d="M2094.5 976.892C2094.5 962.316 2106.32 950.5 2120.89 950.5L2301.11 950.5C2315.68 950.5 2327.5 962.316 2327.5 976.892L2327.5 1176.11C2327.5 1190.68 2315.68 1202.5 2301.11 1202.5L2120.89 1202.5C2106.32 1202.5 2094.5 1190.68 2094.5 1176.11Z" stroke="#8F5DA2" stroke-width="4.58333" stroke-linecap="butt" stroke-linejoin="miter" stroke-miterlimit="4" stroke-opacity="1" fill="#BDE3FF" fill-rule="evenodd" fill-opacity="1"/><text fill="#000000" fill-opacity="1" font-family="Helvetica Neue,Helvetica Neue_MSFontService,sans-serif" font-style="normal" font-variant="normal" font-weight="500" font-stretch="normal" font-size="48" text-anchor="start" direction="ltr" writing-mode="lr-tb" unicode-bidi="normal" text-decoration="none" transform="matrix(1 0 0 1 2146.09 1023)">CNET <tspan fill="#000000" fill-opacity="1" font-family="Helvetica Neue,Helvetica Neue_MSFontService,sans-serif" font-style="normal" font-variant="normal" font-weight="500" font-stretch="normal" font-size="48" text-anchor="start" direction="ltr" writing-mode="lr-tb" unicode-bidi="normal" text-decoration="none" x="-26.0564" y="58">graph(s)</tspan></text><path d="M2361.5 926.727C2361.5 907.271 2377.27 891.5 2396.73 891.5L2711.27 891.5C2730.73 891.5 2746.5 907.271 2746.5 926.727L2746.5 1167.27C2746.5 1186.73 2730.73 1202.5 2711.27 1202.5L2396.73 1202.5C2377.27 1202.5 2361.5 1186.73 2361.5 1167.27Z" stroke="#8F5DA2" stroke-width="4.58333" stroke-linecap="butt" stroke-linejoin="miter" stroke-miterlimit="4" stroke-opacity="1" fill="#D2BEDA" fill-rule="evenodd" fill-opacity="1"/><text fill="#000000" fill-opacity="1" font-family="Helvetica Neue,Helvetica Neue_MSFontService,sans-serif" font-style="normal" font-variant="normal" font-weight="500" font-stretch="normal" font-size="55" text-anchor="start" direction="ltr" writing-mode="lr-tb" unicode-bidi="normal" text-decoration="none" transform="matrix(1 0 0 1 2475.75 973)">CNDP <tspan fill="#000000" fill-opacity="1" font-family="Helvetica Neue,Helvetica Neue_MSFontService,sans-serif" font-style="normal" font-variant="normal" font-weight="500" font-stretch="normal" font-size="55" text-anchor="start" direction="ltr" writing-mode="lr-tb" unicode-bidi="normal" text-decoration="none" x="-32.3814" y="66">Libraries</tspan></text><path d="M2029.5 1231.64C2029.5 1221.07 2038.07 1212.5 2048.64 1212.5L2727.36 1212.5C2737.93 1212.5 2746.5 1221.07 2746.5 1231.64L2746.5 1362.36C2746.5 1372.93 2737.93 1381.5 2727.36 1381.5L2048.64 1381.5C2038.07 1381.5 2029.5 1372.93 2029.5 1362.36Z" stroke="#8F5DA2" stroke-width="4.58333" stroke-linecap="butt" stroke-linejoin="miter" stroke-miterlimit="4" stroke-opacity="1" fill="#92D050" fill-rule="evenodd" fill-opacity="1"/><text fill="#000000" fill-opacity="1" font-family="Helvetica Neue,Helvetica Neue_MSFontService,sans-serif" font-style="normal" font-variant="normal" font-weight="500" font-stretch="normal" font-size="55" text-anchor="start" direction="ltr" writing-mode="lr-tb" unicode-bidi="normal" text-decoration="none" transform="matrix(1 0 0 1 2263.41 1290)">CNDP I/O<tspan fill="#000000" fill-opacity="1" font-family="Helvetica Neue,Helvetica Neue_MSFontService,sans-serif" font-style="normal" font-variant="normal" font-weight="500" font-stretch="normal" font-size="55" text-anchor="start" direction="ltr" writing-mode="lr-tb" unicode-bidi="normal" text-decoration="none" x="-79.3377" y="66">(pktdev/</tspan><tspan fill="#000000" fill-opacity="1" font-family="Helvetica Neue,Helvetica Neue_MSFontService,sans-serif" font-style="normal" font-variant="normal" font-weight="500" font-stretch="normal" font-size="55" text-anchor="start" direction="ltr" writing-mode="lr-tb" unicode-bidi="normal" text-decoration="none" x="130.35" y="66">xskdev</tspan><tspan fill="#000000" fill-opacity="1" font-family="Helvetica Neue,Helvetica Neue_MSFontService,sans-serif" font-style="normal" font-variant="normal" font-weight="500" font-stretch="normal" font-size="55" text-anchor="start" direction="ltr" writing-mode="lr-tb" unicode-bidi="normal" text-decoration="none" x="311.392" y="66">)</tspan></text><path d="M2035.5 1413.41C2035.5 1406.28 2041.28 1400.5 2048.41 1400.5L2321.59 1400.5C2328.72 1400.5 2334.5 1406.28 2334.5 1413.41L2334.5 1501.59C2334.5 1508.72 2328.72 1514.5 2321.59 1514.5L2048.41 1514.5C2041.28 1514.5 2035.5 1508.72 2035.5 1501.59Z" stroke="#8F5DA2" stroke-width="4.58333" stroke-linecap="butt" stroke-linejoin="miter" stroke-miterlimit="4" stroke-opacity="1" fill="#1D9AFF" fill-rule="evenodd" fill-opacity="1"/><text fill="#000000" fill-opacity="1" font-family="Helvetica Neue,Helvetica Neue_MSFontService,sans-serif" font-style="normal" font-variant="normal" font-weight="500" font-stretch="normal" font-size="55" text-anchor="start" direction="ltr" writing-mode="lr-tb" unicode-bidi="normal" text-decoration="none" transform="matrix(1 0 0 1 2128.53 1477)">TUN</text><path d="M2387.5 1415.9C2387.5 1407.4 2394.4 1400.5 2402.9 1400.5L2671.09 1400.5C2679.6 1400.5 2686.5 1407.4 2686.5 1415.9L2686.5 1521.1C2686.5 1529.6 2679.6 1536.5 2671.09 1536.5L2402.9 1536.5C2394.4 1536.5 2387.5 1529.6 2387.5 1521.1Z" stroke="#8F5DA2" stroke-width="4.58333" stroke-linecap="butt" stroke-linejoin="miter" stroke-miterlimit="4" stroke-opacity="1" fill="#FAE093" fill-rule="evenodd" fill-opacity="1"/><path d="M1434.5 1617.79C1434.5 1596.09 1452.09 1578.5 1473.79 1578.5L2741.21 1578.5C2762.91 1578.5 2780.5 1596.09 2780.5 1617.79L2780.5 1948.21C2780.5 1969.91 2762.91 1987.5 2741.21 1987.5L1473.79 1987.5C1452.09 1987.5 1434.5 1969.91 1434.5 1948.21Z" stroke="#8F5DA2" stroke-width="4.58333" stroke-linecap="butt" stroke-linejoin="miter" stroke-miterlimit="4" stroke-opacity="1" fill="#BFBFBF" fill-rule="evenodd" fill-opacity="1"/><text fill="#000000" fill-opacity="1" font-family="Helvetica Neue,Helvetica Neue_MSFontService,sans-serif" font-style="normal" font-variant="normal" font-weight="500" font-stretch="normal" font-size="64" text-anchor="start" direction="ltr" writing-mode="lr-tb" unicode-bidi="normal" text-decoration="none" transform="matrix(1 0 0 1 1463.98 1943)">Linux Kernel</text><path d="M2439 1725.91C2439 1718.78 2444.78 1713 2451.91 1713L2725.09 1713C2732.22 1713 2738 1718.78 2738 1725.91L2738 1814.09C2738 1821.22 2732.22 1827 2725.09 1827L2451.91 1827C2444.78 1827 2439 1821.22 2439 1814.09Z" stroke="#8F5DA2" stroke-width="5.72917" stroke-linecap="butt" stroke-linejoin="miter" stroke-miterlimit="4" stroke-dasharray="22.9167 17.1875" stroke-opacity="1" fill="#B4DDFF" fill-rule="evenodd" fill-opacity="1"/><text fill="#000000" fill-opacity="1" font-family="Helvetica Neue,Helvetica Neue_MSFontService,sans-serif" font-style="normal" font-variant="normal" font-weight="500" font-stretch="normal" font-size="55" text-anchor="start" direction="ltr" writing-mode="lr-tb" unicode-bidi="normal" text-decoration="none" transform="matrix(1 0 0 1 2519.03 1789)">eBPF</text><path d="M2439.5 1861.41C2439.5 1854.28 2445.28 1848.5 2452.41 1848.5L2724.59 1848.5C2731.72 1848.5 2737.5 1854.28 2737.5 1861.41L2737.5 1949.59C2737.5 1956.72 2731.72 1962.5 2724.59 1962.5L2452.41 1962.5C2445.28 1962.5 2439.5 1956.72 2439.5 1949.59Z" stroke="#8F5DA2" stroke-width="4.58333" stroke-linecap="butt" stroke-linejoin="miter" stroke-miterlimit="4" stroke-opacity="1" fill="#B4DDFF" fill-rule="evenodd" fill-opacity="1"/><text fill="#000000" fill-opacity="1" font-family="Helvetica Neue,Helvetica Neue_MSFontService,sans-serif" font-style="normal" font-variant="normal" font-weight="500" font-stretch="normal" font-size="55" text-anchor="start" direction="ltr" writing-mode="lr-tb" unicode-bidi="normal" text-decoration="none" transform="matrix(1 0 0 1 2467.46 1924)">Netdev(s)</text><path d="M1434.5 900.614C1434.5 881.221 1450.22 865.5 1469.61 865.5L1752.39 865.5C1771.78 865.5 1787.5 881.221 1787.5 900.614L1787.5 1140.39C1787.5 1159.78 1771.78 1175.5 1752.39 1175.5L1469.61 1175.5C1450.22 1175.5 1434.5 1159.78 1434.5 1140.39Z" stroke="#8F5DA2" stroke-width="4.58333" stroke-linecap="butt" stroke-linejoin="miter" stroke-miterlimit="4" stroke-opacity="1" fill="#BFBFBF" fill-rule="evenodd" fill-opacity="1"/><text fill="#000000" fill-opacity="1" font-family="Helvetica Neue,Helvetica Neue_MSFontService,sans-serif" font-style="normal" font-variant="normal" font-weight="500" font-stretch="normal" font-size="55" text-anchor="start" direction="ltr" writing-mode="lr-tb" unicode-bidi="normal" text-decoration="none" transform="matrix(1 0 0 1 1514.27 947)">Sidecar<tspan fill="#000000" fill-opacity="1" font-family="Helvetica Neue,Helvetica Neue_MSFontService,sans-serif" font-style="normal" font-variant="normal" font-weight="500" font-stretch="normal" font-size="55" text-anchor="start" direction="ltr" writing-mode="lr-tb" unicode-bidi="normal" text-decoration="none" x="-26.927" y="66">C</tspan><tspan fill="#000000" fill-opacity="1" font-family="Helvetica Neue,Helvetica Neue_MSFontService,sans-serif" font-style="normal" font-variant="normal" font-weight="500" font-stretch="normal" font-size="55" text-anchor="start" direction="ltr" writing-mode="lr-tb" unicode-bidi="normal" text-decoration="none" x="12.6042" y="66">ontainer</tspan></text><path d="M1611.5 864.773 1611.5 803.5 2029.43 803.5" stroke="#000000" stroke-width="9.16667" stroke-linecap="butt" stroke-linejoin="miter" stroke-miterlimit="4" stroke-opacity="1" fill="none" fill-rule="evenodd"/><text fill="#004A86" fill-opacity="1" font-family="Intel Clear,Intel Clear_MSFontService,sans-serif" font-style="normal" font-variant="normal" font-weight="400" font-stretch="normal" font-size="55" text-anchor="start" direction="ltr" writing-mode="lr-tb" unicode-bidi="normal" text-decoration="none" transform="matrix(1 0 0 1 1784.76 785)">UDS *<tspan fill="#004A86" fill-opacity="1" font-family="Intel Clear,Intel Clear_MSFontService,sans-serif" font-style="normal" font-variant="normal" font-weight="400" font-stretch="normal" font-size="48" text-anchor="start" direction="ltr" writing-mode="lr-tb" unicode-bidi="normal" text-decoration="none" x="-407.477" y="1293">UDS </tspan><tspan fill="#004A86" fill-opacity="1" font-family="Intel Clear,Intel Clear_MSFontService,sans-serif" font-style="normal" font-variant="normal" font-weight="400" font-stretch="normal" font-size="48" text-anchor="start" direction="ltr" writing-mode="lr-tb" unicode-bidi="normal" text-decoration="none" x="-300.342" y="1293">= Unix Domain </tspan><tspan fill="#004A86" fill-opacity="1" font-family="Intel Clear,Intel Clear_MSFontService,sans-serif" font-style="normal" font-variant="normal" font-weight="400" font-stretch="normal" font-size="48" text-anchor="start" direction="ltr" writing-mode="lr-tb" unicode-bidi="normal" text-decoration="none" x="29.658" y="1293">Socket</tspan><tspan fill="#004A86" fill-opacity="1" font-family="Intel Clear,Intel Clear_MSFontService,sans-serif" font-style="normal" font-variant="normal" font-weight="400" font-stretch="normal" font-size="48" text-anchor="start" direction="ltr" writing-mode="lr-tb" unicode-bidi="normal" text-decoration="none" x="-407.477" y="1351">CNET </tspan><tspan fill="#004A86" fill-opacity="1" font-family="Intel Clear,Intel Clear_MSFontService,sans-serif" font-style="normal" font-variant="normal" font-weight="400" font-stretch="normal" font-size="48" text-anchor="start" direction="ltr" writing-mode="lr-tb" unicode-bidi="normal" text-decoration="none" x="-275.134" y="1351">–</tspan><tspan fill="#004A86" fill-opacity="1" font-family="Arial,Arial_MSFontService,sans-serif" font-style="normal" font-variant="normal" font-weight="400" font-stretch="normal" font-size="48" text-anchor="start" direction="ltr" writing-mode="lr-tb" unicode-bidi="normal" text-decoration="none" x="-239.613" y="1351">UDP, IPv4, QUIC(</tspan><tspan fill="#004A86" fill-opacity="1" font-family="Arial,Arial_MSFontService,sans-serif" font-style="normal" font-variant="normal" font-weight="400" font-stretch="normal" font-size="48" text-anchor="start" direction="ltr" writing-mode="lr-tb" unicode-bidi="normal" text-decoration="none" x="147.679" y="1351">quicly</tspan><tspan fill="#004A86" fill-opacity="1" font-family="Arial,Arial_MSFontService,sans-serif" font-style="normal" font-variant="normal" font-weight="400" font-stretch="normal" font-size="48" text-anchor="start" direction="ltr" writing-mode="lr-tb" unicode-bidi="normal" text-decoration="none" x="271.429" y="1351">),  IPV6/TCP (</tspan><tspan fill="#004A86" fill-opacity="1" font-family="Intel Clear,Intel Clear_MSFontService,sans-serif" font-style="normal" font-variant="normal" font-weight="400" font-stretch="normal" font-size="48" text-anchor="start" direction="ltr" writing-mode="lr-tb" unicode-bidi="normal" text-decoration="none" x="569.919" y="1351">2H’22)</tspan></text><path d="M2411.5 1434.72C2411.5 1425.21 2419.21 1417.5 2428.72 1417.5L2692.28 1417.5C2701.79 1417.5 2709.5 1425.21 2709.5 1434.72L2709.5 1552.28C2709.5 1561.79 2701.79 1569.5 2692.28 1569.5L2428.72 1569.5C2419.21 1569.5 2411.5 1561.79 2411.5 1552.28Z" stroke="#8F5DA2" stroke-width="4.58333" stroke-linecap="butt" stroke-linejoin="miter" stroke-miterlimit="4" stroke-opacity="1" fill="#FAE093" fill-rule="evenodd" fill-opacity="1"/><path d="M2439.5 1460.06C2439.5 1450.36 2447.36 1442.5 2457.06 1442.5L2719.94 1442.5C2729.64 1442.5 2737.5 1450.36 2737.5 1460.06L2737.5 1579.94C2737.5 1589.64 2729.64 1597.5 2719.94 1597.5L2457.06 1597.5C2447.36 1597.5 2439.5 1589.64 2439.5 1579.94Z" stroke="#8F5DA2" stroke-width="4.58333" stroke-linecap="butt" stroke-linejoin="miter" stroke-miterlimit="4" stroke-opacity="1" fill="#FAE093" fill-rule="evenodd" fill-opacity="1"/><text fill="#000000" fill-opacity="1" font-family="Helvetica Neue,Helvetica Neue_MSFontService,sans-serif" font-style="normal" font-variant="normal" font-weight="500" font-stretch="normal" font-size="46" text-anchor="start" direction="ltr" writing-mode="lr-tb" unicode-bidi="normal" text-decoration="none" transform="matrix(1 0 0 1 2500.98 1510)">AF_XDP<tspan fill="#000000" fill-opacity="1" font-family="Helvetica Neue,Helvetica Neue_MSFontService,sans-serif" font-style="normal" font-variant="normal" font-weight="500" font-stretch="normal" font-size="46" text-anchor="start" direction="ltr" writing-mode="lr-tb" unicode-bidi="normal" text-decoration="none" x="1.146" y="55">Sockets</tspan></text><path d="M2439.5 1993.41C2439.5 1986.28 2445.28 1980.5 2452.41 1980.5L2724.59 1980.5C2731.72 1980.5 2737.5 1986.28 2737.5 1993.41L2737.5 2081.59C2737.5 2088.72 2731.72 2094.5 2724.59 2094.5L2452.41 2094.5C2445.28 2094.5 2439.5 2088.72 2439.5 2081.59Z" stroke="#8F5DA2" stroke-width="4.58333" stroke-linecap="butt" stroke-linejoin="miter" stroke-miterlimit="4" stroke-opacity="1" fill="#DCDCDC" fill-rule="evenodd" fill-opacity="1"/><text fill="#000000" fill-opacity="1" font-family="Helvetica Neue,Helvetica Neue_MSFontService,sans-serif" font-style="normal" font-variant="normal" font-weight="500" font-stretch="normal" font-size="55" text-anchor="start" direction="ltr" writing-mode="lr-tb" unicode-bidi="normal" text-decoration="none" transform="matrix(1 0 0 1 2510.72 2056)">NIC<tspan fill="#000000" fill-opacity="1" font-family="Helvetica Neue,Helvetica Neue_MSFontService,sans-serif" font-style="normal" font-variant="normal" font-weight="500" font-stretch="normal" font-size="55" text-anchor="start" direction="ltr" writing-mode="lr-tb" unicode-bidi="normal" text-decoration="none" x="94.5313" y="0">(s)</tspan></text><path d="M1495.5 1733.41C1495.5 1726.28 1501.28 1720.5 1508.41 1720.5L2382.59 1720.5C2389.72 1720.5 2395.5 1726.28 2395.5 1733.41L2395.5 1821.59C2395.5 1828.72 2389.72 1834.5 2382.59 1834.5L1508.41 1834.5C1501.28 1834.5 1495.5 1828.72 1495.5 1821.59Z" stroke="#000000" stroke-width="4.58333" stroke-linecap="butt" stroke-linejoin="miter" stroke-miterlimit="4" stroke-opacity="1" fill="#BC9EC7" fill-rule="evenodd" fill-opacity="1"/><text fill="#000000" fill-opacity="1" font-family="Helvetica Neue,Helvetica Neue_MSFontService,sans-serif" font-style="normal" font-variant="normal" font-weight="500" font-stretch="normal" font-size="55" text-anchor="start" direction="ltr" writing-mode="lr-tb" unicode-bidi="normal" text-decoration="none" transform="matrix(1 0 0 1 1758.29 1796)">Network Stack</text><path d="M1775.5 1600.41C1775.5 1593.28 1781.28 1587.5 1788.41 1587.5L2086.59 1587.5C2093.72 1587.5 2099.5 1593.28 2099.5 1600.41L2099.5 1688.59C2099.5 1695.72 2093.72 1701.5 2086.59 1701.5L1788.41 1701.5C1781.28 1701.5 1775.5 1695.72 1775.5 1688.59Z" stroke="#000000" stroke-width="4.58333" stroke-linecap="butt" stroke-linejoin="miter" stroke-miterlimit="4" stroke-opacity="1" fill="#FDF5DB" fill-rule="evenodd" fill-opacity="1"/><text fill="#000000" fill-opacity="1" font-family="Helvetica Neue,Helvetica Neue_MSFontService,sans-serif" font-style="normal" font-variant="normal" font-weight="500" font-stretch="normal" font-size="55" text-anchor="start" direction="ltr" writing-mode="lr-tb" unicode-bidi="normal" text-decoration="none" transform="matrix(1 0 0 1 1849.27 1663)">Netlink</text><path d="M1937.5 1587.56 1937.5 1043.5 2058.39 1043.5" stroke="#000000" stroke-width="9.16667" stroke-linecap="butt" stroke-linejoin="miter" stroke-miterlimit="4" stroke-opacity="1" fill="none" fill-rule="evenodd"/><path d="M0 0 0.18189 324.759" stroke="#000000" stroke-width="9.16667" stroke-linecap="butt" stroke-linejoin="miter" stroke-miterlimit="4" stroke-opacity="1" fill="none" fill-rule="evenodd" transform="matrix(-1 0 0 1 1611.68 1175.5)"/><path d="M0 0 0.000360892 209.245" stroke="#000000" stroke-width="9.16667" stroke-linecap="butt" stroke-linejoin="miter" stroke-miterlimit="4" stroke-opacity="1" fill="none" fill-rule="evenodd" transform="matrix(-1 0 0 1 2184.5 1514.5)"/><path d="M2588.5 1597.5 2589.07 1713.11" stroke="#000000" stroke-width="9.16667" stroke-linecap="butt" stroke-linejoin="miter" stroke-miterlimit="4" stroke-opacity="1" fill="none" fill-rule="evenodd"/><path d="M1479.5 1513.41C1479.5 1506.28 1485.28 1500.5 1492.41 1500.5L1730.59 1500.5C1737.72 1500.5 1743.5 1506.28 1743.5 1513.41L1743.5 1601.59C1743.5 1608.72 1737.72 1614.5 1730.59 1614.5L1492.41 1614.5C1485.28 1614.5 1479.5 1608.72 1479.5 1601.59Z" stroke="#8F5DA2" stroke-width="4.58333" stroke-linecap="butt" stroke-linejoin="miter" stroke-miterlimit="4" stroke-opacity="1" fill="#1D9AFF" fill-rule="evenodd" fill-opacity="1"/><text fill="#000000" fill-opacity="1" font-family="Helvetica Neue,Helvetica Neue_MSFontService,sans-serif" font-style="normal" font-variant="normal" font-weight="500" font-stretch="normal" font-size="55" text-anchor="start" direction="ltr" writing-mode="lr-tb" unicode-bidi="normal" text-decoration="none" transform="matrix(1 0 0 1 1554.19 1576)">vEth</text><path d="M1988.5 1860.41C1988.5 1853.28 1994.28 1847.5 2001.41 1847.5L2299.59 1847.5C2306.72 1847.5 2312.5 1853.28 2312.5 1860.41L2312.5 1948.59C2312.5 1955.72 2306.72 1961.5 2299.59 1961.5L2001.41 1961.5C1994.28 1961.5 1988.5 1955.72 1988.5 1948.59Z" stroke="#000000" stroke-width="4.58333" stroke-linecap="butt" stroke-linejoin="miter" stroke-miterlimit="4" stroke-opacity="1" fill="#D1E0B3" fill-rule="evenodd" fill-opacity="1"/><text fill="#000000" fill-opacity="1" font-family="Helvetica Neue,Helvetica Neue_MSFontService,sans-serif" font-style="normal" font-variant="normal" font-weight="500" font-stretch="normal" font-size="55" text-anchor="start" direction="ltr" writing-mode="lr-tb" unicode-bidi="normal" text-decoration="none" transform="matrix(1 0 0 1 2048.58 1923)">1 queue</text><path d="M0 0 70.2827 0 70.2827 43.384" stroke="#000000" stroke-width="9.16667" stroke-linecap="butt" stroke-linejoin="miter" stroke-miterlimit="4" stroke-opacity="1" fill="none" fill-rule="evenodd" transform="matrix(1.83697e-16 1 1 -1.83697e-16 1945.5 1834.5)"/><path d="M2312.5 1904.5 2375.57 1904.5 2375.57 1905.26 2438.64 1905.26" stroke="#000000" stroke-width="9.16667" stroke-linecap="butt" stroke-linejoin="miter" stroke-miterlimit="4" stroke-opacity="1" fill="none" fill-rule="evenodd"/></g></svg>