<?xml version="1.0" encoding="UTF-8" standalone="no"?>
<!-- SPDX-License-Identifier: BSD-3-Clause -->

<!-- Copyright (c) 2010-2022 Intel Corporation -->

<svg
   width="1457"
   height="1691"
   overflow="hidden"
   version="1.1"
   id="svg119"
   sodipodi:docname="cnet_overview.svg"
   inkscape:version="1.1.1 (3bf5ae0d25, 2021-09-20)"
   xmlns:inkscape="http://www.inkscape.org/namespaces/inkscape"
   xmlns:sodipodi="http://sodipodi.sourceforge.net/DTD/sodipodi-0.dtd"
   xmlns="http://www.w3.org/2000/svg"
   xmlns:svg="http://www.w3.org/2000/svg">
  <sodipodi:namedview
     id="namedview121"
     pagecolor="#ffffff"
     bordercolor="#666666"
     borderopacity="1.0"
     inkscape:pageshadow="2"
     inkscape:pageopacity="0.0"
     inkscape:pagecheckerboard="0"
     showgrid="false"
     inkscape:zoom="0.49911295"
     inkscape:cx="728.29206"
     inkscape:cy="846.50178"
     inkscape:window-width="1550"
     inkscape:window-height="1082"
     inkscape:window-x="1792"
     inkscape:window-y="1"
     inkscape:window-maximized="1"
     inkscape:current-layer="g117" />
  <defs
     id="defs5">
    <clipPath
       id="clip0">
      <rect
         x="2750"
         y="632"
         width="1457"
         height="1691"
         id="rect2" />
    </clipPath>
  </defs>
  <g
     clip-path="url(#clip0)"
     transform="translate(-2750 -632)"
     id="g117">
    <path
       d="M2773.5 683.642C2773.5 659.263 2793.26 639.5 2817.64 639.5L4158.36 639.5C4182.74 639.5 4202.5 659.263 4202.5 683.642L4202.5 2072.36C4202.5 2096.74 4182.74 2116.5 4158.36 2116.5L2817.64 2116.5C2793.26 2116.5 2773.5 2096.74 2773.5 2072.36Z"
       stroke="#8F5DA2"
       stroke-width="4.58333"
       stroke-linecap="butt"
       stroke-linejoin="miter"
       stroke-miterlimit="4"
       stroke-opacity="1"
       fill="#F2F2F2"
       fill-rule="evenodd"
       fill-opacity="1"
       id="path7" />
    <text
       fill="#000000"
       fill-opacity="1"
       font-family="Helvetica Neue,Helvetica Neue_MSFontService,sans-serif"
       font-style="normal"
       font-variant="normal"
       font-weight="500"
       font-stretch="normal"
       font-size="83"
       text-anchor="start"
       direction="ltr"
       writing-mode="lr-tb"
       unicode-bidi="normal"
       text-decoration="none"
       transform="matrix(1 0 0 1 2803.87 752)"
       id="text9">POD</text>
    <path
       d="M3383.5 701.965C3383.5 688.453 3394.45 677.5 3407.96 677.5L4151.04 677.5C4164.55 677.5 4175.5 688.453 4175.5 701.965L4175.5 1532.04C4175.5 1545.55 4164.55 1556.5 4151.04 1556.5L3407.96 1556.5C3394.45 1556.5 3383.5 1545.55 3383.5 1532.04Z"
       stroke="#8F5DA2"
       stroke-width="4.58333"
       stroke-linecap="butt"
       stroke-linejoin="miter"
       stroke-miterlimit="4"
       stroke-opacity="1"
       fill="#FDF5DB"
       fill-rule="evenodd"
       fill-opacity="1"
       id="path11" />
    <text
       fill="#000000"
       fill-opacity="1"
       font-family="Helvetica Neue,Helvetica Neue_MSFontService,sans-serif"
       font-style="normal"
       font-variant="normal"
       font-weight="500"
       font-stretch="normal"
       font-size="83"
       text-anchor="start"
       direction="ltr"
       writing-mode="lr-tb"
       unicode-bidi="normal"
       text-decoration="none"
       transform="matrix(1 0 0 1 3408.97 783)"
       id="text13">CNDP</text>
    <path
       d="M3424.5 1006.89C3424.5 992.316 3436.32 980.5 3450.89 980.5L3631.11 980.5C3645.68 980.5 3657.5 992.316 3657.5 1006.89L3657.5 1206.11C3657.5 1220.68 3645.68 1232.5 3631.11 1232.5L3450.89 1232.5C3436.32 1232.5 3424.5 1220.68 3424.5 1206.11Z"
       stroke="#8F5DA2"
       stroke-width="4.58333"
       stroke-linecap="butt"
       stroke-linejoin="miter"
       stroke-miterlimit="4"
       stroke-opacity="1"
       fill="#BDE3FF"
       fill-rule="evenodd"
       fill-opacity="1"
       id="path15" />
    <path
       d="M3424.5 849.412C3424.5 842.281 3430.28 836.5 3437.41 836.5L4121.59 836.5C4128.72 836.5 4134.5 842.281 4134.5 849.412L4134.5 937.587C4134.5 944.719 4128.72 950.5 4121.59 950.5L3437.41 950.5C3430.28 950.5 3424.5 944.719 3424.5 937.587Z"
       stroke="#8F5DA2"
       stroke-width="4.58333"
       stroke-linecap="butt"
       stroke-linejoin="miter"
       stroke-miterlimit="4"
       stroke-opacity="1"
       fill="#A6A6A6"
       fill-rule="evenodd"
       fill-opacity="1"
       id="path17" />
    <text
       fill="#000000"
       fill-opacity="1"
       font-family="Helvetica Neue,Helvetica Neue_MSFontService,sans-serif"
       font-style="normal"
       font-variant="normal"
       font-weight="500"
       font-stretch="normal"
       font-size="55"
       text-anchor="start"
       direction="ltr"
       writing-mode="lr-tb"
       unicode-bidi="normal"
       text-decoration="none"
       transform="matrix(1 0 0 1 3635.64 912)"
       id="text19">Application</text>
    <path
       d="M3453.5 1033.01C3453.5 1018.37 3465.37 1006.5 3480.01 1006.5L3661 1006.5C3675.63 1006.5 3687.5 1018.37 3687.5 1033.01L3687.5 1231.99C3687.5 1246.63 3675.63 1258.5 3661 1258.5L3480.01 1258.5C3465.37 1258.5 3453.5 1246.63 3453.5 1231.99Z"
       stroke="#8F5DA2"
       stroke-width="4.58333"
       stroke-linecap="butt"
       stroke-linejoin="miter"
       stroke-miterlimit="4"
       stroke-opacity="1"
       fill="#BDE3FF"
       fill-rule="evenodd"
       fill-opacity="1"
       id="path21" />
    <path
       d="M3489.5 1066.01C3489.5 1051.37 3501.37 1039.5 3516.01 1039.5L3696.99 1039.5C3711.63 1039.5 3723.5 1051.37 3723.5 1066.01L3723.5 1264.99C3723.5 1279.63 3711.63 1291.5 3696.99 1291.5L3516.01 1291.5C3501.37 1291.5 3489.5 1279.63 3489.5 1264.99Z"
       stroke="#8F5DA2"
       stroke-width="4.58333"
       stroke-linecap="butt"
       stroke-linejoin="miter"
       stroke-miterlimit="4"
       stroke-opacity="1"
       fill="#BDE3FF"
       fill-rule="evenodd"
       fill-opacity="1"
       id="path23" />
    <text
       fill="#000000"
       fill-opacity="1"
       font-family="Helvetica Neue,Helvetica Neue_MSFontService,sans-serif"
       font-style="normal"
       font-variant="normal"
       font-weight="500"
       font-stretch="normal"
       font-size="48"
       text-anchor="start"
       direction="ltr"
       writing-mode="lr-tb"
       unicode-bidi="normal"
       text-decoration="none"
       transform="matrix(1 0 0 1 3541.42 1112)"
       id="text27">CNET <tspan
   fill="#000000"
   fill-opacity="1"
   font-family="Helvetica Neue,Helvetica Neue_MSFontService,sans-serif"
   font-style="normal"
   font-variant="normal"
   font-weight="500"
   font-stretch="normal"
   font-size="48"
   text-anchor="start"
   direction="ltr"
   writing-mode="lr-tb"
   unicode-bidi="normal"
   text-decoration="none"
   x="-26.0564"
   y="58"
   id="tspan25">graph(s)</tspan></text>
    <path
       d="M3756.5 1015.73C3756.5 996.271 3772.27 980.5 3791.73 980.5L4106.27 980.5C4125.73 980.5 4141.5 996.271 4141.5 1015.73L4141.5 1256.27C4141.5 1275.73 4125.73 1291.5 4106.27 1291.5L3791.73 1291.5C3772.27 1291.5 3756.5 1275.73 3756.5 1256.27Z"
       stroke="#8F5DA2"
       stroke-width="4.58333"
       stroke-linecap="butt"
       stroke-linejoin="miter"
       stroke-miterlimit="4"
       stroke-opacity="1"
       fill="#D2BEDA"
       fill-rule="evenodd"
       fill-opacity="1"
       id="path29" />
    <text
       fill="#000000"
       fill-opacity="1"
       font-family="Helvetica Neue,Helvetica Neue_MSFontService,sans-serif"
       font-style="normal"
       font-variant="normal"
       font-weight="500"
       font-stretch="normal"
       font-size="55"
       text-anchor="start"
       direction="ltr"
       writing-mode="lr-tb"
       unicode-bidi="normal"
       text-decoration="none"
       transform="matrix(1 0 0 1 3871.08 1063)"
       id="text33">CNDP <tspan
   fill="#000000"
   fill-opacity="1"
   font-family="Helvetica Neue,Helvetica Neue_MSFontService,sans-serif"
   font-style="normal"
   font-variant="normal"
   font-weight="500"
   font-stretch="normal"
   font-size="55"
   text-anchor="start"
   direction="ltr"
   writing-mode="lr-tb"
   unicode-bidi="normal"
   text-decoration="none"
   x="-32.3814"
   y="66"
   id="tspan31">Libraries</tspan></text>
    <path
       d="m 3417.6578,1322.3403 c 0,-10.57 8.57,-19.14 19.14,-19.14 h 678.72 c 10.57,0 19.14,8.57 19.14,19.14 v 130.72 c 0,10.57 -8.57,19.14 -19.14,19.14 h -678.72 c -10.57,0 -19.14,-8.57 -19.14,-19.14 z"
       stroke="#8f5da2"
       stroke-width="4.58333"
       stroke-linecap="butt"
       stroke-linejoin="miter"
       stroke-miterlimit="4"
       stroke-opacity="1"
       fill="#92d050"
       fill-rule="evenodd"
       fill-opacity="1"
       id="path35" />
    <text
       fill="#000000"
       fill-opacity="1"
       font-family="'Helvetica Neue', 'Helvetica Neue_MSFontService', sans-serif"
       font-style="normal"
       font-variant="normal"
       font-weight="500"
       font-stretch="normal"
       font-size="48.1139px"
       text-anchor="start"
       direction="ltr"
       writing-mode="lr-tb"
       unicode-bidi="normal"
       text-decoration="none"
       id="text39"
       x="5824.4517"
       y="871.84424"
       style="text-align:start;text-decoration:none;text-decoration-line:none;text-anchor:start;stroke-width:0.874799"
       transform="scale(0.61874096,1.6161852)"><tspan
         sodipodi:role="line"
         x="5824.4517"
         y="871.84424"
         id="tspan8127"
         style="font-style:normal;font-variant:normal;font-weight:normal;font-stretch:normal;font-family:'Intel Clear', 'Intel Clear_MSFontService', sans-serif;-inkscape-font-specification:'Intel Clear, Intel Clear_MSFontService, sans-serif';stroke-width:0.874799">CNDP I/O (pktdev/xsksdev)</tspan></text>
    <path
       d="M3430.5 1503.41C3430.5 1496.28 3436.28 1490.5 3443.41 1490.5L3716.59 1490.5C3723.72 1490.5 3729.5 1496.28 3729.5 1503.41L3729.5 1591.59C3729.5 1598.72 3723.72 1604.5 3716.59 1604.5L3443.41 1604.5C3436.28 1604.5 3430.5 1598.72 3430.5 1591.59Z"
       stroke="#8F5DA2"
       stroke-width="4.58333"
       stroke-linecap="butt"
       stroke-linejoin="miter"
       stroke-miterlimit="4"
       stroke-opacity="1"
       fill="#1D9AFF"
       fill-rule="evenodd"
       fill-opacity="1"
       id="path41" />
    <text
       fill="#000000"
       fill-opacity="1"
       font-family="Helvetica Neue,Helvetica Neue_MSFontService,sans-serif"
       font-style="normal"
       font-variant="normal"
       font-weight="500"
       font-stretch="normal"
       font-size="55"
       text-anchor="start"
       direction="ltr"
       writing-mode="lr-tb"
       unicode-bidi="normal"
       text-decoration="none"
       transform="matrix(1 0 0 1 3523.86 1566)"
       id="text43">TUN</text>
    <path
       d="M3782.5 1505.79C3782.5 1497.35 3789.35 1490.5 3797.79 1490.5L4066.21 1490.5C4074.65 1490.5 4081.5 1497.35 4081.5 1505.79L4081.5 1610.21C4081.5 1618.65 4074.65 1625.5 4066.21 1625.5L3797.79 1625.5C3789.35 1625.5 3782.5 1618.65 3782.5 1610.21Z"
       stroke="#8F5DA2"
       stroke-width="4.58333"
       stroke-linecap="butt"
       stroke-linejoin="miter"
       stroke-miterlimit="4"
       stroke-opacity="1"
       fill="#FAE093"
       fill-rule="evenodd"
       fill-opacity="1"
       id="path45" />
    <path
       d="M2829.5 1707.7C2829.5 1686.05 2847.05 1668.5 2868.7 1668.5L4136.3 1668.5C4157.95 1668.5 4175.5 1686.05 4175.5 1707.7L4175.5 2037.3C4175.5 2058.95 4157.95 2076.5 4136.3 2076.5L2868.7 2076.5C2847.05 2076.5 2829.5 2058.95 2829.5 2037.3Z"
       stroke="#8F5DA2"
       stroke-width="4.58333"
       stroke-linecap="butt"
       stroke-linejoin="miter"
       stroke-miterlimit="4"
       stroke-opacity="1"
       fill="#BFBFBF"
       fill-rule="evenodd"
       fill-opacity="1"
       id="path47" />
    <text
       fill="#000000"
       fill-opacity="1"
       font-family="Helvetica Neue,Helvetica Neue_MSFontService,sans-serif"
       font-style="normal"
       font-variant="normal"
       font-weight="500"
       font-stretch="normal"
       font-size="64"
       text-anchor="start"
       direction="ltr"
       writing-mode="lr-tb"
       unicode-bidi="normal"
       text-decoration="none"
       transform="matrix(1 0 0 1 2859.3 2032)"
       id="text49">Linux Kernel</text>
    <path
       d="M3834 1814.91C3834 1807.78 3839.78 1802 3846.91 1802L4120.09 1802C4127.22 1802 4133 1807.78 4133 1814.91L4133 1903.09C4133 1910.22 4127.22 1916 4120.09 1916L3846.91 1916C3839.78 1916 3834 1910.22 3834 1903.09Z"
       stroke="#8F5DA2"
       stroke-width="5.72917"
       stroke-linecap="butt"
       stroke-linejoin="miter"
       stroke-miterlimit="4"
       stroke-dasharray="22.9167 17.1875"
       stroke-opacity="1"
       fill="#B4DDFF"
       fill-rule="evenodd"
       fill-opacity="1"
       id="path51" />
    <text
       fill="#000000"
       fill-opacity="1"
       font-family="Helvetica Neue,Helvetica Neue_MSFontService,sans-serif"
       font-style="normal"
       font-variant="normal"
       font-weight="500"
       font-stretch="normal"
       font-size="55"
       text-anchor="start"
       direction="ltr"
       writing-mode="lr-tb"
       unicode-bidi="normal"
       text-decoration="none"
       transform="matrix(1 0 0 1 3914.35 1878)"
       id="text53">eBPF</text>
    <path
       d="M3834.5 1950.41C3834.5 1943.28 3840.28 1937.5 3847.41 1937.5L4119.59 1937.5C4126.72 1937.5 4132.5 1943.28 4132.5 1950.41L4132.5 2038.59C4132.5 2045.72 4126.72 2051.5 4119.59 2051.5L3847.41 2051.5C3840.28 2051.5 3834.5 2045.72 3834.5 2038.59Z"
       stroke="#8F5DA2"
       stroke-width="4.58333"
       stroke-linecap="butt"
       stroke-linejoin="miter"
       stroke-miterlimit="4"
       stroke-opacity="1"
       fill="#B4DDFF"
       fill-rule="evenodd"
       fill-opacity="1"
       id="path55" />
    <text
       fill="#000000"
       fill-opacity="1"
       font-family="Helvetica Neue,Helvetica Neue_MSFontService,sans-serif"
       font-style="normal"
       font-variant="normal"
       font-weight="500"
       font-stretch="normal"
       font-size="55"
       text-anchor="start"
       direction="ltr"
       writing-mode="lr-tb"
       unicode-bidi="normal"
       text-decoration="none"
       transform="matrix(1 0 0 1 3862.79 2013)"
       id="text57">Netdev(s)</text>
    <path
       d="M2829.5 989.727C2829.5 970.272 2845.27 954.5 2864.73 954.5L3148.27 954.5C3167.73 954.5 3183.5 970.272 3183.5 989.727L3183.5 1230.27C3183.5 1249.73 3167.73 1265.5 3148.27 1265.5L2864.73 1265.5C2845.27 1265.5 2829.5 1249.73 2829.5 1230.27Z"
       stroke="#8F5DA2"
       stroke-width="4.58333"
       stroke-linecap="butt"
       stroke-linejoin="miter"
       stroke-miterlimit="4"
       stroke-opacity="1"
       fill="#BFBFBF"
       fill-rule="evenodd"
       fill-opacity="1"
       id="path59" />
    <text
       fill="#000000"
       fill-opacity="1"
       font-family="Helvetica Neue,Helvetica Neue_MSFontService,sans-serif"
       font-style="normal"
       font-variant="normal"
       font-weight="500"
       font-stretch="normal"
       font-size="55"
       text-anchor="start"
       direction="ltr"
       writing-mode="lr-tb"
       unicode-bidi="normal"
       text-decoration="none"
       transform="matrix(1 0 0 1 2909.59 1037)"
       id="text63">Sidecar<tspan
   fill="#000000"
   fill-opacity="1"
   font-family="Helvetica Neue,Helvetica Neue_MSFontService,sans-serif"
   font-style="normal"
   font-variant="normal"
   font-weight="500"
   font-stretch="normal"
   font-size="55"
   text-anchor="start"
   direction="ltr"
   writing-mode="lr-tb"
   unicode-bidi="normal"
   text-decoration="none"
   x="-26.9272"
   y="66"
   id="tspan61">Container</tspan></text>
    <path
       d="M3006.5 954.773 3006.5 893.5 3424.43 893.5"
       stroke="#000000"
       stroke-width="9.16667"
       stroke-linecap="butt"
       stroke-linejoin="miter"
       stroke-miterlimit="4"
       stroke-opacity="1"
       fill="none"
       fill-rule="evenodd"
       id="path65" />
    <text
       fill="#004A86"
       fill-opacity="1"
       font-family="Intel Clear,Intel Clear_MSFontService,sans-serif"
       font-style="normal"
       font-variant="normal"
       font-weight="400"
       font-stretch="normal"
       font-size="55"
       text-anchor="start"
       direction="ltr"
       writing-mode="lr-tb"
       unicode-bidi="normal"
       text-decoration="none"
       transform="matrix(1 0 0 1 3180.08 874)"
       id="text69">UDS *<tspan
   fill="#004A86"
   fill-opacity="1"
   font-family="Intel Clear,Intel Clear_MSFontService,sans-serif"
   font-style="normal"
   font-variant="normal"
   font-weight="400"
   font-stretch="normal"
   font-size="55"
   text-anchor="start"
   direction="ltr"
   writing-mode="lr-tb"
   unicode-bidi="normal"
   text-decoration="none"
   x="-395.328"
   y="1295"
   id="tspan67">* UDS = Unix Domain Socket</tspan></text>
    <path
       d="M3806.5 1523.72C3806.5 1514.21 3814.21 1506.5 3823.72 1506.5L4088.28 1506.5C4097.79 1506.5 4105.5 1514.21 4105.5 1523.72L4105.5 1641.28C4105.5 1650.79 4097.79 1658.5 4088.28 1658.5L3823.72 1658.5C3814.21 1658.5 3806.5 1650.79 3806.5 1641.28Z"
       stroke="#8F5DA2"
       stroke-width="4.58333"
       stroke-linecap="butt"
       stroke-linejoin="miter"
       stroke-miterlimit="4"
       stroke-opacity="1"
       fill="#FAE093"
       fill-rule="evenodd"
       fill-opacity="1"
       id="path71" />
    <path
       d="M3834.5 1549.17C3834.5 1539.41 3842.41 1531.5 3852.17 1531.5L4114.83 1531.5C4124.59 1531.5 4132.5 1539.41 4132.5 1549.17L4132.5 1669.83C4132.5 1679.59 4124.59 1687.5 4114.83 1687.5L3852.17 1687.5C3842.41 1687.5 3834.5 1679.59 3834.5 1669.83Z"
       stroke="#8F5DA2"
       stroke-width="4.58333"
       stroke-linecap="butt"
       stroke-linejoin="miter"
       stroke-miterlimit="4"
       stroke-opacity="1"
       fill="#FAE093"
       fill-rule="evenodd"
       fill-opacity="1"
       id="path73" />
    <text
       fill="#000000"
       fill-opacity="1"
       font-family="Helvetica Neue,Helvetica Neue_MSFontService,sans-serif"
       font-style="normal"
       font-variant="normal"
       font-weight="500"
       font-stretch="normal"
       font-size="46"
       text-anchor="start"
       direction="ltr"
       writing-mode="lr-tb"
       unicode-bidi="normal"
       text-decoration="none"
       transform="matrix(1 0 0 1 3896.31 1600)"
       id="text77">AF_XDP<tspan
   fill="#000000"
   fill-opacity="1"
   font-family="Helvetica Neue,Helvetica Neue_MSFontService,sans-serif"
   font-style="normal"
   font-variant="normal"
   font-weight="500"
   font-stretch="normal"
   font-size="46"
   text-anchor="start"
   direction="ltr"
   writing-mode="lr-tb"
   unicode-bidi="normal"
   text-decoration="none"
   x="1.14575"
   y="55"
   id="tspan75">Sockets</tspan></text>
    <path
       d="M3834.5 2082.41C3834.5 2075.28 3840.28 2069.5 3847.41 2069.5L4119.59 2069.5C4126.72 2069.5 4132.5 2075.28 4132.5 2082.41L4132.5 2170.59C4132.5 2177.72 4126.72 2183.5 4119.59 2183.5L3847.41 2183.5C3840.28 2183.5 3834.5 2177.72 3834.5 2170.59Z"
       stroke="#8F5DA2"
       stroke-width="4.58333"
       stroke-linecap="butt"
       stroke-linejoin="miter"
       stroke-miterlimit="4"
       stroke-opacity="1"
       fill="#DCDCDC"
       fill-rule="evenodd"
       fill-opacity="1"
       id="path79" />
    <text
       fill="#000000"
       fill-opacity="1"
       font-family="Helvetica Neue,Helvetica Neue_MSFontService,sans-serif"
       font-style="normal"
       font-variant="normal"
       font-weight="500"
       font-stretch="normal"
       font-size="55"
       text-anchor="start"
       direction="ltr"
       writing-mode="lr-tb"
       unicode-bidi="normal"
       text-decoration="none"
       transform="matrix(1 0 0 1 3906.04 2145)"
       id="text81">NIC(s)</text>
    <path
       d="M2890.5 1822.41C2890.5 1815.28 2896.28 1809.5 2903.41 1809.5L3777.59 1809.5C3784.72 1809.5 3790.5 1815.28 3790.5 1822.41L3790.5 1910.59C3790.5 1917.72 3784.72 1923.5 3777.59 1923.5L2903.41 1923.5C2896.28 1923.5 2890.5 1917.72 2890.5 1910.59Z"
       stroke="#000000"
       stroke-width="4.58333"
       stroke-linecap="butt"
       stroke-linejoin="miter"
       stroke-miterlimit="4"
       stroke-opacity="1"
       fill="#BC9EC7"
       fill-rule="evenodd"
       fill-opacity="1"
       id="path83" />
    <text
       fill="#000000"
       fill-opacity="1"
       font-family="Helvetica Neue,Helvetica Neue_MSFontService,sans-serif"
       font-style="normal"
       font-variant="normal"
       font-weight="500"
       font-stretch="normal"
       font-size="55"
       text-anchor="start"
       direction="ltr"
       writing-mode="lr-tb"
       unicode-bidi="normal"
       text-decoration="none"
       transform="matrix(1 0 0 1 3153.61 1885)"
       id="text85">Network Stack</text>
    <path
       d="M3170.5 1689.41C3170.5 1682.28 3176.28 1676.5 3183.41 1676.5L3482.59 1676.5C3489.72 1676.5 3495.5 1682.28 3495.5 1689.41L3495.5 1777.59C3495.5 1784.72 3489.72 1790.5 3482.59 1790.5L3183.41 1790.5C3176.28 1790.5 3170.5 1784.72 3170.5 1777.59Z"
       stroke="#000000"
       stroke-width="4.58333"
       stroke-linecap="butt"
       stroke-linejoin="miter"
       stroke-miterlimit="4"
       stroke-opacity="1"
       fill="#FDF5DB"
       fill-rule="evenodd"
       fill-opacity="1"
       id="path87" />
    <text
       fill="#000000"
       fill-opacity="1"
       font-family="Helvetica Neue,Helvetica Neue_MSFontService,sans-serif"
       font-style="normal"
       font-variant="normal"
       font-weight="500"
       font-stretch="normal"
       font-size="55"
       text-anchor="start"
       direction="ltr"
       writing-mode="lr-tb"
       unicode-bidi="normal"
       text-decoration="none"
       transform="matrix(1 0 0 1 3244.59 1752)"
       id="text89">Netlink</text>
    <path
       d="M3333.5 1676.56 3333.5 1132.5 3454.39 1132.5"
       stroke="#000000"
       stroke-width="9.16667"
       stroke-linecap="butt"
       stroke-linejoin="miter"
       stroke-miterlimit="4"
       stroke-opacity="1"
       fill="none"
       fill-rule="evenodd"
       id="path91" />
    <path
       d="M0 0 0.18189 324.759"
       stroke="#000000"
       stroke-width="9.16667"
       stroke-linecap="butt"
       stroke-linejoin="miter"
       stroke-miterlimit="4"
       stroke-opacity="1"
       fill="none"
       fill-rule="evenodd"
       transform="matrix(-1 0 0 1 3006.68 1265.5)"
       id="path93" />
    <path
       d="M0 0 0.000360892 209.245"
       stroke="#000000"
       stroke-width="9.16667"
       stroke-linecap="butt"
       stroke-linejoin="miter"
       stroke-miterlimit="4"
       stroke-opacity="1"
       fill="none"
       fill-rule="evenodd"
       transform="matrix(-1 0 0 1 3580.5 1604.5)"
       id="path95" />
    <path
       d="M3983.5 1687.5 3984.07 1803.11"
       stroke="#000000"
       stroke-width="9.16667"
       stroke-linecap="butt"
       stroke-linejoin="miter"
       stroke-miterlimit="4"
       stroke-opacity="1"
       fill="none"
       fill-rule="evenodd"
       id="path97" />
    <path
       d="M2874.5 1602.41C2874.5 1595.28 2880.28 1589.5 2887.41 1589.5L3125.59 1589.5C3132.72 1589.5 3138.5 1595.28 3138.5 1602.41L3138.5 1690.59C3138.5 1697.72 3132.72 1703.5 3125.59 1703.5L2887.41 1703.5C2880.28 1703.5 2874.5 1697.72 2874.5 1690.59Z"
       stroke="#8F5DA2"
       stroke-width="4.58333"
       stroke-linecap="butt"
       stroke-linejoin="miter"
       stroke-miterlimit="4"
       stroke-opacity="1"
       fill="#1D9AFF"
       fill-rule="evenodd"
       fill-opacity="1"
       id="path99" />
    <text
       fill="#000000"
       fill-opacity="1"
       font-family="Helvetica Neue,Helvetica Neue_MSFontService,sans-serif"
       font-style="normal"
       font-variant="normal"
       font-weight="500"
       font-stretch="normal"
       font-size="55"
       text-anchor="start"
       direction="ltr"
       writing-mode="lr-tb"
       unicode-bidi="normal"
       text-decoration="none"
       transform="matrix(1 0 0 1 2949.51 1666)"
       id="text101">vEth</text>
    <path
       d="M3383.5 1949.41C3383.5 1942.28 3389.28 1936.5 3396.41 1936.5L3695.59 1936.5C3702.72 1936.5 3708.5 1942.28 3708.5 1949.41L3708.5 2037.59C3708.5 2044.72 3702.72 2050.5 3695.59 2050.5L3396.41 2050.5C3389.28 2050.5 3383.5 2044.72 3383.5 2037.59Z"
       stroke="#000000"
       stroke-width="4.58333"
       stroke-linecap="butt"
       stroke-linejoin="miter"
       stroke-miterlimit="4"
       stroke-opacity="1"
       fill="#D1E0B3"
       fill-rule="evenodd"
       fill-opacity="1"
       id="path103" />
    <text
       fill="#000000"
       fill-opacity="1"
       font-family="Helvetica Neue,Helvetica Neue_MSFontService,sans-serif"
       font-style="normal"
       font-variant="normal"
       font-weight="500"
       font-stretch="normal"
       font-size="55"
       text-anchor="start"
       direction="ltr"
       writing-mode="lr-tb"
       unicode-bidi="normal"
       text-decoration="none"
       transform="matrix(1 0 0 1 3443.9 2013)"
       id="text105">1 queue</text>
    <path
       d="M0 0 70.2827 0 70.2827 43.384"
       stroke="#000000"
       stroke-width="9.16667"
       stroke-linecap="butt"
       stroke-linejoin="miter"
       stroke-miterlimit="4"
       stroke-opacity="1"
       fill="none"
       fill-rule="evenodd"
       transform="matrix(1.83697e-16 1 1 -1.83697e-16 3340.5 1923.5)"
       id="path107" />
    <path
       d="M3708.5 1993.5 3771.57 1993.5 3771.57 1994.26 3834.64 1994.26"
       stroke="#000000"
       stroke-width="9.16667"
       stroke-linecap="butt"
       stroke-linejoin="miter"
       stroke-miterlimit="4"
       stroke-opacity="1"
       fill="none"
       fill-rule="evenodd"
       id="path109" />
    <text
       fill="#004a86"
       fill-opacity="1"
       font-family="'Intel Clear', 'Intel Clear_MSFontService', sans-serif"
       font-style="normal"
       font-variant="normal"
       font-weight="400"
       font-stretch="normal"
       font-size="55px"
       text-anchor="start"
       direction="ltr"
       writing-mode="lr-tb"
       unicode-bidi="normal"
       text-decoration="none"
       id="text115"
       style="text-decoration:none;text-decoration-line:none"
       x="2784.76"
       y="2250.7771">CNET <tspan
   fill="#004a86"
   fill-opacity="1"
   font-family="'Intel Clear', 'Intel Clear_MSFontService', sans-serif"
   font-style="normal"
   font-variant="normal"
   font-weight="400"
   font-stretch="normal"
   font-size="55px"
   text-anchor="start"
   direction="ltr"
   writing-mode="lr-tb"
   unicode-bidi="normal"
   text-decoration="none"
   x="2936.583"
   y="2250.7771"
   id="tspan111"
   style="text-decoration:none;text-decoration-line:none">–</tspan><tspan
   fill="#004a86"
   fill-opacity="1"
   font-family="'Intel Clear', 'Intel Clear_MSFontService', sans-serif"
   font-style="normal"
   font-variant="normal"
   font-weight="400"
   font-stretch="normal"
   font-size="55px"
   text-anchor="start"
   direction="ltr"
   writing-mode="lr-tb"
   unicode-bidi="normal"
   text-decoration="none"
   x="2977.26"
   y="2250.7771"
   id="tspan113"
   style="text-decoration:none;text-decoration-line:none">UDP, IPv4, QUIC(quicly), IPV6/TCP (2H’22)</tspan></text>
  </g>
</svg>
