<!-- SPDX-License-Identifier: BSD-3-Clause -->
<!-- Copyright (c) 2010-2022 Intel Corporation -->
<svg width="4134" height="1874" xmlns="http://www.w3.org/2000/svg" xmlns:xlink="http://www.w3.org/1999/xlink" overflow="hidden"><defs><clipPath id="clip0"><rect x="87" y="385" width="4134" height="1874"/></clipPath></defs><g clip-path="url(#clip0)" transform="translate(-87 -385)"><text fill="#525252" fill-opacity="1" font-family="Wingdings,Wingdings_MSFontService,sans-serif" font-style="normal" font-variant="normal" font-weight="400" font-stretch="normal" font-size="78" text-anchor="start" direction="ltr" writing-mode="lr-tb" unicode-bidi="normal" text-decoration="none" transform="matrix(1 0 0 1 2160.38 722)"><tspan fill="#525252" fill-opacity="1" font-family="Intel Clear Light,Intel Clear Light_MSFontService,sans-serif" font-style="normal" font-variant="normal" font-weight="300" font-stretch="normal" font-size="78" text-anchor="start" direction="ltr" writing-mode="lr-tb" unicode-bidi="normal" text-decoration="none" x="82.5" y="0">A single </tspan><tspan fill="#0068B5" fill-opacity="1" font-family="Intel Clear Light,Intel Clear Light_MSFontService,sans-serif" font-style="normal" font-variant="normal" font-weight="300" font-stretch="normal" font-size="78" text-anchor="start" direction="ltr" writing-mode="lr-tb" unicode-bidi="normal" text-decoration="none" x="371.25" y="0">UMEM</tspan><tspan fill="#525252" fill-opacity="1" font-family="Intel Clear Light,Intel Clear Light_MSFontService,sans-serif" font-style="normal" font-variant="normal" font-weight="300" font-stretch="normal" font-size="78" text-anchor="start" direction="ltr" writing-mode="lr-tb" unicode-bidi="normal" text-decoration="none" x="615.313" y="0">area holding multiple mempool buffers </tspan><tspan fill="#525252" fill-opacity="1" font-family="Intel Clear Light,Intel Clear Light_MSFontService,sans-serif" font-style="normal" font-variant="normal" font-weight="300" font-stretch="normal" font-size="78" text-anchor="start" direction="ltr" writing-mode="lr-tb" unicode-bidi="normal" text-decoration="none" x="82.5" y="84">regions</tspan><tspan fill="#525252" fill-opacity="1" font-family="Wingdings,Wingdings_MSFontService,sans-serif" font-style="normal" font-variant="normal" font-weight="400" font-stretch="normal" font-size="78" text-anchor="start" direction="ltr" writing-mode="lr-tb" unicode-bidi="normal" text-decoration="none" x="0" y="223"></tspan><tspan fill="#525252" fill-opacity="1" font-family="Intel Clear Light,Intel Clear Light_MSFontService,sans-serif" font-style="normal" font-variant="normal" font-weight="300" font-stretch="normal" font-size="78" text-anchor="start" direction="ltr" writing-mode="lr-tb" unicode-bidi="normal" text-decoration="none" x="82.5" y="223">Using </tspan><tspan fill="#0068B5" fill-opacity="1" font-family="Intel Clear Light,Intel Clear Light_MSFontService,sans-serif" font-style="normal" font-variant="normal" font-weight="300" font-stretch="normal" font-size="78" text-anchor="start" direction="ltr" writing-mode="lr-tb" unicode-bidi="normal" text-decoration="none" x="294.479" y="223">MMAP</tspan><tspan fill="#525252" fill-opacity="1" font-family="Intel Clear Light,Intel Clear Light_MSFontService,sans-serif" font-style="normal" font-variant="normal" font-weight="300" font-stretch="normal" font-size="78" text-anchor="start" direction="ltr" writing-mode="lr-tb" unicode-bidi="normal" text-decoration="none" x="537.396" y="223">or some allocation method create a single </tspan><tspan fill="#0068B5" fill-opacity="1" font-family="Intel Clear Light,Intel Clear Light_MSFontService,sans-serif" font-style="normal" font-variant="normal" font-weight="300" font-stretch="normal" font-size="78" text-anchor="start" direction="ltr" writing-mode="lr-tb" unicode-bidi="normal" text-decoration="none" x="82.5" y="308">UMEM</tspan><tspan fill="#525252" fill-opacity="1" font-family="Intel Clear Light,Intel Clear Light_MSFontService,sans-serif" font-style="normal" font-variant="normal" font-weight="300" font-stretch="normal" font-size="78" text-anchor="start" direction="ltr" writing-mode="lr-tb" unicode-bidi="normal" text-decoration="none" x="326.563" y="308">area to help all the mempool buffers regions</tspan><tspan fill="#525252" fill-opacity="1" font-family="Intel Clear Light,Intel Clear Light_MSFontService,sans-serif" font-style="normal" font-variant="normal" font-weight="300" font-stretch="normal" font-size="69" text-anchor="start" direction="ltr" writing-mode="lr-tb" unicode-bidi="normal" text-decoration="none" x="165" y="439">1.</tspan><tspan fill="#525252" fill-opacity="1" font-family="Intel Clear Light,Intel Clear Light_MSFontService,sans-serif" font-style="normal" font-variant="normal" font-weight="300" font-stretch="normal" font-size="69" text-anchor="start" direction="ltr" writing-mode="lr-tb" unicode-bidi="normal" text-decoration="none" x="288.75" y="439">Call </tspan><tspan fill="#0068B5" fill-opacity="1" font-family="Intel Clear Light,Intel Clear Light_MSFontService,sans-serif" font-style="normal" font-variant="normal" font-weight="300" font-stretch="normal" font-size="69" text-anchor="start" direction="ltr" writing-mode="lr-tb" unicode-bidi="normal" text-decoration="none" x="419.948" y="439">mp = mempool_create_empty() </tspan><tspan fill="#525252" fill-opacity="1" font-family="Intel Clear Light,Intel Clear Light_MSFontService,sans-serif" font-style="normal" font-variant="normal" font-weight="300" font-stretch="normal" font-size="69" text-anchor="start" direction="ltr" writing-mode="lr-tb" unicode-bidi="normal" text-decoration="none" x="1391.61" y="439">to allocate a </tspan><tspan fill="#525252" fill-opacity="1" font-family="Intel Clear Light,Intel Clear Light_MSFontService,sans-serif" font-style="normal" font-variant="normal" font-weight="300" font-stretch="normal" font-size="69" text-anchor="start" direction="ltr" writing-mode="lr-tb" unicode-bidi="normal" text-decoration="none" x="288.75" y="514">mempool structure </tspan><tspan fill="#525252" fill-opacity="1" font-family="Intel Clear Light,Intel Clear Light_MSFontService,sans-serif" font-style="normal" font-variant="normal" font-weight="300" font-stretch="normal" font-size="69" text-anchor="start" direction="ltr" writing-mode="lr-tb" unicode-bidi="normal" text-decoration="none" x="165" y="643">2.</tspan><tspan fill="#525252" fill-opacity="1" font-family="Intel Clear Light,Intel Clear Light_MSFontService,sans-serif" font-style="normal" font-variant="normal" font-weight="300" font-stretch="normal" font-size="69" text-anchor="start" direction="ltr" writing-mode="lr-tb" unicode-bidi="normal" text-decoration="none" x="288.75" y="643">Call </tspan><tspan fill="#0068B5" fill-opacity="1" font-family="Intel Clear Light,Intel Clear Light_MSFontService,sans-serif" font-style="normal" font-variant="normal" font-weight="300" font-stretch="normal" font-size="69" text-anchor="start" direction="ltr" writing-mode="lr-tb" unicode-bidi="normal" text-decoration="none" x="419.948" y="643">mempool_populate(mp, addr, len) </tspan><tspan fill="#525252" fill-opacity="1" font-family="Intel Clear Light,Intel Clear Light_MSFontService,sans-serif" font-style="normal" font-variant="normal" font-weight="300" font-stretch="normal" font-size="69" text-anchor="start" direction="ltr" writing-mode="lr-tb" unicode-bidi="normal" text-decoration="none" x="1469.53" y="643">to add the </tspan><tspan fill="#525252" fill-opacity="1" font-family="Intel Clear Light,Intel Clear Light_MSFontService,sans-serif" font-style="normal" font-variant="normal" font-weight="300" font-stretch="normal" font-size="69" text-anchor="start" direction="ltr" writing-mode="lr-tb" unicode-bidi="normal" text-decoration="none" x="288.75" y="717">mempool buffer region and initialize the buffers</tspan><tspan fill="#525252" fill-opacity="1" font-family="Intel Clear Light,Intel Clear Light_MSFontService,sans-serif" font-style="normal" font-variant="normal" font-weight="300" font-stretch="normal" font-size="69" text-anchor="start" direction="ltr" writing-mode="lr-tb" unicode-bidi="normal" text-decoration="none" x="165" y="846">3.</tspan><tspan fill="#525252" fill-opacity="1" font-family="Intel Clear Light,Intel Clear Light_MSFontService,sans-serif" font-style="normal" font-variant="normal" font-weight="300" font-stretch="normal" font-size="69" text-anchor="start" direction="ltr" writing-mode="lr-tb" unicode-bidi="normal" text-decoration="none" x="288.75" y="846">Call </tspan><tspan fill="#0068B5" fill-opacity="1" font-family="Intel Clear Light,Intel Clear Light_MSFontService,sans-serif" font-style="normal" font-variant="normal" font-weight="300" font-stretch="normal" font-size="69" text-anchor="start" direction="ltr" writing-mode="lr-tb" unicode-bidi="normal" text-decoration="none" x="419.948" y="846">mempool_populate(mp) </tspan><tspan fill="#525252" fill-opacity="1" font-family="Intel Clear Light,Intel Clear Light_MSFontService,sans-serif" font-style="normal" font-variant="normal" font-weight="300" font-stretch="normal" font-size="69" text-anchor="start" direction="ltr" writing-mode="lr-tb" unicode-bidi="normal" text-decoration="none" x="1173.91" y="846">to initialize the mempool </tspan><tspan fill="#525252" fill-opacity="1" font-family="Intel Clear Light,Intel Clear Light_MSFontService,sans-serif" font-style="normal" font-variant="normal" font-weight="300" font-stretch="normal" font-size="69" text-anchor="start" direction="ltr" writing-mode="lr-tb" unicode-bidi="normal" text-decoration="none" x="288.75" y="921">buffers or MBUFs</tspan><tspan fill="#525252" fill-opacity="1" font-family="Wingdings,Wingdings_MSFontService,sans-serif" font-style="normal" font-variant="normal" font-weight="400" font-stretch="normal" font-size="78" text-anchor="start" direction="ltr" writing-mode="lr-tb" unicode-bidi="normal" text-decoration="none" x="0" y="1057"></tspan><tspan fill="#525252" fill-opacity="1" font-family="Intel Clear Light,Intel Clear Light_MSFontService,sans-serif" font-style="normal" font-variant="normal" font-weight="300" font-stretch="normal" font-size="78" text-anchor="start" direction="ltr" writing-mode="lr-tb" unicode-bidi="normal" text-decoration="none" x="82.5" y="1057">Each socket created has its own </tspan><tspan fill="#0068B5" fill-opacity="1" font-family="Intel Clear Light,Intel Clear Light_MSFontService,sans-serif" font-style="normal" font-variant="normal" font-weight="300" font-stretch="normal" font-size="78" text-anchor="start" direction="ltr" writing-mode="lr-tb" unicode-bidi="normal" text-decoration="none" x="1192.81" y="1057">RX/TX/CQ/FQ</tspan><tspan fill="#525252" fill-opacity="1" font-family="Intel Clear Light,Intel Clear Light_MSFontService,sans-serif" font-style="normal" font-variant="normal" font-weight="300" font-stretch="normal" font-size="78" text-anchor="start" direction="ltr" writing-mode="lr-tb" unicode-bidi="normal" text-decoration="none" x="82.5" y="1141">rings/queues</tspan><tspan fill="#525252" fill-opacity="1" font-family="Wingdings,Wingdings_MSFontService,sans-serif" font-style="normal" font-variant="normal" font-weight="400" font-stretch="normal" font-size="78" text-anchor="start" direction="ltr" writing-mode="lr-tb" unicode-bidi="normal" text-decoration="none" x="0" y="1281"></tspan><tspan fill="#525252" fill-opacity="1" font-family="Intel Clear Light,Intel Clear Light_MSFontService,sans-serif" font-style="normal" font-variant="normal" font-weight="300" font-stretch="normal" font-size="78" text-anchor="start" direction="ltr" writing-mode="lr-tb" unicode-bidi="normal" text-decoration="none" x="82.5" y="1281">The design allows us to share  a single </tspan><tspan fill="#0068B5" fill-opacity="1" font-family="Intel Clear Light,Intel Clear Light_MSFontService,sans-serif" font-style="normal" font-variant="normal" font-weight="300" font-stretch="normal" font-size="78" text-anchor="start" direction="ltr" writing-mode="lr-tb" unicode-bidi="normal" text-decoration="none" x="1412.24" y="1281">UMEM</tspan><tspan fill="#525252" fill-opacity="1" font-family="Intel Clear Light,Intel Clear Light_MSFontService,sans-serif" font-style="normal" font-variant="normal" font-weight="300" font-stretch="normal" font-size="78" text-anchor="start" direction="ltr" writing-mode="lr-tb" unicode-bidi="normal" text-decoration="none" x="1637.4" y="1281">, but limit </tspan><tspan fill="#525252" fill-opacity="1" font-family="Intel Clear Light,Intel Clear Light_MSFontService,sans-serif" font-style="normal" font-variant="normal" font-weight="300" font-stretch="normal" font-size="78" text-anchor="start" direction="ltr" writing-mode="lr-tb" unicode-bidi="normal" text-decoration="none" x="82.5" y="1365">the number of mbufs/buffers per socket without having </tspan><tspan fill="#525252" fill-opacity="1" font-family="Intel Clear Light,Intel Clear Light_MSFontService,sans-serif" font-style="normal" font-variant="normal" font-weight="300" font-stretch="normal" font-size="78" text-anchor="start" direction="ltr" writing-mode="lr-tb" unicode-bidi="normal" text-decoration="none" x="82.5" y="1449">to copy the packet data between </tspan><tspan fill="#0068B5" fill-opacity="1" font-family="Intel Clear Light,Intel Clear Light_MSFontService,sans-serif" font-style="normal" font-variant="normal" font-weight="300" font-stretch="normal" font-size="78" text-anchor="start" direction="ltr" writing-mode="lr-tb" unicode-bidi="normal" text-decoration="none" x="1228.33" y="1449">AF_XDP </tspan><tspan fill="#525252" fill-opacity="1" font-family="Intel Clear Light,Intel Clear Light_MSFontService,sans-serif" font-style="normal" font-variant="normal" font-weight="300" font-stretch="normal" font-size="78" text-anchor="start" direction="ltr" writing-mode="lr-tb" unicode-bidi="normal" text-decoration="none" x="1526.25" y="1449">sockets</tspan></text><path d="M94.5 675.191C94.5 667.077 101.078 660.5 109.191 660.5L622.809 660.5C630.923 660.5 637.5 667.077 637.5 675.191L637.5 1078.81C637.5 1086.92 630.923 1093.5 622.809 1093.5L109.191 1093.5C101.078 1093.5 94.5 1086.92 94.5 1078.81Z" stroke="#004A84" stroke-width="9.16667" stroke-linecap="butt" stroke-linejoin="round" stroke-miterlimit="10" stroke-opacity="1" fill="#F2F2F2" fill-rule="evenodd" fill-opacity="1"/><text fill="#000000" fill-opacity="1" font-family="Intel Clear,Intel Clear_MSFontService,sans-serif" font-style="normal" font-variant="normal" font-weight="400" font-stretch="normal" font-size="46" text-anchor="start" direction="ltr" writing-mode="lr-tb" unicode-bidi="normal" text-decoration="none" transform="matrix(1 0 0 1 186.337 723)">AF_XDP Socket 0</text><path d="M141.5 769.459C141.5 749.599 157.599 733.5 177.459 733.5L554.541 733.5C574.401 733.5 590.5 749.599 590.5 769.459L590.5 1032.54C590.5 1052.4 574.401 1068.5 554.541 1068.5L177.459 1068.5C157.599 1068.5 141.5 1052.4 141.5 1032.54Z" stroke="#004A84" stroke-width="9.16667" stroke-linecap="butt" stroke-linejoin="round" stroke-miterlimit="10" stroke-opacity="1" fill="#BDE3FF" fill-rule="evenodd" fill-opacity="1"/><text fill="#000000" fill-opacity="1" font-family="Intel Clear,Intel Clear_MSFontService,sans-serif" font-style="normal" font-variant="normal" font-weight="400" font-stretch="normal" font-size="41" text-anchor="start" direction="ltr" writing-mode="lr-tb" unicode-bidi="normal" text-decoration="none" transform="matrix(1 0 0 1 265.399 798)">Per Socket <tspan fill="#000000" fill-opacity="1" font-family="Intel Clear,Intel Clear_MSFontService,sans-serif" font-style="normal" font-variant="normal" font-weight="400" font-stretch="normal" font-size="41" text-anchor="start" direction="ltr" writing-mode="lr-tb" unicode-bidi="normal" text-decoration="none" x="3.16251" y="50">Structures</tspan></text><path d="M180.5 816.799C180.5 812.768 183.768 809.5 187.799 809.5L544.201 809.5C548.232 809.5 551.5 812.768 551.5 816.799L551.5 870.201C551.5 874.232 548.232 877.5 544.201 877.5L187.799 877.5C183.768 877.5 180.5 874.232 180.5 870.201Z" stroke="#004A84" stroke-width="9.16667" stroke-linecap="butt" stroke-linejoin="round" stroke-miterlimit="10" stroke-opacity="1" fill="#E8F0D9" fill-rule="evenodd" fill-opacity="1"/><text fill="#000000" fill-opacity="1" font-family="Intel Clear,Intel Clear_MSFontService,sans-serif" font-style="normal" font-variant="normal" font-weight="400" font-stretch="normal" font-size="41" text-anchor="start" direction="ltr" writing-mode="lr-tb" unicode-bidi="normal" text-decoration="none" transform="matrix(1 0 0 1 249.93 866)">RX/TX Rings</text><path d="M180.5 898.799C180.5 894.768 183.768 891.5 187.799 891.5L544.201 891.5C548.232 891.5 551.5 894.768 551.5 898.799L551.5 952.201C551.5 956.232 548.232 959.5 544.201 959.5L187.799 959.5C183.768 959.5 180.5 956.232 180.5 952.201Z" stroke="#004A84" stroke-width="9.16667" stroke-linecap="butt" stroke-linejoin="round" stroke-miterlimit="10" stroke-opacity="1" fill="#CCF4FF" fill-rule="evenodd" fill-opacity="1"/><text fill="#000000" fill-opacity="1" font-family="Intel Clear,Intel Clear_MSFontService,sans-serif" font-style="normal" font-variant="normal" font-weight="400" font-stretch="normal" font-size="41" text-anchor="start" direction="ltr" writing-mode="lr-tb" unicode-bidi="normal" text-decoration="none" transform="matrix(1 0 0 1 224.722 947)">FQ/CQ Queues</text><path d="M180.5 979.907C180.5 975.816 183.816 972.5 187.907 972.5L544.093 972.5C548.184 972.5 551.5 975.816 551.5 979.907L551.5 1034.09C551.5 1038.18 548.184 1041.5 544.093 1041.5L187.907 1041.5C183.816 1041.5 180.5 1038.18 180.5 1034.09Z" stroke="#004A84" stroke-width="9.16667" stroke-linecap="butt" stroke-linejoin="round" stroke-miterlimit="10" stroke-opacity="1" fill="#F7E1D6" fill-rule="evenodd" fill-opacity="1"/><text fill="#000000" fill-opacity="1" font-family="Intel Clear,Intel Clear_MSFontService,sans-serif" font-style="normal" font-variant="normal" font-weight="400" font-stretch="normal" font-size="41" text-anchor="start" direction="ltr" writing-mode="lr-tb" unicode-bidi="normal" text-decoration="none" transform="matrix(1 0 0 1 219.852 1029)">Mempool/mbuf</text><path d="M94.5 1140.23C94.5 1132.09 101.093 1125.5 109.226 1125.5L622.774 1125.5C630.907 1125.5 637.5 1132.09 637.5 1140.23L637.5 1544.77C637.5 1552.91 630.907 1559.5 622.774 1559.5L109.226 1559.5C101.093 1559.5 94.5 1552.91 94.5 1544.77Z" stroke="#004A84" stroke-width="9.16667" stroke-linecap="butt" stroke-linejoin="round" stroke-miterlimit="10" stroke-opacity="1" fill="#F2F2F2" fill-rule="evenodd" fill-opacity="1"/><text fill="#000000" fill-opacity="1" font-family="Intel Clear,Intel Clear_MSFontService,sans-serif" font-style="normal" font-variant="normal" font-weight="400" font-stretch="normal" font-size="46" text-anchor="start" direction="ltr" writing-mode="lr-tb" unicode-bidi="normal" text-decoration="none" transform="matrix(1 0 0 1 186.337 1188)">AF_XDP Socket 1</text><path d="M141.5 1234.57C141.5 1214.65 157.648 1198.5 177.566 1198.5L554.434 1198.5C574.353 1198.5 590.5 1214.65 590.5 1234.57L590.5 1498.43C590.5 1518.35 574.353 1534.5 554.434 1534.5L177.566 1534.5C157.648 1534.5 141.5 1518.35 141.5 1498.43Z" stroke="#004A84" stroke-width="9.16667" stroke-linecap="butt" stroke-linejoin="round" stroke-miterlimit="10" stroke-opacity="1" fill="#BDE3FF" fill-rule="evenodd" fill-opacity="1"/><text fill="#000000" fill-opacity="1" font-family="Intel Clear,Intel Clear_MSFontService,sans-serif" font-style="normal" font-variant="normal" font-weight="400" font-stretch="normal" font-size="41" text-anchor="start" direction="ltr" writing-mode="lr-tb" unicode-bidi="normal" text-decoration="none" transform="matrix(1 0 0 1 265.399 1263)">Per Socket <tspan fill="#000000" fill-opacity="1" font-family="Intel Clear,Intel Clear_MSFontService,sans-serif" font-style="normal" font-variant="normal" font-weight="400" font-stretch="normal" font-size="41" text-anchor="start" direction="ltr" writing-mode="lr-tb" unicode-bidi="normal" text-decoration="none" x="3.16251" y="50">Structures</tspan></text><path d="M180.5 1282.8C180.5 1278.77 183.768 1275.5 187.799 1275.5L544.201 1275.5C548.232 1275.5 551.5 1278.77 551.5 1282.8L551.5 1336.2C551.5 1340.23 548.232 1343.5 544.201 1343.5L187.799 1343.5C183.768 1343.5 180.5 1340.23 180.5 1336.2Z" stroke="#004A84" stroke-width="9.16667" stroke-linecap="butt" stroke-linejoin="round" stroke-miterlimit="10" stroke-opacity="1" fill="#E8F0D9" fill-rule="evenodd" fill-opacity="1"/><text fill="#000000" fill-opacity="1" font-family="Intel Clear,Intel Clear_MSFontService,sans-serif" font-style="normal" font-variant="normal" font-weight="400" font-stretch="normal" font-size="41" text-anchor="start" direction="ltr" writing-mode="lr-tb" unicode-bidi="normal" text-decoration="none" transform="matrix(1 0 0 1 249.93 1331)">RX/TX Rings</text><path d="M180.5 1363.91C180.5 1359.82 183.816 1356.5 187.907 1356.5L544.093 1356.5C548.184 1356.5 551.5 1359.82 551.5 1363.91L551.5 1418.09C551.5 1422.18 548.184 1425.5 544.093 1425.5L187.907 1425.5C183.816 1425.5 180.5 1422.18 180.5 1418.09Z" stroke="#004A84" stroke-width="9.16667" stroke-linecap="butt" stroke-linejoin="round" stroke-miterlimit="10" stroke-opacity="1" fill="#CCF4FF" fill-rule="evenodd" fill-opacity="1"/><text fill="#000000" fill-opacity="1" font-family="Intel Clear,Intel Clear_MSFontService,sans-serif" font-style="normal" font-variant="normal" font-weight="400" font-stretch="normal" font-size="41" text-anchor="start" direction="ltr" writing-mode="lr-tb" unicode-bidi="normal" text-decoration="none" transform="matrix(1 0 0 1 224.722 1413)">FQ/CQ Queues</text><path d="M180.5 1445.8C180.5 1441.77 183.768 1438.5 187.799 1438.5L544.201 1438.5C548.232 1438.5 551.5 1441.77 551.5 1445.8L551.5 1499.2C551.5 1503.23 548.232 1506.5 544.201 1506.5L187.799 1506.5C183.768 1506.5 180.5 1503.23 180.5 1499.2Z" stroke="#004A84" stroke-width="9.16667" stroke-linecap="butt" stroke-linejoin="round" stroke-miterlimit="10" stroke-opacity="1" fill="#F7E1D6" fill-rule="evenodd" fill-opacity="1"/><text fill="#000000" fill-opacity="1" font-family="Intel Clear,Intel Clear_MSFontService,sans-serif" font-style="normal" font-variant="normal" font-weight="400" font-stretch="normal" font-size="41" text-anchor="start" direction="ltr" writing-mode="lr-tb" unicode-bidi="normal" text-decoration="none" transform="matrix(1 0 0 1 219.852 1495)">Mempool/mbuf</text><path d="M1520.5 1141.23C1520.5 1133.09 1527.09 1126.5 1535.23 1126.5L2049.77 1126.5C2057.91 1126.5 2064.5 1133.09 2064.5 1141.23L2064.5 1545.77C2064.5 1553.91 2057.91 1560.5 2049.77 1560.5L1535.23 1560.5C1527.09 1560.5 1520.5 1553.91 1520.5 1545.77Z" stroke="#004A84" stroke-width="9.16667" stroke-linecap="butt" stroke-linejoin="round" stroke-miterlimit="10" stroke-opacity="1" fill="#F2F2F2" fill-rule="evenodd" fill-opacity="1"/><text fill="#000000" fill-opacity="1" font-family="Intel Clear,Intel Clear_MSFontService,sans-serif" font-style="normal" font-variant="normal" font-weight="400" font-stretch="normal" font-size="46" text-anchor="start" direction="ltr" writing-mode="lr-tb" unicode-bidi="normal" text-decoration="none" transform="matrix(1 0 0 1 1612.88 1189)">AF_XDP Socket 2</text><path d="M1568.5 1235.57C1568.5 1215.65 1584.65 1199.5 1604.57 1199.5L1981.43 1199.5C2001.35 1199.5 2017.5 1215.65 2017.5 1235.57L2017.5 1499.43C2017.5 1519.35 2001.35 1535.5 1981.43 1535.5L1604.57 1535.5C1584.65 1535.5 1568.5 1519.35 1568.5 1499.43Z" stroke="#004A84" stroke-width="9.16667" stroke-linecap="butt" stroke-linejoin="round" stroke-miterlimit="10" stroke-opacity="1" fill="#BDE3FF" fill-rule="evenodd" fill-opacity="1"/><text fill="#000000" fill-opacity="1" font-family="Intel Clear,Intel Clear_MSFontService,sans-serif" font-style="normal" font-variant="normal" font-weight="400" font-stretch="normal" font-size="41" text-anchor="start" direction="ltr" writing-mode="lr-tb" unicode-bidi="normal" text-decoration="none" transform="matrix(1 0 0 1 1691.94 1264)">Per Socket <tspan fill="#000000" fill-opacity="1" font-family="Intel Clear,Intel Clear_MSFontService,sans-serif" font-style="normal" font-variant="normal" font-weight="400" font-stretch="normal" font-size="41" text-anchor="start" direction="ltr" writing-mode="lr-tb" unicode-bidi="normal" text-decoration="none" x="3.1626" y="50">Structures</tspan></text><path d="M1607.5 1282.91C1607.5 1278.82 1610.82 1275.5 1614.91 1275.5L1971.09 1275.5C1975.18 1275.5 1978.5 1278.82 1978.5 1282.91L1978.5 1337.09C1978.5 1341.18 1975.18 1344.5 1971.09 1344.5L1614.91 1344.5C1610.82 1344.5 1607.5 1341.18 1607.5 1337.09Z" stroke="#004A84" stroke-width="9.16667" stroke-linecap="butt" stroke-linejoin="round" stroke-miterlimit="10" stroke-opacity="1" fill="#E8F0D9" fill-rule="evenodd" fill-opacity="1"/><text fill="#000000" fill-opacity="1" font-family="Intel Clear,Intel Clear_MSFontService,sans-serif" font-style="normal" font-variant="normal" font-weight="400" font-stretch="normal" font-size="41" text-anchor="start" direction="ltr" writing-mode="lr-tb" unicode-bidi="normal" text-decoration="none" transform="matrix(1 0 0 1 1676.47 1332)">RX/TX Rings</text><path d="M1607.5 1364.91C1607.5 1360.82 1610.82 1357.5 1614.91 1357.5L1971.09 1357.5C1975.18 1357.5 1978.5 1360.82 1978.5 1364.91L1978.5 1419.09C1978.5 1423.18 1975.18 1426.5 1971.09 1426.5L1614.91 1426.5C1610.82 1426.5 1607.5 1423.18 1607.5 1419.09Z" stroke="#004A84" stroke-width="9.16667" stroke-linecap="butt" stroke-linejoin="round" stroke-miterlimit="10" stroke-opacity="1" fill="#CCF4FF" fill-rule="evenodd" fill-opacity="1"/><text fill="#000000" fill-opacity="1" font-family="Intel Clear,Intel Clear_MSFontService,sans-serif" font-style="normal" font-variant="normal" font-weight="400" font-stretch="normal" font-size="41" text-anchor="start" direction="ltr" writing-mode="lr-tb" unicode-bidi="normal" text-decoration="none" transform="matrix(1 0 0 1 1651.27 1414)">FQ/CQ Queues</text><path d="M1607.5 1446.8C1607.5 1442.77 1610.77 1439.5 1614.8 1439.5L1971.2 1439.5C1975.23 1439.5 1978.5 1442.77 1978.5 1446.8L1978.5 1500.2C1978.5 1504.23 1975.23 1507.5 1971.2 1507.5L1614.8 1507.5C1610.77 1507.5 1607.5 1504.23 1607.5 1500.2Z" stroke="#004A84" stroke-width="9.16667" stroke-linecap="butt" stroke-linejoin="round" stroke-miterlimit="10" stroke-opacity="1" fill="#F7E1D6" fill-rule="evenodd" fill-opacity="1"/><text fill="#000000" fill-opacity="1" font-family="Intel Clear,Intel Clear_MSFontService,sans-serif" font-style="normal" font-variant="normal" font-weight="400" font-stretch="normal" font-size="41" text-anchor="start" direction="ltr" writing-mode="lr-tb" unicode-bidi="normal" text-decoration="none" transform="matrix(1 0 0 1 1646.4 1495)">Mempool/mbuf</text><path d="M1523.5 1602.23C1523.5 1594.09 1530.09 1587.5 1538.23 1587.5L2051.77 1587.5C2059.91 1587.5 2066.5 1594.09 2066.5 1602.23L2066.5 2006.77C2066.5 2014.91 2059.91 2021.5 2051.77 2021.5L1538.23 2021.5C1530.09 2021.5 1523.5 2014.91 1523.5 2006.77Z" stroke="#004A84" stroke-width="9.16667" stroke-linecap="butt" stroke-linejoin="round" stroke-miterlimit="10" stroke-opacity="1" fill="#F2F2F2" fill-rule="evenodd" fill-opacity="1"/><text fill="#000000" fill-opacity="1" font-family="Intel Clear,Intel Clear_MSFontService,sans-serif" font-style="normal" font-variant="normal" font-weight="400" font-stretch="normal" font-size="46" text-anchor="start" direction="ltr" writing-mode="lr-tb" unicode-bidi="normal" text-decoration="none" transform="matrix(1 0 0 1 1615.36 1650)">AF_XDP Socket 3</text><path d="M1570.5 1696.57C1570.5 1676.65 1586.65 1660.5 1606.57 1660.5L1983.43 1660.5C2003.35 1660.5 2019.5 1676.65 2019.5 1696.57L2019.5 1960.43C2019.5 1980.35 2003.35 1996.5 1983.43 1996.5L1606.57 1996.5C1586.65 1996.5 1570.5 1980.35 1570.5 1960.43Z" stroke="#004A84" stroke-width="9.16667" stroke-linecap="butt" stroke-linejoin="round" stroke-miterlimit="10" stroke-opacity="1" fill="#BDE3FF" fill-rule="evenodd" fill-opacity="1"/><text fill="#000000" fill-opacity="1" font-family="Intel Clear,Intel Clear_MSFontService,sans-serif" font-style="normal" font-variant="normal" font-weight="400" font-stretch="normal" font-size="41" text-anchor="start" direction="ltr" writing-mode="lr-tb" unicode-bidi="normal" text-decoration="none" transform="matrix(1 0 0 1 1694.42 1725)">Per Socket <tspan fill="#000000" fill-opacity="1" font-family="Intel Clear,Intel Clear_MSFontService,sans-serif" font-style="normal" font-variant="normal" font-weight="400" font-stretch="normal" font-size="41" text-anchor="start" direction="ltr" writing-mode="lr-tb" unicode-bidi="normal" text-decoration="none" x="3.16248" y="50">Structures</tspan></text><path d="M1609.5 1744.8C1609.5 1740.77 1612.77 1737.5 1616.8 1737.5L1973.2 1737.5C1977.23 1737.5 1980.5 1740.77 1980.5 1744.8L1980.5 1798.2C1980.5 1802.23 1977.23 1805.5 1973.2 1805.5L1616.8 1805.5C1612.77 1805.5 1609.5 1802.23 1609.5 1798.2Z" stroke="#004A84" stroke-width="9.16667" stroke-linecap="butt" stroke-linejoin="round" stroke-miterlimit="10" stroke-opacity="1" fill="#E8F0D9" fill-rule="evenodd" fill-opacity="1"/><text fill="#000000" fill-opacity="1" font-family="Intel Clear,Intel Clear_MSFontService,sans-serif" font-style="normal" font-variant="normal" font-weight="400" font-stretch="normal" font-size="41" text-anchor="start" direction="ltr" writing-mode="lr-tb" unicode-bidi="normal" text-decoration="none" transform="matrix(1 0 0 1 1678.96 1793)">RX/TX Rings</text><path d="M1609.5 1825.91C1609.5 1821.82 1612.82 1818.5 1616.91 1818.5L1973.09 1818.5C1977.18 1818.5 1980.5 1821.82 1980.5 1825.91L1980.5 1880.09C1980.5 1884.18 1977.18 1887.5 1973.09 1887.5L1616.91 1887.5C1612.82 1887.5 1609.5 1884.18 1609.5 1880.09Z" stroke="#004A84" stroke-width="9.16667" stroke-linecap="butt" stroke-linejoin="round" stroke-miterlimit="10" stroke-opacity="1" fill="#CCF4FF" fill-rule="evenodd" fill-opacity="1"/><text fill="#000000" fill-opacity="1" font-family="Intel Clear,Intel Clear_MSFontService,sans-serif" font-style="normal" font-variant="normal" font-weight="400" font-stretch="normal" font-size="41" text-anchor="start" direction="ltr" writing-mode="lr-tb" unicode-bidi="normal" text-decoration="none" transform="matrix(1 0 0 1 1653.75 1875)">FQ/CQ Queues</text><path d="M1609.5 1907.8C1609.5 1903.77 1612.77 1900.5 1616.8 1900.5L1973.2 1900.5C1977.23 1900.5 1980.5 1903.77 1980.5 1907.8L1980.5 1961.2C1980.5 1965.23 1977.23 1968.5 1973.2 1968.5L1616.8 1968.5C1612.77 1968.5 1609.5 1965.23 1609.5 1961.2Z" stroke="#004A84" stroke-width="9.16667" stroke-linecap="butt" stroke-linejoin="round" stroke-miterlimit="10" stroke-opacity="1" fill="#F7E1D6" fill-rule="evenodd" fill-opacity="1"/><text fill="#000000" fill-opacity="1" font-family="Intel Clear,Intel Clear_MSFontService,sans-serif" font-style="normal" font-variant="normal" font-weight="400" font-stretch="normal" font-size="41" text-anchor="start" direction="ltr" writing-mode="lr-tb" unicode-bidi="normal" text-decoration="none" transform="matrix(1 0 0 1 1648.88 1957)">Mempool/mbuf</text><path d="M1456.5 407.907C1456.5 397.741 1464.74 389.5 1474.91 389.5L1851.09 389.5C1861.26 389.5 1869.5 397.741 1869.5 407.907L1869.5 559.093C1869.5 569.259 1861.26 577.5 1851.09 577.5L1474.91 577.5C1464.74 577.5 1456.5 569.259 1456.5 559.093Z" stroke="#004A84" stroke-width="9.16667" stroke-linecap="butt" stroke-linejoin="round" stroke-miterlimit="10" stroke-opacity="1" fill="#F2F2F2" fill-rule="evenodd" fill-opacity="1"/><text fill="#000000" fill-opacity="1" font-family="Intel Clear,Intel Clear_MSFontService,sans-serif" font-style="normal" font-variant="normal" font-weight="400" font-stretch="normal" font-size="46" text-anchor="start" direction="ltr" writing-mode="lr-tb" unicode-bidi="normal" text-decoration="none" transform="matrix(1 0 0 1 1567.77 447)">MMAP or <tspan fill="#000000" fill-opacity="1" font-family="Intel Clear,Intel Clear_MSFontService,sans-serif" font-style="normal" font-variant="normal" font-weight="400" font-stretch="normal" font-size="46" text-anchor="start" direction="ltr" writing-mode="lr-tb" unicode-bidi="normal" text-decoration="none" x="-47.5521" y="50">malloc UMEM </tspan><tspan fill="#000000" fill-opacity="1" font-family="Intel Clear,Intel Clear_MSFontService,sans-serif" font-style="normal" font-variant="normal" font-weight="400" font-stretch="normal" font-size="46" text-anchor="start" direction="ltr" writing-mode="lr-tb" unicode-bidi="normal" text-decoration="none" x="50.1417" y="99">area</tspan></text><path d="M766.5 574.741C766.5 563.01 776.01 553.5 787.741 553.5L1371.26 553.5C1382.99 553.5 1392.5 563.01 1392.5 574.741L1392.5 2232.26C1392.5 2243.99 1382.99 2253.5 1371.26 2253.5L787.741 2253.5C776.01 2253.5 766.5 2243.99 766.5 2232.26Z" stroke="#004A84" stroke-width="9.16667" stroke-linecap="butt" stroke-linejoin="round" stroke-miterlimit="10" stroke-opacity="1" fill="#F2F2F2" fill-rule="evenodd" fill-opacity="1"/><text fill="#000000" fill-opacity="1" font-family="Intel Clear,Intel Clear_MSFontService,sans-serif" font-style="normal" font-variant="normal" font-weight="400" font-stretch="normal" font-size="48" text-anchor="start" direction="ltr" writing-mode="lr-tb" unicode-bidi="normal" text-decoration="none" transform="matrix(1 0 0 1 934.843 615)">Single UMEM</text><path d="M806.5 686.729C806.5 668.377 821.377 653.5 839.729 653.5L1336.27 653.5C1354.62 653.5 1369.5 668.377 1369.5 686.729L1369.5 983.271C1369.5 1001.62 1354.62 1016.5 1336.27 1016.5L839.729 1016.5C821.377 1016.5 806.5 1001.62 806.5 983.271Z" stroke="#004A84" stroke-width="9.16667" stroke-linecap="butt" stroke-linejoin="round" stroke-miterlimit="10" stroke-opacity="1" fill="#F7E1D6" fill-rule="evenodd" fill-opacity="1"/><text fill="#000000" fill-opacity="1" font-family="Intel Clear,Intel Clear_MSFontService,sans-serif" font-style="normal" font-variant="normal" font-weight="400" font-stretch="normal" font-size="37" text-anchor="start" direction="ltr" writing-mode="lr-tb" unicode-bidi="normal" text-decoration="none" transform="matrix(1 0 0 1 905.098 713)">Mempool buffers with <tspan fill="#000000" fill-opacity="1" font-family="Intel Clear,Intel Clear_MSFontService,sans-serif" font-style="normal" font-variant="normal" font-weight="400" font-stretch="normal" font-size="37" text-anchor="start" direction="ltr" writing-mode="lr-tb" unicode-bidi="normal" text-decoration="none" x="130.052" y="44">mbufs</tspan></text><path d="M806.5 834.5 1369.59 834.5" stroke="#0066B5" stroke-width="3.4375" stroke-linecap="butt" stroke-linejoin="round" stroke-miterlimit="10" stroke-opacity="1" fill="none" fill-rule="evenodd"/><path d="M806.5 861.5 1369.59 861.5" stroke="#0066B5" stroke-width="3.4375" stroke-linecap="butt" stroke-linejoin="round" stroke-miterlimit="10" stroke-opacity="1" fill="none" fill-rule="evenodd"/><path d="M806.5 890.5 1369.59 890.501" stroke="#0066B5" stroke-width="3.4375" stroke-linecap="butt" stroke-linejoin="round" stroke-miterlimit="10" stroke-opacity="1" fill="none" fill-rule="evenodd"/><path d="M806.5 919.5 1369.59 919.5" stroke="#0066B5" stroke-width="3.4375" stroke-linecap="butt" stroke-linejoin="round" stroke-miterlimit="10" stroke-opacity="1" fill="none" fill-rule="evenodd"/><path d="M806.5 950.5 1369.59 950.5" stroke="#0066B5" stroke-width="3.4375" stroke-linecap="butt" stroke-linejoin="round" stroke-miterlimit="10" stroke-opacity="1" fill="none" fill-rule="evenodd"/><path d="M806.5 977.5 1369.59 977.5" stroke="#0066B5" stroke-width="3.4375" stroke-linecap="butt" stroke-linejoin="round" stroke-miterlimit="10" stroke-opacity="1" fill="none" fill-rule="evenodd"/><path d="M806.5 751.5 1369.59 751.5" stroke="#0066B5" stroke-width="3.4375" stroke-linecap="butt" stroke-linejoin="round" stroke-miterlimit="10" stroke-opacity="1" fill="none" fill-rule="evenodd"/><path d="M806.5 780.5 1369.59 780.501" stroke="#0066B5" stroke-width="3.4375" stroke-linecap="butt" stroke-linejoin="round" stroke-miterlimit="10" stroke-opacity="1" fill="none" fill-rule="evenodd"/><path d="M806.5 809.5 1369.59 809.5" stroke="#0066B5" stroke-width="3.4375" stroke-linecap="butt" stroke-linejoin="round" stroke-miterlimit="10" stroke-opacity="1" fill="none" fill-rule="evenodd"/><path d="M806.5 1090.73C806.5 1072.38 821.377 1057.5 839.729 1057.5L1336.27 1057.5C1354.62 1057.5 1369.5 1072.38 1369.5 1090.73L1369.5 1387.27C1369.5 1405.62 1354.62 1420.5 1336.27 1420.5L839.729 1420.5C821.377 1420.5 806.5 1405.62 806.5 1387.27Z" stroke="#004A84" stroke-width="9.16667" stroke-linecap="butt" stroke-linejoin="round" stroke-miterlimit="10" stroke-opacity="1" fill="#F7E1D6" fill-rule="evenodd" fill-opacity="1"/><text fill="#000000" fill-opacity="1" font-family="Intel Clear,Intel Clear_MSFontService,sans-serif" font-style="normal" font-variant="normal" font-weight="400" font-stretch="normal" font-size="37" text-anchor="start" direction="ltr" writing-mode="lr-tb" unicode-bidi="normal" text-decoration="none" transform="matrix(1 0 0 1 905.098 1118)">Mempool buffers with <tspan fill="#000000" fill-opacity="1" font-family="Intel Clear,Intel Clear_MSFontService,sans-serif" font-style="normal" font-variant="normal" font-weight="400" font-stretch="normal" font-size="37" text-anchor="start" direction="ltr" writing-mode="lr-tb" unicode-bidi="normal" text-decoration="none" x="130.052" y="44">mbufs</tspan></text><path d="M806.5 1239.5 1369.59 1239.5" stroke="#0066B5" stroke-width="3.4375" stroke-linecap="butt" stroke-linejoin="round" stroke-miterlimit="10" stroke-opacity="1" fill="none" fill-rule="evenodd"/><path d="M806.5 1266.5 1369.59 1266.5" stroke="#0066B5" stroke-width="3.4375" stroke-linecap="butt" stroke-linejoin="round" stroke-miterlimit="10" stroke-opacity="1" fill="none" fill-rule="evenodd"/><path d="M806.5 1294.5 1369.59 1294.5" stroke="#0066B5" stroke-width="3.4375" stroke-linecap="butt" stroke-linejoin="round" stroke-miterlimit="10" stroke-opacity="1" fill="none" fill-rule="evenodd"/><path d="M806.5 1323.5 1369.59 1323.5" stroke="#0066B5" stroke-width="3.4375" stroke-linecap="butt" stroke-linejoin="round" stroke-miterlimit="10" stroke-opacity="1" fill="none" fill-rule="evenodd"/><path d="M806.5 1355.5 1369.59 1355.5" stroke="#0066B5" stroke-width="3.4375" stroke-linecap="butt" stroke-linejoin="round" stroke-miterlimit="10" stroke-opacity="1" fill="none" fill-rule="evenodd"/><path d="M806.5 1381.5 1369.59 1381.5" stroke="#0066B5" stroke-width="3.4375" stroke-linecap="butt" stroke-linejoin="round" stroke-miterlimit="10" stroke-opacity="1" fill="none" fill-rule="evenodd"/><path d="M806.5 1156.5 1369.59 1156.5" stroke="#0066B5" stroke-width="3.4375" stroke-linecap="butt" stroke-linejoin="round" stroke-miterlimit="10" stroke-opacity="1" fill="none" fill-rule="evenodd"/><path d="M806.5 1185.5 1369.59 1185.5" stroke="#0066B5" stroke-width="3.4375" stroke-linecap="butt" stroke-linejoin="round" stroke-miterlimit="10" stroke-opacity="1" fill="none" fill-rule="evenodd"/><path d="M806.5 1214.5 1369.59 1214.5" stroke="#0066B5" stroke-width="3.4375" stroke-linecap="butt" stroke-linejoin="round" stroke-miterlimit="10" stroke-opacity="1" fill="none" fill-rule="evenodd"/><path d="M806.5 1495.73C806.5 1477.38 821.377 1462.5 839.729 1462.5L1336.27 1462.5C1354.62 1462.5 1369.5 1477.38 1369.5 1495.73L1369.5 1792.27C1369.5 1810.62 1354.62 1825.5 1336.27 1825.5L839.729 1825.5C821.377 1825.5 806.5 1810.62 806.5 1792.27Z" stroke="#004A84" stroke-width="9.16667" stroke-linecap="butt" stroke-linejoin="round" stroke-miterlimit="10" stroke-opacity="1" fill="#F7E1D6" fill-rule="evenodd" fill-opacity="1"/><text fill="#000000" fill-opacity="1" font-family="Intel Clear,Intel Clear_MSFontService,sans-serif" font-style="normal" font-variant="normal" font-weight="400" font-stretch="normal" font-size="37" text-anchor="start" direction="ltr" writing-mode="lr-tb" unicode-bidi="normal" text-decoration="none" transform="matrix(1 0 0 1 905.098 1522)">Mempool buffers with <tspan fill="#000000" fill-opacity="1" font-family="Intel Clear,Intel Clear_MSFontService,sans-serif" font-style="normal" font-variant="normal" font-weight="400" font-stretch="normal" font-size="37" text-anchor="start" direction="ltr" writing-mode="lr-tb" unicode-bidi="normal" text-decoration="none" x="130.052" y="44">mbufs</tspan></text><path d="M806.5 1643.5 1369.59 1643.5" stroke="#0066B5" stroke-width="3.4375" stroke-linecap="butt" stroke-linejoin="round" stroke-miterlimit="10" stroke-opacity="1" fill="none" fill-rule="evenodd"/><path d="M806.5 1670.5 1369.59 1670.5" stroke="#0066B5" stroke-width="3.4375" stroke-linecap="butt" stroke-linejoin="round" stroke-miterlimit="10" stroke-opacity="1" fill="none" fill-rule="evenodd"/><path d="M806.5 1699.5 1369.59 1699.5" stroke="#0066B5" stroke-width="3.4375" stroke-linecap="butt" stroke-linejoin="round" stroke-miterlimit="10" stroke-opacity="1" fill="none" fill-rule="evenodd"/><path d="M806.5 1728.5 1369.59 1728.5" stroke="#0066B5" stroke-width="3.4375" stroke-linecap="butt" stroke-linejoin="round" stroke-miterlimit="10" stroke-opacity="1" fill="none" fill-rule="evenodd"/><path d="M806.5 1759.5 1369.59 1759.5" stroke="#0066B5" stroke-width="3.4375" stroke-linecap="butt" stroke-linejoin="round" stroke-miterlimit="10" stroke-opacity="1" fill="none" fill-rule="evenodd"/><path d="M806.5 1786.5 1369.59 1786.5" stroke="#0066B5" stroke-width="3.4375" stroke-linecap="butt" stroke-linejoin="round" stroke-miterlimit="10" stroke-opacity="1" fill="none" fill-rule="evenodd"/><path d="M806.5 1560.5 1369.59 1560.5" stroke="#0066B5" stroke-width="3.4375" stroke-linecap="butt" stroke-linejoin="round" stroke-miterlimit="10" stroke-opacity="1" fill="none" fill-rule="evenodd"/><path d="M806.5 1589.5 1369.59 1589.5" stroke="#0066B5" stroke-width="3.4375" stroke-linecap="butt" stroke-linejoin="round" stroke-miterlimit="10" stroke-opacity="1" fill="none" fill-rule="evenodd"/><path d="M806.5 1618.5 1369.59 1618.5" stroke="#0066B5" stroke-width="3.4375" stroke-linecap="butt" stroke-linejoin="round" stroke-miterlimit="10" stroke-opacity="1" fill="none" fill-rule="evenodd"/><path d="M806.5 1899.73C806.5 1881.38 821.377 1866.5 839.729 1866.5L1336.27 1866.5C1354.62 1866.5 1369.5 1881.38 1369.5 1899.73L1369.5 2196.27C1369.5 2214.62 1354.62 2229.5 1336.27 2229.5L839.729 2229.5C821.377 2229.5 806.5 2214.62 806.5 2196.27Z" stroke="#004A84" stroke-width="9.16667" stroke-linecap="butt" stroke-linejoin="round" stroke-miterlimit="10" stroke-opacity="1" fill="#F7E1D6" fill-rule="evenodd" fill-opacity="1"/><text fill="#000000" fill-opacity="1" font-family="Intel Clear,Intel Clear_MSFontService,sans-serif" font-style="normal" font-variant="normal" font-weight="400" font-stretch="normal" font-size="37" text-anchor="start" direction="ltr" writing-mode="lr-tb" unicode-bidi="normal" text-decoration="none" transform="matrix(1 0 0 1 905.098 1927)">Mempool buffers with <tspan fill="#000000" fill-opacity="1" font-family="Intel Clear,Intel Clear_MSFontService,sans-serif" font-style="normal" font-variant="normal" font-weight="400" font-stretch="normal" font-size="37" text-anchor="start" direction="ltr" writing-mode="lr-tb" unicode-bidi="normal" text-decoration="none" x="130.052" y="44">mbufs</tspan></text><path d="M806.5 2048.5 1369.59 2048.5" stroke="#0066B5" stroke-width="3.4375" stroke-linecap="butt" stroke-linejoin="round" stroke-miterlimit="10" stroke-opacity="1" fill="none" fill-rule="evenodd"/><path d="M806.5 2075.5 1369.59 2075.5" stroke="#0066B5" stroke-width="3.4375" stroke-linecap="butt" stroke-linejoin="round" stroke-miterlimit="10" stroke-opacity="1" fill="none" fill-rule="evenodd"/><path d="M806.5 2103.5 1369.59 2103.5" stroke="#0066B5" stroke-width="3.4375" stroke-linecap="butt" stroke-linejoin="round" stroke-miterlimit="10" stroke-opacity="1" fill="none" fill-rule="evenodd"/><path d="M806.5 2132.5 1369.59 2132.5" stroke="#0066B5" stroke-width="3.4375" stroke-linecap="butt" stroke-linejoin="round" stroke-miterlimit="10" stroke-opacity="1" fill="none" fill-rule="evenodd"/><path d="M806.5 2163.5 1369.59 2163.5" stroke="#0066B5" stroke-width="3.4375" stroke-linecap="butt" stroke-linejoin="round" stroke-miterlimit="10" stroke-opacity="1" fill="none" fill-rule="evenodd"/><path d="M806.5 2190.5 1369.59 2190.5" stroke="#0066B5" stroke-width="3.4375" stroke-linecap="butt" stroke-linejoin="round" stroke-miterlimit="10" stroke-opacity="1" fill="none" fill-rule="evenodd"/><path d="M806.5 1965.5 1369.59 1965.5" stroke="#0066B5" stroke-width="3.4375" stroke-linecap="butt" stroke-linejoin="round" stroke-miterlimit="10" stroke-opacity="1" fill="none" fill-rule="evenodd"/><path d="M806.5 1993.5 1369.59 1993.5" stroke="#0066B5" stroke-width="3.4375" stroke-linecap="butt" stroke-linejoin="round" stroke-miterlimit="10" stroke-opacity="1" fill="none" fill-rule="evenodd"/><path d="M806.5 2022.5 1369.59 2022.5" stroke="#0066B5" stroke-width="3.4375" stroke-linecap="butt" stroke-linejoin="round" stroke-miterlimit="10" stroke-opacity="1" fill="none" fill-rule="evenodd"/><path d="M22.9166-4.58333 377.363-4.58333C379.894-4.58333 381.947-2.53131 381.947 0L381.947 47.5544 372.78 47.5544 372.78 0 377.363 4.58333 22.9166 4.58333ZM27.5 13.75 0 0 27.5-13.75ZM391.113 42.9711 377.363 70.4711 363.613 42.9711Z" fill="#0066B5" fill-rule="nonzero" fill-opacity="1" transform="matrix(-1 1.22465e-16 1.22465e-16 1 1456.86 483.5)"/><path d="M22.9167-4.58333 127.395-4.58333C129.926-4.58333 131.978-2.53131 131.978 0L131.978 172.154 127.395 167.571 231.873 167.571 231.873 176.737 127.395 176.737C124.864 176.737 122.812 174.685 122.812 172.154L122.812 0 127.395 4.58333 22.9167 4.58333ZM27.5 13.75 0 0 27.5-13.75ZM227.29 158.404 254.79 172.154 227.29 185.904Z" fill="#0066B5" fill-rule="nonzero" fill-opacity="1" transform="matrix(1 0 0 -1 551.5 1006.65)"/><path d="M22.9167-4.58333 127.395-4.58333C129.926-4.58333 131.978-2.53131 131.978 0L131.978 233.249 127.395 228.666 231.873 228.666 231.873 237.832 127.395 237.832C124.864 237.832 122.812 235.78 122.812 233.249L122.812 0 127.395 4.58333 22.9167 4.58333ZM27.5 13.75 0 0 27.5-13.75ZM227.29 219.499 254.79 233.249 227.29 246.999Z" fill="#0066B5" fill-rule="nonzero" fill-opacity="1" transform="matrix(1 0 0 -1 551.5 1472.75)"/><path d="M22.9167-4.58333 118.754-4.58333C121.286-4.58333 123.338-2.53131 123.338 0L123.338 170.324 118.754 165.741 214.592 165.741 214.592 174.907 118.754 174.907C116.223 174.907 114.171 172.855 114.171 170.324L114.171 0 118.754 4.58333 22.9167 4.58333ZM27.5 13.75 0 0 27.5-13.75ZM210.009 156.574 237.509 170.324 210.009 184.074Z" fill="#0066B5" fill-rule="nonzero" fill-opacity="1" transform="matrix(-1 1.22465e-16 1.22465e-16 1 1607.01 1473.5)"/><path d="M22.9167-4.58333 119.995-4.58333C122.526-4.58333 124.578-2.53131 124.578 0L124.578 113.692 119.995 109.108 217.072 109.108 217.072 118.275 119.995 118.275C117.463 118.275 115.411 116.223 115.411 113.692L115.411 0 119.995 4.58333 22.9167 4.58333ZM27.5 13.75 0 0 27.5-13.75ZM212.489 99.9416 239.989 113.692 212.489 127.442Z" fill="#0066B5" fill-rule="nonzero" fill-opacity="1" transform="matrix(-1 1.22465e-16 1.22465e-16 1 1609.49 1934.5)"/></g></svg>
