<!-- SPDX-License-Identifier: BSD-3-Clause -->
<!-- Copyright (c) 2010-2022 Intel Corporation -->
<svg width="4258" height="1687" xmlns="http://www.w3.org/2000/svg" xmlns:xlink="http://www.w3.org/1999/xlink" overflow="hidden"><defs><clipPath id="clip0"><rect x="45" y="568" width="4258" height="1687"/></clipPath></defs><g clip-path="url(#clip0)" transform="translate(-45 -568)"><text fill="#525252" fill-opacity="1" font-family="Wingdings,Wingdings_MSFontService,sans-serif" font-style="normal" font-variant="normal" font-weight="400" font-stretch="normal" font-size="92" text-anchor="start" direction="ltr" writing-mode="lr-tb" unicode-bidi="normal" text-decoration="none" transform="matrix(1 0 0 1 2307.57 744)"><tspan fill="#525252" fill-opacity="1" font-family="Intel Clear Light,Intel Clear Light_MSFontService,sans-serif" font-style="normal" font-variant="normal" font-weight="300" font-stretch="normal" font-size="92" text-anchor="start" direction="ltr" writing-mode="lr-tb" unicode-bidi="normal" text-decoration="none" x="82.5" y="0">The </tspan><tspan fill="#0068B5" fill-opacity="1" font-family="Intel Clear Light,Intel Clear Light_MSFontService,sans-serif" font-style="normal" font-variant="normal" font-weight="300" font-stretch="normal" font-size="92" text-anchor="start" direction="ltr" writing-mode="lr-tb" unicode-bidi="normal" text-decoration="none" x="260.677" y="0">pktmbuf</tspan><tspan fill="#525252" fill-opacity="1" font-family="Intel Clear Light,Intel Clear Light_MSFontService,sans-serif" font-style="normal" font-variant="normal" font-weight="300" font-stretch="normal" font-size="92" text-anchor="start" direction="ltr" writing-mode="lr-tb" unicode-bidi="normal" text-decoration="none" x="631.354" y="0">pool is just a </tspan><tspan fill="#0068B5" fill-opacity="1" font-family="Intel Clear Light,Intel Clear Light_MSFontService,sans-serif" font-style="normal" font-variant="normal" font-weight="300" font-stretch="normal" font-size="92" text-anchor="start" direction="ltr" writing-mode="lr-tb" unicode-bidi="normal" text-decoration="none" x="1159.01" y="0">Mempool</tspan><tspan fill="#525252" fill-opacity="1" font-family="Intel Clear Light,Intel Clear Light_MSFontService,sans-serif" font-style="normal" font-variant="normal" font-weight="300" font-stretch="normal" font-size="92" text-anchor="start" direction="ltr" writing-mode="lr-tb" unicode-bidi="normal" text-decoration="none" x="1545.73" y="0">, where </tspan><tspan fill="#525252" fill-opacity="1" font-family="Intel Clear Light,Intel Clear Light_MSFontService,sans-serif" font-style="normal" font-variant="normal" font-weight="300" font-stretch="normal" font-size="92" text-anchor="start" direction="ltr" writing-mode="lr-tb" unicode-bidi="normal" text-decoration="none" x="82.5" y="110">each buffer is an MBUF with structure and </tspan><tspan fill="#525252" fill-opacity="1" font-family="Intel Clear Light,Intel Clear Light_MSFontService,sans-serif" font-style="normal" font-variant="normal" font-weight="300" font-stretch="normal" font-size="92" text-anchor="start" direction="ltr" writing-mode="lr-tb" unicode-bidi="normal" text-decoration="none" x="82.5" y="220">data</tspan><tspan fill="#525252" fill-opacity="1" font-family="Wingdings,Wingdings_MSFontService,sans-serif" font-style="normal" font-variant="normal" font-weight="400" font-stretch="normal" font-size="92" text-anchor="start" direction="ltr" writing-mode="lr-tb" unicode-bidi="normal" text-decoration="none" x="0" y="385"></tspan><tspan fill="#525252" fill-opacity="1" font-family="Intel Clear Light,Intel Clear Light_MSFontService,sans-serif" font-style="normal" font-variant="normal" font-weight="300" font-stretch="normal" font-size="92" text-anchor="start" direction="ltr" writing-mode="lr-tb" unicode-bidi="normal" text-decoration="none" x="82.5" y="385">Sizeof(pktmbuf_t) = </tspan><tspan fill="#0068B5" fill-opacity="1" font-family="Intel Clear Light,Intel Clear Light_MSFontService,sans-serif" font-style="normal" font-variant="normal" font-weight="300" font-stretch="normal" font-size="92" text-anchor="start" direction="ltr" writing-mode="lr-tb" unicode-bidi="normal" text-decoration="none" x="902.917" y="385">64 bytes </tspan><tspan fill="#525252" fill-opacity="1" font-family="Intel Clear Light,Intel Clear Light_MSFontService,sans-serif" font-style="normal" font-variant="normal" font-weight="300" font-stretch="normal" font-size="92" text-anchor="start" direction="ltr" writing-mode="lr-tb" unicode-bidi="normal" text-decoration="none" x="1277.6" y="385">or a cacheline</tspan><tspan fill="#0068B5" fill-opacity="1" font-family="Wingdings,Wingdings_MSFontService,sans-serif" font-style="normal" font-variant="normal" font-weight="400" font-stretch="normal" font-size="92" text-anchor="start" direction="ltr" writing-mode="lr-tb" unicode-bidi="normal" text-decoration="none" x="0" y="550"></tspan><tspan fill="#0068B5" fill-opacity="1" font-family="Intel Clear Light,Intel Clear Light_MSFontService,sans-serif" font-style="normal" font-variant="normal" font-weight="300" font-stretch="normal" font-size="92" text-anchor="start" direction="ltr" writing-mode="lr-tb" unicode-bidi="normal" text-decoration="none" x="82.5" y="550">Headroom space (192 bytes)</tspan><tspan fill="#525252" fill-opacity="1" font-family="Intel Clear Light,Intel Clear Light_MSFontService,sans-serif" font-style="normal" font-variant="normal" font-weight="300" font-stretch="normal" font-size="92" text-anchor="start" direction="ltr" writing-mode="lr-tb" unicode-bidi="normal" text-decoration="none" x="1270.73" y="550">and used for </tspan><tspan fill="#525252" fill-opacity="1" font-family="Intel Clear Light,Intel Clear Light_MSFontService,sans-serif" font-style="normal" font-variant="normal" font-weight="300" font-stretch="normal" font-size="92" text-anchor="start" direction="ltr" writing-mode="lr-tb" unicode-bidi="normal" text-decoration="none" x="82.5" y="660">prepending packet headers</tspan><tspan fill="#0068B5" fill-opacity="1" font-family="Wingdings,Wingdings_MSFontService,sans-serif" font-style="normal" font-variant="normal" font-weight="400" font-stretch="normal" font-size="92" text-anchor="start" direction="ltr" writing-mode="lr-tb" unicode-bidi="normal" text-decoration="none" x="0" y="825"></tspan><tspan fill="#0068B5" fill-opacity="1" font-family="Intel Clear Light,Intel Clear Light_MSFontService,sans-serif" font-style="normal" font-variant="normal" font-weight="300" font-stretch="normal" font-size="92" text-anchor="start" direction="ltr" writing-mode="lr-tb" unicode-bidi="normal" text-decoration="none" x="82.5" y="825">Mempool</tspan><tspan fill="#525252" fill-opacity="1" font-family="Intel Clear Light,Intel Clear Light_MSFontService,sans-serif" font-style="normal" font-variant="normal" font-weight="300" font-stretch="normal" font-size="92" text-anchor="start" direction="ltr" writing-mode="lr-tb" unicode-bidi="normal" text-decoration="none" x="491.563" y="825">buffers are fixed size, say 2048 </tspan><tspan fill="#525252" fill-opacity="1" font-family="Intel Clear Light,Intel Clear Light_MSFontService,sans-serif" font-style="normal" font-variant="normal" font-weight="300" font-stretch="normal" font-size="92" text-anchor="start" direction="ltr" writing-mode="lr-tb" unicode-bidi="normal" text-decoration="none" x="82.5" y="935">bytes then subtract sizeof(pktmbuf_t) = 1984 </tspan><tspan fill="#525252" fill-opacity="1" font-family="Intel Clear Light,Intel Clear Light_MSFontService,sans-serif" font-style="normal" font-variant="normal" font-weight="300" font-stretch="normal" font-size="92" text-anchor="start" direction="ltr" writing-mode="lr-tb" unicode-bidi="normal" text-decoration="none" x="82.5" y="1045">bytes for packet data</tspan><tspan fill="#0068B5" fill-opacity="1" font-family="Wingdings,Wingdings_MSFontService,sans-serif" font-style="normal" font-variant="normal" font-weight="400" font-stretch="normal" font-size="92" text-anchor="start" direction="ltr" writing-mode="lr-tb" unicode-bidi="normal" text-decoration="none" x="0" y="1210"></tspan><tspan fill="#0068B5" fill-opacity="1" font-family="Intel Clear Light,Intel Clear Light_MSFontService,sans-serif" font-style="normal" font-variant="normal" font-weight="300" font-stretch="normal" font-size="92" text-anchor="start" direction="ltr" writing-mode="lr-tb" unicode-bidi="normal" text-decoration="none" x="82.5" y="1210">Pktmbuf</tspan><tspan fill="#525252" fill-opacity="1" font-family="Intel Clear Light,Intel Clear Light_MSFontService,sans-serif" font-style="normal" font-variant="normal" font-weight="300" font-stretch="normal" font-size="92" text-anchor="start" direction="ltr" writing-mode="lr-tb" unicode-bidi="normal" text-decoration="none" x="454.323" y="1210">pools have a set of APIs to </tspan><tspan fill="#525252" fill-opacity="1" font-family="Intel Clear Light,Intel Clear Light_MSFontService,sans-serif" font-style="normal" font-variant="normal" font-weight="300" font-stretch="normal" font-size="92" text-anchor="start" direction="ltr" writing-mode="lr-tb" unicode-bidi="normal" text-decoration="none" x="82.5" y="1320">allocated/free mbufs/buffers to the </tspan><tspan fill="#0068B5" fill-opacity="1" font-family="Intel Clear Light,Intel Clear Light_MSFontService,sans-serif" font-style="normal" font-variant="normal" font-weight="300" font-stretch="normal" font-size="92" text-anchor="start" direction="ltr" writing-mode="lr-tb" unicode-bidi="normal" text-decoration="none" x="1531.41" y="1320">mempool</tspan><tspan fill="#525252" fill-opacity="1" font-family="Intel Clear Light,Intel Clear Light_MSFontService,sans-serif" font-style="normal" font-variant="normal" font-weight="300" font-stretch="normal" font-size="92" text-anchor="start" direction="ltr" writing-mode="lr-tb" unicode-bidi="normal" text-decoration="none" x="82.5" y="1430">and initialize or clear mbuf metadata</tspan></text><path d="M219.5 610.805C219.5 590.202 236.202 573.5 256.806 573.5L797.195 573.5C817.798 573.5 834.5 590.202 834.5 610.805L834.5 1543.19C834.5 1563.8 817.798 1580.5 797.195 1580.5L256.806 1580.5C236.202 1580.5 219.5 1563.8 219.5 1543.19Z" stroke="#004A84" stroke-width="9.16667" stroke-linecap="butt" stroke-linejoin="round" stroke-miterlimit="10" stroke-opacity="1" fill="#BDE3FF" fill-rule="evenodd" fill-opacity="1"/><text fill="#000000" fill-opacity="1" font-family="Intel Clear,Intel Clear_MSFontService,sans-serif" font-style="normal" font-variant="normal" font-weight="400" font-stretch="normal" font-size="64" text-anchor="start" direction="ltr" writing-mode="lr-tb" unicode-bidi="normal" text-decoration="none" transform="matrix(1 0 0 1 387.798 652)">Mempool <tspan fill="#000000" fill-opacity="1" font-family="Intel Clear,Intel Clear_MSFontService,sans-serif" font-style="normal" font-variant="normal" font-weight="400" font-stretch="normal" font-size="64" text-anchor="start" direction="ltr" writing-mode="lr-tb" unicode-bidi="normal" text-decoration="none" x="3.16251" y="69">Structure</tspan></text><path d="M219.5 1153.8C219.5 1138.72 231.721 1126.5 246.797 1126.5L807.203 1126.5C822.279 1126.5 834.5 1138.72 834.5 1153.8L834.5 1549.2C834.5 1564.28 822.279 1576.5 807.203 1576.5L246.797 1576.5C231.721 1576.5 219.5 1564.28 219.5 1549.2Z" stroke="#004A84" stroke-width="9.16667" stroke-linecap="butt" stroke-linejoin="round" stroke-miterlimit="10" stroke-opacity="1" fill="#98E9FF" fill-rule="evenodd" fill-opacity="1"/><path d="M904.5 970.654C904.5 950.687 920.686 934.5 940.654 934.5L1464.35 934.5C1484.31 934.5 1500.5 950.687 1500.5 970.654L1500.5 2180.35C1500.5 2200.31 1484.31 2216.5 1464.35 2216.5L940.654 2216.5C920.686 2216.5 904.5 2200.31 904.5 2180.35Z" stroke="#004A84" stroke-width="9.16667" stroke-linecap="butt" stroke-linejoin="round" stroke-miterlimit="10" stroke-opacity="1" fill="#F7E1D6" fill-rule="evenodd" fill-opacity="1"/><text fill="#000000" fill-opacity="1" font-family="Intel Clear,Intel Clear_MSFontService,sans-serif" font-style="normal" font-variant="normal" font-weight="400" font-stretch="normal" font-size="64" text-anchor="start" direction="ltr" writing-mode="lr-tb" unicode-bidi="normal" text-decoration="none" transform="matrix(1 0 0 1 951.69 1013)">Mempool Buffers</text><path d="M810.5 875.917 1202.26 875.917C1204.79 875.917 1206.85 877.969 1206.85 880.5L1206.85 911.507 1197.68 911.507 1197.68 880.5 1202.26 885.083 810.5 885.083ZM1216.01 906.924 1202.26 934.424 1188.51 906.924Z" fill="#0066B5" fill-rule="nonzero" fill-opacity="1"/><path d="M960.5 1206.55C960.5 1197.14 968.135 1189.5 977.554 1189.5L1437.45 1189.5C1446.86 1189.5 1454.5 1197.14 1454.5 1206.55L1454.5 1286.45C1454.5 1295.86 1446.86 1303.5 1437.45 1303.5L977.554 1303.5C968.135 1303.5 960.5 1295.86 960.5 1286.45Z" stroke="#004A84" stroke-width="9.16667" stroke-linecap="butt" stroke-linejoin="round" stroke-miterlimit="10" stroke-opacity="1" fill="#E8F0D9" fill-rule="evenodd" fill-opacity="1"/><text fill="#000000" fill-opacity="1" font-family="Intel Clear,Intel Clear_MSFontService,sans-serif" font-style="normal" font-variant="normal" font-weight="400" font-stretch="normal" font-size="64" text-anchor="start" direction="ltr" writing-mode="lr-tb" unicode-bidi="normal" text-decoration="none" transform="matrix(1 0 0 1 1118.29 1263)">Buffer</text><path d="M960.5 1333.41C960.5 1324.07 968.068 1316.5 977.405 1316.5L1437.6 1316.5C1446.93 1316.5 1454.5 1324.07 1454.5 1333.41L1454.5 1412.59C1454.5 1421.93 1446.93 1429.5 1437.6 1429.5L977.405 1429.5C968.068 1429.5 960.5 1421.93 960.5 1412.59Z" stroke="#004A84" stroke-width="9.16667" stroke-linecap="butt" stroke-linejoin="round" stroke-miterlimit="10" stroke-opacity="1" fill="#E8F0D9" fill-rule="evenodd" fill-opacity="1"/><text fill="#000000" fill-opacity="1" font-family="Intel Clear,Intel Clear_MSFontService,sans-serif" font-style="normal" font-variant="normal" font-weight="400" font-stretch="normal" font-size="64" text-anchor="start" direction="ltr" writing-mode="lr-tb" unicode-bidi="normal" text-decoration="none" transform="matrix(1 0 0 1 1118.29 1389)">Buffer</text><path d="M960.5 1459.55C960.5 1450.14 968.135 1442.5 977.554 1442.5L1437.45 1442.5C1446.86 1442.5 1454.5 1450.14 1454.5 1459.55L1454.5 1539.45C1454.5 1548.86 1446.86 1556.5 1437.45 1556.5L977.554 1556.5C968.135 1556.5 960.5 1548.86 960.5 1539.45Z" stroke="#004A84" stroke-width="9.16667" stroke-linecap="butt" stroke-linejoin="round" stroke-miterlimit="10" stroke-opacity="1" fill="#E8F0D9" fill-rule="evenodd" fill-opacity="1"/><text fill="#000000" fill-opacity="1" font-family="Intel Clear,Intel Clear_MSFontService,sans-serif" font-style="normal" font-variant="normal" font-weight="400" font-stretch="normal" font-size="64" text-anchor="start" direction="ltr" writing-mode="lr-tb" unicode-bidi="normal" text-decoration="none" transform="matrix(1 0 0 1 1118.29 1516)">Buffer</text><path d="M960.5 1586.41C960.5 1577.07 968.068 1569.5 977.405 1569.5L1437.6 1569.5C1446.93 1569.5 1454.5 1577.07 1454.5 1586.41L1454.5 1665.59C1454.5 1674.93 1446.93 1682.5 1437.6 1682.5L977.405 1682.5C968.068 1682.5 960.5 1674.93 960.5 1665.59Z" stroke="#004A84" stroke-width="9.16667" stroke-linecap="butt" stroke-linejoin="round" stroke-miterlimit="10" stroke-opacity="1" fill="#E8F0D9" fill-rule="evenodd" fill-opacity="1"/><text fill="#000000" fill-opacity="1" font-family="Intel Clear,Intel Clear_MSFontService,sans-serif" font-style="normal" font-variant="normal" font-weight="400" font-stretch="normal" font-size="64" text-anchor="start" direction="ltr" writing-mode="lr-tb" unicode-bidi="normal" text-decoration="none" transform="matrix(1 0 0 1 1118.29 1642)">Buffer</text><path d="M960.5 1712.55C960.5 1703.14 968.135 1695.5 977.554 1695.5L1437.45 1695.5C1446.86 1695.5 1454.5 1703.14 1454.5 1712.55L1454.5 1792.45C1454.5 1801.86 1446.86 1809.5 1437.45 1809.5L977.554 1809.5C968.135 1809.5 960.5 1801.86 960.5 1792.45Z" stroke="#004A84" stroke-width="9.16667" stroke-linecap="butt" stroke-linejoin="round" stroke-miterlimit="10" stroke-opacity="1" fill="#E8F0D9" fill-rule="evenodd" fill-opacity="1"/><text fill="#000000" fill-opacity="1" font-family="Intel Clear,Intel Clear_MSFontService,sans-serif" font-style="normal" font-variant="normal" font-weight="400" font-stretch="normal" font-size="64" text-anchor="start" direction="ltr" writing-mode="lr-tb" unicode-bidi="normal" text-decoration="none" transform="matrix(1 0 0 1 1118.29 1769)">Buffer</text><path d="M960.5 1839.41C960.5 1830.07 968.068 1822.5 977.405 1822.5L1437.6 1822.5C1446.93 1822.5 1454.5 1830.07 1454.5 1839.41L1454.5 1918.59C1454.5 1927.93 1446.93 1935.5 1437.6 1935.5L977.405 1935.5C968.068 1935.5 960.5 1927.93 960.5 1918.59Z" stroke="#004A84" stroke-width="9.16667" stroke-linecap="butt" stroke-linejoin="round" stroke-miterlimit="10" stroke-opacity="1" fill="#E8F0D9" fill-rule="evenodd" fill-opacity="1"/><text fill="#000000" fill-opacity="1" font-family="Intel Clear,Intel Clear_MSFontService,sans-serif" font-style="normal" font-variant="normal" font-weight="400" font-stretch="normal" font-size="64" text-anchor="start" direction="ltr" writing-mode="lr-tb" unicode-bidi="normal" text-decoration="none" transform="matrix(1 0 0 1 1118.29 1895)">Buffer</text><path d="M960.5 1965.55C960.5 1956.14 968.135 1948.5 977.554 1948.5L1437.45 1948.5C1446.86 1948.5 1454.5 1956.14 1454.5 1965.55L1454.5 2045.45C1454.5 2054.86 1446.86 2062.5 1437.45 2062.5L977.554 2062.5C968.135 2062.5 960.5 2054.86 960.5 2045.45Z" stroke="#004A84" stroke-width="9.16667" stroke-linecap="butt" stroke-linejoin="round" stroke-miterlimit="10" stroke-opacity="1" fill="#E8F0D9" fill-rule="evenodd" fill-opacity="1"/><text fill="#000000" fill-opacity="1" font-family="Intel Clear,Intel Clear_MSFontService,sans-serif" font-style="normal" font-variant="normal" font-weight="400" font-stretch="normal" font-size="64" text-anchor="start" direction="ltr" writing-mode="lr-tb" unicode-bidi="normal" text-decoration="none" transform="matrix(1 0 0 1 1118.29 2022)">Buffer</text><path d="M960.5 2092.4C960.5 2083.07 968.068 2075.5 977.405 2075.5L1437.6 2075.5C1446.93 2075.5 1454.5 2083.07 1454.5 2092.4L1454.5 2171.59C1454.5 2180.93 1446.93 2188.5 1437.6 2188.5L977.405 2188.5C968.068 2188.5 960.5 2180.93 960.5 2171.59Z" stroke="#004A84" stroke-width="9.16667" stroke-linecap="butt" stroke-linejoin="round" stroke-miterlimit="10" stroke-opacity="1" fill="#E8F0D9" fill-rule="evenodd" fill-opacity="1"/><text fill="#000000" fill-opacity="1" font-family="Intel Clear,Intel Clear_MSFontService,sans-serif" font-style="normal" font-variant="normal" font-weight="400" font-stretch="normal" font-size="64" text-anchor="start" direction="ltr" writing-mode="lr-tb" unicode-bidi="normal" text-decoration="none" transform="matrix(1 0 0 1 1118.29 2148)">Buffer</text><path d="M227.5 1662.14C227.5 1641.9 243.904 1625.5 264.138 1625.5L797.862 1625.5C818.097 1625.5 834.5 1641.9 834.5 1662.14L834.5 2192.86C834.5 2213.1 818.097 2229.5 797.862 2229.5L264.138 2229.5C243.904 2229.5 227.5 2213.1 227.5 2192.86Z" stroke="#004A84" stroke-width="9.16667" stroke-linecap="butt" stroke-linejoin="round" stroke-miterlimit="10" stroke-opacity="1" fill="#D9D9D9" fill-rule="evenodd" fill-opacity="1"/><text fill="#000000" fill-opacity="1" font-family="Intel Clear,Intel Clear_MSFontService,sans-serif" font-style="normal" font-variant="normal" font-weight="400" font-stretch="normal" font-size="64" text-anchor="start" direction="ltr" writing-mode="lr-tb" unicode-bidi="normal" text-decoration="none" transform="matrix(1 0 0 1 334.56 1705)">Lockless Ring <tspan fill="#000000" fill-opacity="1" font-family="Intel Clear,Intel Clear_MSFontService,sans-serif" font-style="normal" font-variant="normal" font-weight="400" font-stretch="normal" font-size="55" text-anchor="start" direction="ltr" writing-mode="lr-tb" unicode-bidi="normal" text-decoration="none" x="-36.0938" y="62">(Holds free buffers </tspan><tspan fill="#000000" fill-opacity="1" font-family="Intel Clear,Intel Clear_MSFontService,sans-serif" font-style="normal" font-variant="normal" font-weight="400" font-stretch="normal" font-size="55" text-anchor="start" direction="ltr" writing-mode="lr-tb" unicode-bidi="normal" text-decoration="none" x="-26.6292" y="121">not in memcache)</tspan><tspan fill="#000000" fill-opacity="1" font-family="Intel Clear,Intel Clear_MSFontService,sans-serif" font-style="normal" font-variant="normal" font-weight="400" font-stretch="normal" font-size="55" text-anchor="start" direction="ltr" writing-mode="lr-tb" unicode-bidi="normal" text-decoration="none" x="-51.2646" y="286">Size is total number </tspan><tspan fill="#000000" fill-opacity="1" font-family="Intel Clear,Intel Clear_MSFontService,sans-serif" font-style="normal" font-variant="normal" font-weight="400" font-stretch="normal" font-size="55" text-anchor="start" direction="ltr" writing-mode="lr-tb" unicode-bidi="normal" text-decoration="none" x="45.2604" y="345">of buffers in </tspan><tspan fill="#000000" fill-opacity="1" font-family="Intel Clear,Intel Clear_MSFontService,sans-serif" font-style="normal" font-variant="normal" font-weight="400" font-stretch="normal" font-size="55" text-anchor="start" direction="ltr" writing-mode="lr-tb" unicode-bidi="normal" text-decoration="none" x="76.7709" y="405">Mempool</tspan></text><path d="M0-4.58333 183.271-4.58333C185.802-4.58333 187.854-2.53131 187.854 0L187.854 1141.06C187.854 1143.59 185.802 1145.65 183.271 1145.65L32.0195 1145.65 32.0195 1136.48 183.271 1136.48 178.688 1141.06 178.688 0 183.271 4.58333 0 4.58333ZM36.6028 1154.81 9.10279 1141.06 36.6028 1127.31Z" fill="#0066B5" fill-rule="nonzero" fill-opacity="1" transform="matrix(-1 1.22465e-16 1.22465e-16 1 236.603 786.5)"/><path d="M0-4.58333 63.4192-4.58333C65.9505-4.58333 68.0025-2.53131 68.0025 0L68.0025 175.341 63.4192 170.757 103.921 170.757 103.921 179.924 63.4192 179.924C60.8879 179.924 58.8358 177.872 58.8358 175.341L58.8358 0 63.4192 4.58333 0 4.58333ZM99.3382 161.591 126.838 175.341 99.3382 189.091Z" fill="#0066B5" fill-rule="nonzero" fill-opacity="1" transform="matrix(1 0 0 -1 834.5 1927.84)"/><path d="M0-4.58333 99.7347-4.58333C102.266-4.58333 104.318-2.53131 104.318 0L104.318 376.943C104.318 379.474 102.266 381.526 99.7347 381.526L40.1496 381.526 40.1496 372.36 99.7347 372.36 95.1514 376.943 95.1514 0 99.7347 4.58333 0 4.58333ZM44.733 390.693 17.233 376.943 44.733 363.193Z" fill="#0066B5" fill-rule="nonzero" fill-opacity="1" transform="matrix(-1 1.22465e-16 1.22465e-16 1 236.733 974.5)"/><path d="M236.5 754.263C236.5 746.662 242.662 740.5 250.263 740.5L796.737 740.5C804.338 740.5 810.5 746.662 810.5 754.263L810.5 818.737C810.5 826.338 804.338 832.5 796.737 832.5L250.263 832.5C242.662 832.5 236.5 826.338 236.5 818.737Z" stroke="#004A84" stroke-width="9.16667" stroke-linecap="butt" stroke-linejoin="round" stroke-miterlimit="10" stroke-opacity="1" fill="#E8F0D9" fill-rule="evenodd" fill-opacity="1"/><text fill="#000000" fill-opacity="1" font-family="Intel Clear,Intel Clear_MSFontService,sans-serif" font-style="normal" font-variant="normal" font-weight="400" font-stretch="normal" font-size="64" text-anchor="start" direction="ltr" writing-mode="lr-tb" unicode-bidi="normal" text-decoration="none" transform="matrix(1 0 0 1 273.491 813)">*objring</text><path d="M236.5 848.263C236.5 840.662 242.662 834.5 250.263 834.5L796.737 834.5C804.338 834.5 810.5 840.662 810.5 848.263L810.5 912.737C810.5 920.339 804.338 926.501 796.737 926.501L250.263 926.501C242.662 926.501 236.5 920.339 236.5 912.737Z" stroke="#004A84" stroke-width="9.16667" stroke-linecap="butt" stroke-linejoin="round" stroke-miterlimit="10" stroke-opacity="1" fill="#E8F0D9" fill-rule="evenodd" fill-opacity="1"/><text fill="#000000" fill-opacity="1" font-family="Intel Clear,Intel Clear_MSFontService,sans-serif" font-style="normal" font-variant="normal" font-weight="400" font-stretch="normal" font-size="64" text-anchor="start" direction="ltr" writing-mode="lr-tb" unicode-bidi="normal" text-decoration="none" transform="matrix(1 0 0 1 273.491 907)">*objmem</text><path d="M236.5 942.263C236.5 934.662 242.662 928.5 250.263 928.5L796.737 928.5C804.338 928.5 810.5 934.662 810.5 942.263L810.5 1006.74C810.5 1014.34 804.338 1020.5 796.737 1020.5L250.263 1020.5C242.662 1020.5 236.5 1014.34 236.5 1006.74Z" stroke="#004A84" stroke-width="9.16667" stroke-linecap="butt" stroke-linejoin="round" stroke-miterlimit="10" stroke-opacity="1" fill="#E8F0D9" fill-rule="evenodd" fill-opacity="1"/><text fill="#000000" fill-opacity="1" font-family="Intel Clear,Intel Clear_MSFontService,sans-serif" font-style="normal" font-variant="normal" font-weight="400" font-stretch="normal" font-size="64" text-anchor="start" direction="ltr" writing-mode="lr-tb" unicode-bidi="normal" text-decoration="none" transform="matrix(1 0 0 1 273.491 1001)">*cache</text><path d="M236.5 1036.26C236.5 1028.66 242.662 1022.5 250.263 1022.5L796.737 1022.5C804.338 1022.5 810.5 1028.66 810.5 1036.26L810.5 1100.74C810.5 1108.34 804.338 1114.5 796.737 1114.5L250.263 1114.5C242.662 1114.5 236.5 1108.34 236.5 1100.74Z" stroke="#004A84" stroke-width="9.16667" stroke-linecap="butt" stroke-linejoin="round" stroke-miterlimit="10" stroke-opacity="1" fill="#E8F0D9" fill-rule="evenodd" fill-opacity="1"/><text fill="#000000" fill-opacity="1" font-family="Intel Clear,Intel Clear_MSFontService,sans-serif" font-style="normal" font-variant="normal" font-weight="400" font-stretch="normal" font-size="64" text-anchor="start" direction="ltr" writing-mode="lr-tb" unicode-bidi="normal" text-decoration="none" transform="matrix(1 0 0 1 273.491 1095)">memcache_sz</text><path d="M1678.5 953.84C1678.5 934.322 1694.32 918.5 1713.84 918.5L2206.16 918.5C2225.68 918.5 2241.5 934.322 2241.5 953.84L2241.5 2067.16C2241.5 2086.68 2225.68 2102.5 2206.16 2102.5L1713.84 2102.5C1694.32 2102.5 1678.5 2086.68 1678.5 2067.16Z" stroke="#004A84" stroke-width="9.16667" stroke-linecap="butt" stroke-linejoin="round" stroke-miterlimit="10" stroke-opacity="1" fill="#E8F0D9" fill-rule="evenodd" fill-opacity="1"/><path d="M1454.5 1494.92 1566.52 1494.92C1569.05 1494.92 1571.1 1496.97 1571.1 1499.5L1571.1 1510.47 1566.52 1505.89 1655.62 1505.89 1655.62 1515.06 1566.52 1515.06C1563.99 1515.06 1561.94 1513 1561.94 1510.47L1561.94 1499.5 1566.52 1504.08 1454.5 1504.08ZM1651.04 1496.72 1678.54 1510.47 1651.04 1524.22Z" fill="#0066B5" fill-rule="nonzero" fill-opacity="1"/><path d="M1707.5 964.554C1707.5 955.135 1715.14 947.5 1724.55 947.5L2202.45 947.5C2211.86 947.5 2219.5 955.135 2219.5 964.554L2219.5 1044.45C2219.5 1053.86 2211.86 1061.5 2202.45 1061.5L1724.55 1061.5C1715.14 1061.5 1707.5 1053.86 1707.5 1044.45Z" stroke="#004A84" stroke-width="9.16667" stroke-linecap="butt" stroke-linejoin="round" stroke-miterlimit="10" stroke-opacity="1" fill="#E8A583" fill-rule="evenodd" fill-opacity="1"/><text fill="#000000" fill-opacity="1" font-family="Intel Clear,Intel Clear_MSFontService,sans-serif" font-style="normal" font-variant="normal" font-weight="400" font-stretch="normal" font-size="55" text-anchor="start" direction="ltr" writing-mode="lr-tb" unicode-bidi="normal" text-decoration="none" transform="matrix(1 0 0 1 1833 1014)">pktmbuf_t</text><path d="M1708.5 1080.21C1708.5 1069.88 1716.88 1061.5 1727.21 1061.5L2201.79 1061.5C2212.12 1061.5 2220.5 1069.88 2220.5 1080.21L2220.5 2056.79C2220.5 2067.12 2212.12 2075.5 2201.79 2075.5L1727.21 2075.5C1716.88 2075.5 1708.5 2067.12 1708.5 2056.79Z" stroke="#004A84" stroke-width="9.16667" stroke-linecap="butt" stroke-linejoin="round" stroke-miterlimit="10" stroke-opacity="1" fill="#F2F2F2" fill-rule="evenodd" fill-opacity="1"/><text fill="#000000" fill-opacity="1" font-family="Intel Clear,Intel Clear_MSFontService,sans-serif" font-style="normal" font-variant="normal" font-weight="400" font-stretch="normal" font-size="64" text-anchor="start" direction="ltr" writing-mode="lr-tb" unicode-bidi="normal" text-decoration="none" transform="matrix(1 0 0 1 1792.3 1135)">Packet Data</text><path d="M1732.5 1197.99C1732.5 1185.02 1743.02 1174.5 1755.99 1174.5L2178.01 1174.5C2190.98 1174.5 2201.5 1185.02 2201.5 1197.99L2201.5 1470.01C2201.5 1482.98 2190.98 1493.5 2178.01 1493.5L1755.99 1493.5C1743.02 1493.5 1732.5 1482.98 1732.5 1470.01Z" stroke="#004A84" stroke-width="9.16667" stroke-linecap="butt" stroke-linejoin="round" stroke-miterlimit="10" stroke-opacity="1" fill="#E8A583" fill-rule="evenodd" fill-opacity="1"/><text fill="#000000" fill-opacity="1" font-family="Intel Clear,Intel Clear_MSFontService,sans-serif" font-style="normal" font-variant="normal" font-weight="400" font-stretch="normal" font-size="64" text-anchor="start" direction="ltr" writing-mode="lr-tb" unicode-bidi="normal" text-decoration="none" transform="matrix(1 0 0 1 1812.46 1249)">Headroom <tspan fill="#000000" fill-opacity="1" font-family="Intel Clear,Intel Clear_MSFontService,sans-serif" font-style="normal" font-variant="normal" font-weight="400" font-stretch="normal" font-size="46" text-anchor="start" direction="ltr" writing-mode="lr-tb" unicode-bidi="normal" text-decoration="none" x="8.59375" y="54">(normally 192 </tspan><tspan fill="#000000" fill-opacity="1" font-family="Intel Clear,Intel Clear_MSFontService,sans-serif" font-style="normal" font-variant="normal" font-weight="400" font-stretch="normal" font-size="46" text-anchor="start" direction="ltr" writing-mode="lr-tb" unicode-bidi="normal" text-decoration="none" x="91.0938" y="104">bytes)</tspan></text><path d="M1732.5 1524.37C1732.5 1506.77 1746.77 1492.5 1764.37 1492.5L2169.63 1492.5C2187.23 1492.5 2201.5 1506.77 2201.5 1524.37L2201.5 2015.63C2201.5 2033.23 2187.23 2047.5 2169.63 2047.5L1764.37 2047.5C1746.77 2047.5 1732.5 2033.23 1732.5 2015.63Z" stroke="#004A84" stroke-width="9.16667" stroke-linecap="butt" stroke-linejoin="round" stroke-miterlimit="10" stroke-opacity="1" fill="#CCF4FF" fill-rule="evenodd" fill-opacity="1"/><text fill="#000000" fill-opacity="1" font-family="Intel Clear,Intel Clear_MSFontService,sans-serif" font-style="normal" font-variant="normal" font-weight="400" font-stretch="normal" font-size="64" text-anchor="start" direction="ltr" writing-mode="lr-tb" unicode-bidi="normal" text-decoration="none" transform="matrix(1 0 0 1 1795.84 1570)">Packet start<tspan fill="#000000" fill-opacity="1" font-family="Intel Clear,Intel Clear_MSFontService,sans-serif" font-style="normal" font-variant="normal" font-weight="400" font-stretch="normal" font-size="83" text-anchor="start" direction="ltr" writing-mode="lr-tb" unicode-bidi="normal" text-decoration="none" x="22.463" y="-686">pktmbuf</tspan><tspan fill="#525252" fill-opacity="1" font-family="Intel Clear,Intel Clear_MSFontService,sans-serif" font-style="normal" font-variant="normal" font-weight="400" font-stretch="normal" font-size="64" text-anchor="start" direction="ltr" writing-mode="lr-tb" unicode-bidi="normal" text-decoration="none" x="-1424.67" y="-337">Memcache</tspan><tspan fill="#525252" fill-opacity="1" font-family="Intel Clear,Intel Clear_MSFontService,sans-serif" font-style="normal" font-variant="normal" font-weight="400" font-stretch="normal" font-size="64" text-anchor="start" direction="ltr" writing-mode="lr-tb" unicode-bidi="normal" text-decoration="none" x="-1523.79" y="-183">One per thread (if </tspan><tspan fill="#525252" fill-opacity="1" font-family="Intel Clear,Intel Clear_MSFontService,sans-serif" font-style="normal" font-variant="normal" font-weight="400" font-stretch="normal" font-size="64" text-anchor="start" direction="ltr" writing-mode="lr-tb" unicode-bidi="normal" text-decoration="none" x="-1528.07" y="-106">memcache_sz</tspan><tspan fill="#525252" fill-opacity="1" font-family="Intel Clear,Intel Clear_MSFontService,sans-serif" font-style="normal" font-variant="normal" font-weight="400" font-stretch="normal" font-size="64" text-anchor="start" direction="ltr" writing-mode="lr-tb" unicode-bidi="normal" text-decoration="none" x="-1119.58" y="-106">&gt; 0)</tspan></text></g></svg>
