<!-- SPDX-License-Identifier: BSD-3-Clause -->
<!-- Copyright (c) 2010-2022 Intel Corporation -->
<svg width="4313" height="1833" xmlns="http://www.w3.org/2000/svg" xmlns:xlink="http://www.w3.org/1999/xlink" overflow="hidden"><defs><clipPath id="clip0"><rect x="18" y="440" width="4313" height="1833"/></clipPath></defs><g clip-path="url(#clip0)" transform="translate(-18 -440)"><text fill="#525252" fill-opacity="1" font-family="Wingdings,Wingdings_MSFontService,sans-serif" font-style="normal" font-variant="normal" font-weight="400" font-stretch="normal" font-size="92" text-anchor="start" direction="ltr" writing-mode="lr-tb" unicode-bidi="normal" text-decoration="none" transform="matrix(1 0 0 1 2012.35 592)"><tspan fill="#525252" fill-opacity="1" font-family="Intel Clear Light,Intel Clear Light_MSFontService,sans-serif" font-style="normal" font-variant="normal" font-weight="300" font-stretch="normal" font-size="92" text-anchor="start" direction="ltr" writing-mode="lr-tb" unicode-bidi="normal" text-decoration="none" x="82.4999" y="0">RX side of PMD will pass the address (or offset) of the </tspan><tspan fill="#525252" fill-opacity="1" font-family="Intel Clear Light,Intel Clear Light_MSFontService,sans-serif" font-style="normal" font-variant="normal" font-weight="300" font-stretch="normal" font-size="92" text-anchor="start" direction="ltr" writing-mode="lr-tb" unicode-bidi="normal" text-decoration="none" x="82.4999" y="110">mbuf header to the Fill Queue</tspan><tspan fill="#525252" fill-opacity="1" font-family="Arial,Arial_MSFontService,sans-serif" font-style="normal" font-variant="normal" font-weight="400" font-stretch="normal" font-size="83" text-anchor="start" direction="ltr" writing-mode="lr-tb" unicode-bidi="normal" text-decoration="none" x="82.4999" y="266">•</tspan><tspan fill="#525252" fill-opacity="1" font-family="Intel Clear Light,Intel Clear Light_MSFontService,sans-serif" font-style="normal" font-variant="normal" font-weight="300" font-stretch="normal" font-size="83" text-anchor="start" direction="ltr" writing-mode="lr-tb" unicode-bidi="normal" text-decoration="none" x="155.833" y="266">This address is the start of the buffer being used</tspan><tspan fill="#525252" fill-opacity="1" font-family="Wingdings,Wingdings_MSFontService,sans-serif" font-style="normal" font-variant="normal" font-weight="400" font-stretch="normal" font-size="92" text-anchor="start" direction="ltr" writing-mode="lr-tb" unicode-bidi="normal" text-decoration="none" x="0" y="429"></tspan><tspan fill="#525252" fill-opacity="1" font-family="Intel Clear Light,Intel Clear Light_MSFontService,sans-serif" font-style="normal" font-variant="normal" font-weight="300" font-stretch="normal" font-size="92" text-anchor="start" direction="ltr" writing-mode="lr-tb" unicode-bidi="normal" text-decoration="none" x="82.4999" y="429">RX packet data is places at the following address</tspan><tspan fill="#525252" fill-opacity="1" font-family="Arial,Arial_MSFontService,sans-serif" font-style="normal" font-variant="normal" font-weight="400" font-stretch="normal" font-size="83" text-anchor="start" direction="ltr" writing-mode="lr-tb" unicode-bidi="normal" text-decoration="none" x="82.4999" y="585">•</tspan><tspan fill="#525252" fill-opacity="1" font-family="Intel Clear Light,Intel Clear Light_MSFontService,sans-serif" font-style="normal" font-variant="normal" font-weight="300" font-stretch="normal" font-size="83" text-anchor="start" direction="ltr" writing-mode="lr-tb" unicode-bidi="normal" text-decoration="none" x="155.833" y="585">addr = (char *)mbuf + sizeof(pktmbuf_t);</tspan><tspan fill="#525252" fill-opacity="1" font-family="Arial,Arial_MSFontService,sans-serif" font-style="normal" font-variant="normal" font-weight="400" font-stretch="normal" font-size="83" text-anchor="start" direction="ltr" writing-mode="lr-tb" unicode-bidi="normal" text-decoration="none" x="82.4999" y="739">•</tspan><tspan fill="#525252" fill-opacity="1" font-family="Intel Clear Light,Intel Clear Light_MSFontService,sans-serif" font-style="normal" font-variant="normal" font-weight="300" font-stretch="normal" font-size="83" text-anchor="start" direction="ltr" writing-mode="lr-tb" unicode-bidi="normal" text-decoration="none" x="155.833" y="739">addr += XDP_PACKET_HEADROOM;</tspan><tspan fill="#525252" fill-opacity="1" font-family="Arial,Arial_MSFontService,sans-serif" font-style="normal" font-variant="normal" font-weight="400" font-stretch="normal" font-size="83" text-anchor="start" direction="ltr" writing-mode="lr-tb" unicode-bidi="normal" text-decoration="none" x="82.4999" y="893">•</tspan><tspan fill="#525252" fill-opacity="1" font-family="Intel Clear Light,Intel Clear Light_MSFontService,sans-serif" font-style="normal" font-variant="normal" font-weight="300" font-stretch="normal" font-size="83" text-anchor="start" direction="ltr" writing-mode="lr-tb" unicode-bidi="normal" text-decoration="none" x="155.833" y="893">addr += xdp_umem.head_room; // (normally zero)</tspan><tspan fill="#525252" fill-opacity="1" font-family="Wingdings,Wingdings_MSFontService,sans-serif" font-style="normal" font-variant="normal" font-weight="400" font-stretch="normal" font-size="92" text-anchor="start" direction="ltr" writing-mode="lr-tb" unicode-bidi="normal" text-decoration="none" x="0" y="1056"></tspan><tspan fill="#525252" fill-opacity="1" font-family="Intel Clear Light,Intel Clear Light_MSFontService,sans-serif" font-style="normal" font-variant="normal" font-weight="300" font-stretch="normal" font-size="92" text-anchor="start" direction="ltr" writing-mode="lr-tb" unicode-bidi="normal" text-decoration="none" x="82.4999" y="1056">RX Ring returns packet offset address</tspan><tspan fill="#525252" fill-opacity="1" font-family="Arial,Arial_MSFontService,sans-serif" font-style="normal" font-variant="normal" font-weight="400" font-stretch="normal" font-size="83" text-anchor="start" direction="ltr" writing-mode="lr-tb" unicode-bidi="normal" text-decoration="none" x="82.4999" y="1212">•</tspan><tspan fill="#525252" fill-opacity="1" font-family="Intel Clear Light,Intel Clear Light_MSFontService,sans-serif" font-style="normal" font-variant="normal" font-weight="300" font-stretch="normal" font-size="83" text-anchor="start" direction="ltr" writing-mode="lr-tb" unicode-bidi="normal" text-decoration="none" x="155.833" y="1212">Need to subtract off the XDP_PACKET_HEADROOM to </tspan><tspan fill="#525252" fill-opacity="1" font-family="Intel Clear Light,Intel Clear Light_MSFontService,sans-serif" font-style="normal" font-variant="normal" font-weight="300" font-stretch="normal" font-size="83" text-anchor="start" direction="ltr" writing-mode="lr-tb" unicode-bidi="normal" text-decoration="none" x="155.833" y="1311">get access to mbuf </tspan></text><path d="M340.5 655.543C340.5 640.607 352.608 628.5 367.543 628.5L1110.46 628.5C1125.39 628.5 1137.5 640.607 1137.5 655.543L1137.5 2241.46C1137.5 2256.39 1125.39 2268.5 1110.46 2268.5L367.543 2268.5C352.608 2268.5 340.5 2256.39 340.5 2241.46Z" stroke="#004A84" stroke-width="9.16667" stroke-linecap="butt" stroke-linejoin="round" stroke-miterlimit="10" stroke-opacity="1" fill="#F2F2F2" fill-rule="evenodd" fill-opacity="1"/><path d="M331.5 2251.5C310.513 2251.5 293.5 2248.66 293.5 2245.17L293.5 1446.33C293.5 1442.84 276.487 1440 255.5 1440 276.487 1440 293.5 1437.16 293.5 1433.67L293.5 634.833C293.5 631.335 310.513 628.5 331.5 628.5" stroke="#0066B5" stroke-width="3.4375" stroke-linecap="butt" stroke-linejoin="round" stroke-miterlimit="10" stroke-opacity="1" fill="none" fill-rule="evenodd"/><text fill="#000000" fill-opacity="1" font-family="Intel Clear,Intel Clear_MSFontService,sans-serif" font-style="normal" font-variant="normal" font-weight="400" font-stretch="normal" font-size="64" text-anchor="start" direction="ltr" writing-mode="lr-tb" unicode-bidi="normal" text-decoration="none" transform="matrix(-1.83697e-16 -1 1 -1.83697e-16 192.093 1751)">mempool object size</text><path d="M364.5 678.668C364.5 662.007 378.006 648.5 394.667 648.5L1096.33 648.5C1112.99 648.5 1126.5 662.007 1126.5 678.668L1126.5 799.332C1126.5 815.993 1112.99 829.5 1096.33 829.5L394.667 829.5C378.006 829.5 364.5 815.993 364.5 799.332Z" stroke="#004A84" stroke-width="9.16667" stroke-linecap="butt" stroke-linejoin="round" stroke-miterlimit="10" stroke-opacity="1" fill="#BDE3FF" fill-rule="evenodd" fill-opacity="1"/><text fill="#000000" fill-opacity="1" font-family="Intel Clear,Intel Clear_MSFontService,sans-serif" font-style="normal" font-variant="normal" font-weight="400" font-stretch="normal" font-size="55" text-anchor="start" direction="ltr" writing-mode="lr-tb" unicode-bidi="normal" text-decoration="none" transform="matrix(1 0 0 1 462.412 754)">MBUF header 64 bytes</text><path d="M364.5 857.374C364.5 841.98 376.979 829.5 392.374 829.5L1098.63 829.5C1114.02 829.5 1126.5 841.98 1126.5 857.374L1126.5 2223.63C1126.5 2239.02 1114.02 2251.5 1098.63 2251.5L392.374 2251.5C376.979 2251.5 364.5 2239.02 364.5 2223.63Z" stroke="#004A84" stroke-width="9.16667" stroke-linecap="butt" stroke-linejoin="round" stroke-miterlimit="10" stroke-opacity="1" fill="#BFBFBF" fill-rule="evenodd" fill-opacity="1"/><text fill="#000000" fill-opacity="1" font-family="Intel Clear,Intel Clear_MSFontService,sans-serif" font-style="normal" font-variant="normal" font-weight="400" font-stretch="normal" font-size="55" text-anchor="start" direction="ltr" writing-mode="lr-tb" unicode-bidi="normal" text-decoration="none" transform="matrix(1 0 0 1 436.917 1341)">Packet data starts at 256 <tspan fill="#000000" fill-opacity="1" font-family="Intel Clear,Intel Clear_MSFontService,sans-serif" font-style="normal" font-variant="normal" font-weight="400" font-stretch="normal" font-size="55" text-anchor="start" direction="ltr" writing-mode="lr-tb" unicode-bidi="normal" text-decoration="none" x="11.7333" y="59">bytes offset from buffer </tspan><tspan fill="#000000" fill-opacity="1" font-family="Intel Clear,Intel Clear_MSFontService,sans-serif" font-style="normal" font-variant="normal" font-weight="400" font-stretch="normal" font-size="49" text-anchor="start" direction="ltr" writing-mode="lr-tb" unicode-bidi="normal" text-decoration="none" x="9.16666" y="113">XDP_PACKET_HEADROOM</tspan></text><path d="M386.5 873.729C386.5 855.377 401.377 840.5 419.729 840.5L1071.27 840.5C1089.62 840.5 1104.5 855.377 1104.5 873.729L1104.5 1170.27C1104.5 1188.62 1089.62 1203.5 1071.27 1203.5L419.729 1203.5C401.377 1203.5 386.5 1188.62 386.5 1170.27Z" stroke="#004A84" stroke-width="9.16667" stroke-linecap="butt" stroke-linejoin="round" stroke-miterlimit="10" stroke-opacity="1" fill="#F7E1D6" fill-rule="evenodd" fill-opacity="1"/><text fill="#000000" fill-opacity="1" font-family="Intel Clear,Intel Clear_MSFontService,sans-serif" font-style="normal" font-variant="normal" font-weight="400" font-stretch="normal" font-size="55" text-anchor="start" direction="ltr" writing-mode="lr-tb" unicode-bidi="normal" text-decoration="none" transform="matrix(1 0 0 1 478.738 1007)">MBUF headroom 192 <tspan fill="#000000" fill-opacity="1" font-family="Intel Clear,Intel Clear_MSFontService,sans-serif" font-style="normal" font-variant="normal" font-weight="400" font-stretch="normal" font-size="55" text-anchor="start" direction="ltr" writing-mode="lr-tb" unicode-bidi="normal" text-decoration="none" x="197.931" y="59">bytes</tspan></text><path d="M282.5 1180.5C266.76 1180.5 254 1178.37 254 1175.75L254 907.75C254 905.127 241.24 903 225.499 903 241.24 903 254 900.873 254 898.25L254 630.25C254 627.627 266.76 625.5 282.5 625.5" stroke="#0066B5" stroke-width="3.4375" stroke-linecap="butt" stroke-linejoin="round" stroke-miterlimit="10" stroke-opacity="1" fill="none" fill-rule="evenodd"/><text fill="#000000" fill-opacity="1" font-family="Intel Clear,Intel Clear_MSFontService,sans-serif" font-style="normal" font-variant="normal" font-weight="400" font-stretch="normal" font-size="64" text-anchor="start" direction="ltr" writing-mode="lr-tb" unicode-bidi="normal" text-decoration="none" transform="matrix(-1.83697e-16 -1 1 -1.83697e-16 98.7219 1295)">XDP_PACKET_HEADROOM <tspan fill="#000000" fill-opacity="1" font-family="Intel Clear,Intel Clear_MSFontService,sans-serif" font-style="normal" font-variant="normal" font-weight="400" font-stretch="normal" font-size="64" text-anchor="start" direction="ltr" writing-mode="lr-tb" unicode-bidi="normal" text-decoration="none" x="248" y="69">256 bytes</tspan></text><path d="M1203.5 783.64C1203.5 759.262 1223.26 739.5 1247.64 739.5L1876.36 739.5C1900.74 739.5 1920.5 759.262 1920.5 783.64L1920.5 1364.36C1920.5 1388.74 1900.74 1408.5 1876.36 1408.5L1247.64 1408.5C1223.26 1408.5 1203.5 1388.74 1203.5 1364.36Z" stroke="#004A84" stroke-width="9.16667" stroke-linecap="butt" stroke-linejoin="round" stroke-miterlimit="10" stroke-opacity="1" fill="#F7E1D6" fill-rule="evenodd" fill-opacity="1"/><text fill="#000000" fill-opacity="1" font-family="Intel Clear,Intel Clear_MSFontService,sans-serif" font-style="normal" font-variant="normal" font-weight="400" font-stretch="normal" font-size="55" text-anchor="start" direction="ltr" writing-mode="lr-tb" unicode-bidi="normal" text-decoration="none" transform="matrix(1 0 0 1 1435.4 814)">Fill Queue</text><path d="M1242.5 939.167C1242.5 929.962 1249.96 922.5 1259.17 922.5L1864.83 922.5C1874.04 922.5 1881.5 929.962 1881.5 939.167L1881.5 1005.83C1881.5 1015.04 1874.04 1022.5 1864.83 1022.5L1259.17 1022.5C1249.96 1022.5 1242.5 1015.04 1242.5 1005.83Z" stroke="#004A84" stroke-width="9.16667" stroke-linecap="butt" stroke-linejoin="round" stroke-miterlimit="10" stroke-opacity="1" fill="#BDE3FF" fill-rule="evenodd" fill-opacity="1"/><text fill="#000000" fill-opacity="1" font-family="Intel Clear,Intel Clear_MSFontService,sans-serif" font-style="normal" font-variant="normal" font-weight="400" font-stretch="normal" font-size="55" text-anchor="start" direction="ltr" writing-mode="lr-tb" unicode-bidi="normal" text-decoration="none" transform="matrix(1 0 0 1 1415.64 987)">Fill Address</text><path d="M1242.5 1051.33C1242.5 1042.04 1250.04 1034.5 1259.33 1034.5L1864.67 1034.5C1873.96 1034.5 1881.5 1042.04 1881.5 1051.33L1881.5 1118.67C1881.5 1127.96 1873.96 1135.5 1864.67 1135.5L1259.33 1135.5C1250.04 1135.5 1242.5 1127.96 1242.5 1118.67Z" stroke="#004A84" stroke-width="9.16667" stroke-linecap="butt" stroke-linejoin="round" stroke-miterlimit="10" stroke-opacity="1" fill="#BDE3FF" fill-rule="evenodd" fill-opacity="1"/><text fill="#000000" fill-opacity="1" font-family="Intel Clear,Intel Clear_MSFontService,sans-serif" font-style="normal" font-variant="normal" font-weight="400" font-stretch="normal" font-size="55" text-anchor="start" direction="ltr" writing-mode="lr-tb" unicode-bidi="normal" text-decoration="none" transform="matrix(1 0 0 1 1415.64 1100)">Fill Address</text><path d="M1242.5 1277.17C1242.5 1267.96 1249.96 1260.5 1259.17 1260.5L1864.83 1260.5C1874.04 1260.5 1881.5 1267.96 1881.5 1277.17L1881.5 1343.83C1881.5 1353.04 1874.04 1360.5 1864.83 1360.5L1259.17 1360.5C1249.96 1360.5 1242.5 1353.04 1242.5 1343.83Z" stroke="#004A84" stroke-width="9.16667" stroke-linecap="butt" stroke-linejoin="round" stroke-miterlimit="10" stroke-opacity="1" fill="#BDE3FF" fill-rule="evenodd" fill-opacity="1"/><text fill="#000000" fill-opacity="1" font-family="Intel Clear,Intel Clear_MSFontService,sans-serif" font-style="normal" font-variant="normal" font-weight="400" font-stretch="normal" font-size="55" text-anchor="start" direction="ltr" writing-mode="lr-tb" unicode-bidi="normal" text-decoration="none" transform="matrix(1 0 0 1 1415.64 1325)">Fill Address</text><path d="M1242.5 1164.17C1242.5 1154.96 1249.96 1147.5 1259.17 1147.5L1864.83 1147.5C1874.04 1147.5 1881.5 1154.96 1881.5 1164.17L1881.5 1230.83C1881.5 1240.04 1874.04 1247.5 1864.83 1247.5L1259.17 1247.5C1249.96 1247.5 1242.5 1240.04 1242.5 1230.83Z" stroke="#004A84" stroke-width="9.16667" stroke-linecap="butt" stroke-linejoin="round" stroke-miterlimit="10" stroke-opacity="1" fill="#BDE3FF" fill-rule="evenodd" fill-opacity="1"/><text fill="#000000" fill-opacity="1" font-family="Intel Clear,Intel Clear_MSFontService,sans-serif" font-style="normal" font-variant="normal" font-weight="400" font-stretch="normal" font-size="55" text-anchor="start" direction="ltr" writing-mode="lr-tb" unicode-bidi="normal" text-decoration="none" transform="matrix(1 0 0 1 1415.64 1212)">Fill Address</text><path d="M1076 768.541 1231.18 952.15 1224.18 958.067 1069 774.458ZM1235.23 942.733 1242.48 972.612 1214.22 960.484Z" fill="#0066B5" fill-rule="nonzero" fill-opacity="1"/><path d="M1203.5 1536.81C1203.5 1510.68 1224.68 1489.5 1250.81 1489.5L1873.19 1489.5C1899.32 1489.5 1920.5 1510.68 1920.5 1536.81L1920.5 2205.19C1920.5 2231.32 1899.32 2252.5 1873.19 2252.5L1250.81 2252.5C1224.68 2252.5 1203.5 2231.32 1203.5 2205.19Z" stroke="#004A84" stroke-width="9.16667" stroke-linecap="butt" stroke-linejoin="round" stroke-miterlimit="10" stroke-opacity="1" fill="#D1E0B3" fill-rule="evenodd" fill-opacity="1"/><text fill="#000000" fill-opacity="1" font-family="Intel Clear,Intel Clear_MSFontService,sans-serif" font-style="normal" font-variant="normal" font-weight="400" font-stretch="normal" font-size="55" text-anchor="start" direction="ltr" writing-mode="lr-tb" unicode-bidi="normal" text-decoration="none" transform="matrix(1 0 0 1 1465.2 1564)">RX Ring</text><path d="M1242.5 1716.33C1242.5 1691.57 1262.57 1671.5 1287.33 1671.5L1836.67 1671.5C1861.43 1671.5 1881.5 1691.57 1881.5 1716.33L1881.5 1895.67C1881.5 1920.43 1861.43 1940.5 1836.67 1940.5L1287.33 1940.5C1262.57 1940.5 1242.5 1920.43 1242.5 1895.67Z" stroke="#004A84" stroke-width="9.16667" stroke-linecap="butt" stroke-linejoin="round" stroke-miterlimit="10" stroke-opacity="1" fill="#BDE3FF" fill-rule="evenodd" fill-opacity="1"/><path d="M1242.5 2000.33C1242.5 1975.57 1262.57 1955.5 1287.33 1955.5L1836.67 1955.5C1861.43 1955.5 1881.5 1975.57 1881.5 2000.33L1881.5 2179.67C1881.5 2204.43 1861.43 2224.5 1836.67 2224.5L1287.33 2224.5C1262.57 2224.5 1242.5 2204.43 1242.5 2179.67Z" stroke="#004A84" stroke-width="9.16667" stroke-linecap="butt" stroke-linejoin="round" stroke-miterlimit="10" stroke-opacity="1" fill="#BDE3FF" fill-rule="evenodd" fill-opacity="1"/><path d="M1287.93 1714.48 877.262 1250.7 884.124 1244.62 1294.79 1708.4ZM873.436 1260.2 865.5 1230.5 894.025 1241.97Z" fill="#0066B5" fill-rule="nonzero" fill-opacity="1"/><text fill="#525252" fill-opacity="1" font-family="Intel Clear,Intel Clear_MSFontService,sans-serif" font-style="normal" font-variant="normal" font-weight="400" font-stretch="normal" font-size="55" text-anchor="start" direction="ltr" writing-mode="lr-tb" unicode-bidi="normal" text-decoration="none" transform="matrix(1 0 0 1 1307.76 1766)">Rx Descriptor<tspan fill="#525252" fill-opacity="1" font-family="Intel Clear,Intel Clear_MSFontService,sans-serif" font-style="normal" font-variant="normal" font-weight="400" font-stretch="normal" font-size="55" text-anchor="start" direction="ltr" writing-mode="lr-tb" unicode-bidi="normal" text-decoration="none" x="0" y="66">-</tspan><tspan fill="#525252" fill-opacity="1" font-family="Intel Clear,Intel Clear_MSFontService,sans-serif" font-style="normal" font-variant="normal" font-weight="400" font-stretch="normal" font-size="55" text-anchor="start" direction="ltr" writing-mode="lr-tb" unicode-bidi="normal" text-decoration="none" x="34.9479" y="66">Address</tspan><tspan fill="#525252" fill-opacity="1" font-family="Intel Clear,Intel Clear_MSFontService,sans-serif" font-style="normal" font-variant="normal" font-weight="400" font-stretch="normal" font-size="55" text-anchor="start" direction="ltr" writing-mode="lr-tb" unicode-bidi="normal" text-decoration="none" x="0" y="132">-</tspan><tspan fill="#525252" fill-opacity="1" font-family="Intel Clear,Intel Clear_MSFontService,sans-serif" font-style="normal" font-variant="normal" font-weight="400" font-stretch="normal" font-size="55" text-anchor="start" direction="ltr" writing-mode="lr-tb" unicode-bidi="normal" text-decoration="none" x="34.9479" y="132">Length</tspan><tspan fill="#525252" fill-opacity="1" font-family="Intel Clear,Intel Clear_MSFontService,sans-serif" font-style="normal" font-variant="normal" font-weight="400" font-stretch="normal" font-size="55" text-anchor="start" direction="ltr" writing-mode="lr-tb" unicode-bidi="normal" text-decoration="none" x="0" y="286">Rx Descriptor</tspan><tspan fill="#525252" fill-opacity="1" font-family="Intel Clear,Intel Clear_MSFontService,sans-serif" font-style="normal" font-variant="normal" font-weight="400" font-stretch="normal" font-size="55" text-anchor="start" direction="ltr" writing-mode="lr-tb" unicode-bidi="normal" text-decoration="none" x="0" y="352">-</tspan><tspan fill="#525252" fill-opacity="1" font-family="Intel Clear,Intel Clear_MSFontService,sans-serif" font-style="normal" font-variant="normal" font-weight="400" font-stretch="normal" font-size="55" text-anchor="start" direction="ltr" writing-mode="lr-tb" unicode-bidi="normal" text-decoration="none" x="34.9479" y="352">Address</tspan><tspan fill="#525252" fill-opacity="1" font-family="Intel Clear,Intel Clear_MSFontService,sans-serif" font-style="normal" font-variant="normal" font-weight="400" font-stretch="normal" font-size="55" text-anchor="start" direction="ltr" writing-mode="lr-tb" unicode-bidi="normal" text-decoration="none" x="0" y="418">-</tspan><tspan fill="#525252" fill-opacity="1" font-family="Intel Clear,Intel Clear_MSFontService,sans-serif" font-style="normal" font-variant="normal" font-weight="400" font-stretch="normal" font-size="55" text-anchor="start" direction="ltr" writing-mode="lr-tb" unicode-bidi="normal" text-decoration="none" x="34.9479" y="418">Length</tspan></text></g></svg>
