<!-- SPDX-License-Identifier: BSD-3-Clause -->
<!-- Copyright (c) 2010-2025 Intel Corporation -->
<svg width="4285" height="1893" xmlns="http://www.w3.org/2000/svg" xmlns:xlink="http://www.w3.org/1999/xlink" overflow="hidden"><defs><clipPath id="clip0"><rect x="-9" y="430" width="4285" height="1893"/></clipPath></defs><g clip-path="url(#clip0)" transform="translate(9 -430)"><text fill="#525252" fill-opacity="1" font-family="Wingdings,Wingdings_MSFontService,sans-serif" font-style="normal" font-variant="normal" font-weight="400" font-stretch="normal" font-size="119" text-anchor="start" direction="ltr" writing-mode="lr-tb" unicode-bidi="normal" text-decoration="none" transform="matrix(1 0 0 1 1960.16 639)"><tspan fill="#525252" fill-opacity="1" font-family="Intel Clear Light,Intel Clear Light_MSFontService,sans-serif" font-style="normal" font-variant="normal" font-weight="300" font-stretch="normal" font-size="119" text-anchor="start" direction="ltr" writing-mode="lr-tb" unicode-bidi="normal" text-decoration="none" x="82.5" y="0">TX side of PMD will pass the address (or </tspan><tspan fill="#525252" fill-opacity="1" font-family="Intel Clear Light,Intel Clear Light_MSFontService,sans-serif" font-style="normal" font-variant="normal" font-weight="300" font-stretch="normal" font-size="119" text-anchor="start" direction="ltr" writing-mode="lr-tb" unicode-bidi="normal" text-decoration="none" x="82.5" y="143">offset) of the packet address to TX Ring</tspan><tspan fill="#525252" fill-opacity="1" font-family="Wingdings,Wingdings_MSFontService,sans-serif" font-style="normal" font-variant="normal" font-weight="400" font-stretch="normal" font-size="119" text-anchor="start" direction="ltr" writing-mode="lr-tb" unicode-bidi="normal" text-decoration="none" x="0" y="341"></tspan><tspan fill="#525252" fill-opacity="1" font-family="Intel Clear Light,Intel Clear Light_MSFontService,sans-serif" font-style="normal" font-variant="normal" font-weight="300" font-stretch="normal" font-size="119" text-anchor="start" direction="ltr" writing-mode="lr-tb" unicode-bidi="normal" text-decoration="none" x="82.5" y="341">TX packet data is placed at the following </tspan><tspan fill="#525252" fill-opacity="1" font-family="Intel Clear Light,Intel Clear Light_MSFontService,sans-serif" font-style="normal" font-variant="normal" font-weight="300" font-stretch="normal" font-size="119" text-anchor="start" direction="ltr" writing-mode="lr-tb" unicode-bidi="normal" text-decoration="none" x="82.5" y="484">address</tspan><tspan fill="#525252" fill-opacity="1" font-family="Arial,Arial_MSFontService,sans-serif" font-style="normal" font-variant="normal" font-weight="400" font-stretch="normal" font-size="87" text-anchor="start" direction="ltr" writing-mode="lr-tb" unicode-bidi="normal" text-decoration="none" x="82.5" y="653">•</tspan><tspan fill="#525252" fill-opacity="1" font-family="Intel Clear Light,Intel Clear Light_MSFontService,sans-serif" font-style="normal" font-variant="normal" font-weight="300" font-stretch="normal" font-size="87" text-anchor="start" direction="ltr" writing-mode="lr-tb" unicode-bidi="normal" text-decoration="none" x="155.833" y="653">addr = (char *)mbuf + sizeof(pktmbuf_t);</tspan><tspan fill="#525252" fill-opacity="1" font-family="Arial,Arial_MSFontService,sans-serif" font-style="normal" font-variant="normal" font-weight="400" font-stretch="normal" font-size="87" text-anchor="start" direction="ltr" writing-mode="lr-tb" unicode-bidi="normal" text-decoration="none" x="82.5" y="812">•</tspan><tspan fill="#525252" fill-opacity="1" font-family="Intel Clear Light,Intel Clear Light_MSFontService,sans-serif" font-style="normal" font-variant="normal" font-weight="300" font-stretch="normal" font-size="87" text-anchor="start" direction="ltr" writing-mode="lr-tb" unicode-bidi="normal" text-decoration="none" x="155.833" y="812">addr += XDP_PACKET_HEADROOM;</tspan><tspan fill="#525252" fill-opacity="1" font-family="Arial,Arial_MSFontService,sans-serif" font-style="normal" font-variant="normal" font-weight="400" font-stretch="normal" font-size="87" text-anchor="start" direction="ltr" writing-mode="lr-tb" unicode-bidi="normal" text-decoration="none" x="82.5" y="972">•</tspan><tspan fill="#525252" fill-opacity="1" font-family="Intel Clear Light,Intel Clear Light_MSFontService,sans-serif" font-style="normal" font-variant="normal" font-weight="300" font-stretch="normal" font-size="87" text-anchor="start" direction="ltr" writing-mode="lr-tb" unicode-bidi="normal" text-decoration="none" x="155.833" y="972">addr += xdp_umem.head_room; // (normally zero)</tspan><tspan fill="#525252" fill-opacity="1" font-family="Arial,Arial_MSFontService,sans-serif" font-style="normal" font-variant="normal" font-weight="400" font-stretch="normal" font-size="87" text-anchor="start" direction="ltr" writing-mode="lr-tb" unicode-bidi="normal" text-decoration="none" x="82.5" y="1131">•</tspan><tspan fill="#525252" fill-opacity="1" font-family="Intel Clear Light,Intel Clear Light_MSFontService,sans-serif" font-style="normal" font-variant="normal" font-weight="300" font-stretch="normal" font-size="87" text-anchor="start" direction="ltr" writing-mode="lr-tb" unicode-bidi="normal" text-decoration="none" x="155.833" y="1131">Descriptor Address uses the above location</tspan><tspan fill="#525252" fill-opacity="1" font-family="Wingdings,Wingdings_MSFontService,sans-serif" font-style="normal" font-variant="normal" font-weight="400" font-stretch="normal" font-size="119" text-anchor="start" direction="ltr" writing-mode="lr-tb" unicode-bidi="normal" text-decoration="none" x="0" y="1320"></tspan><tspan fill="#525252" fill-opacity="1" font-family="Intel Clear Light,Intel Clear Light_MSFontService,sans-serif" font-style="normal" font-variant="normal" font-weight="300" font-stretch="normal" font-size="119" text-anchor="start" direction="ltr" writing-mode="lr-tb" unicode-bidi="normal" text-decoration="none" x="82.5" y="1320">TX Ring returns packet offset address</tspan><tspan fill="#525252" fill-opacity="1" font-family="Arial,Arial_MSFontService,sans-serif" font-style="normal" font-variant="normal" font-weight="400" font-stretch="normal" font-size="87" text-anchor="start" direction="ltr" writing-mode="lr-tb" unicode-bidi="normal" text-decoration="none" x="82.5" y="1489">•</tspan><tspan fill="#525252" fill-opacity="1" font-family="Intel Clear Light,Intel Clear Light_MSFontService,sans-serif" font-style="normal" font-variant="normal" font-weight="300" font-stretch="normal" font-size="87" text-anchor="start" direction="ltr" writing-mode="lr-tb" unicode-bidi="normal" text-decoration="none" x="155.833" y="1489">Need to AND off the lower bits of the address using </tspan><tspan fill="#525252" fill-opacity="1" font-family="Intel Clear Light,Intel Clear Light_MSFontService,sans-serif" font-style="normal" font-variant="normal" font-weight="300" font-stretch="normal" font-size="87" text-anchor="start" direction="ltr" writing-mode="lr-tb" unicode-bidi="normal" text-decoration="none" x="155.833" y="1593">~(2048 </tspan><tspan fill="#525252" fill-opacity="1" font-family="Intel Clear Light,Intel Clear Light_MSFontService,sans-serif" font-style="normal" font-variant="normal" font-weight="300" font-stretch="normal" font-size="87" text-anchor="start" direction="ltr" writing-mode="lr-tb" unicode-bidi="normal" text-decoration="none" x="457.76" y="1593">-</tspan><tspan fill="#525252" fill-opacity="1" font-family="Intel Clear Light,Intel Clear Light_MSFontService,sans-serif" font-style="normal" font-variant="normal" font-weight="300" font-stretch="normal" font-size="87" text-anchor="start" direction="ltr" writing-mode="lr-tb" unicode-bidi="normal" text-decoration="none" x="512.76" y="1593">1) 0x7ff to get to the mbuf pointer. </tspan></text><path d="M340.5 619.543C340.5 604.608 352.608 592.5 367.543 592.5L1110.46 592.5C1125.39 592.5 1137.5 604.608 1137.5 619.543L1137.5 2205.46C1137.5 2220.39 1125.39 2232.5 1110.46 2232.5L367.543 2232.5C352.608 2232.5 340.5 2220.39 340.5 2205.46Z" stroke="#004A84" stroke-width="9.16667" stroke-linecap="butt" stroke-linejoin="round" stroke-miterlimit="10" stroke-opacity="1" fill="#F2F2F2" fill-rule="evenodd" fill-opacity="1"/><path d="M331.5 2216.5C310.513 2216.5 293.5 2213.66 293.5 2210.17L293.5 1410.83C293.5 1407.34 276.487 1404.5 255.5 1404.5 276.487 1404.5 293.5 1401.66 293.5 1398.17L293.5 598.833C293.5 595.336 310.513 592.5 331.5 592.5" stroke="#0066B5" stroke-width="3.4375" stroke-linecap="butt" stroke-linejoin="round" stroke-miterlimit="10" stroke-opacity="1" fill="none" fill-rule="evenodd"/><text fill="#000000" fill-opacity="1" font-family="Intel Clear,Intel Clear_MSFontService,sans-serif" font-style="normal" font-variant="normal" font-weight="400" font-stretch="normal" font-size="64" text-anchor="start" direction="ltr" writing-mode="lr-tb" unicode-bidi="normal" text-decoration="none" transform="matrix(-1.83697e-16 -1 1 -1.83697e-16 192.093 1715)">mempool object size</text><path d="M364.5 643.501C364.5 626.932 377.932 613.5 394.501 613.5L1096.5 613.5C1113.07 613.5 1126.5 626.932 1126.5 643.501L1126.5 763.499C1126.5 780.068 1113.07 793.5 1096.5 793.5L394.501 793.5C377.932 793.5 364.5 780.068 364.5 763.499Z" stroke="#004A84" stroke-width="9.16667" stroke-linecap="butt" stroke-linejoin="round" stroke-miterlimit="10" stroke-opacity="1" fill="#BDE3FF" fill-rule="evenodd" fill-opacity="1"/><text fill="#000000" fill-opacity="1" font-family="Intel Clear,Intel Clear_MSFontService,sans-serif" font-style="normal" font-variant="normal" font-weight="400" font-stretch="normal" font-size="55" text-anchor="start" direction="ltr" writing-mode="lr-tb" unicode-bidi="normal" text-decoration="none" transform="matrix(1 0 0 1 462.411 718)">MBUF header 64 bytes</text><path d="M364.5 821.373C364.5 805.979 376.979 793.5 392.373 793.5L1098.63 793.5C1114.02 793.5 1126.5 805.979 1126.5 821.373L1126.5 2188.63C1126.5 2204.02 1114.02 2216.5 1098.63 2216.5L392.373 2216.5C376.979 2216.5 364.5 2204.02 364.5 2188.63Z" stroke="#004A84" stroke-width="9.16667" stroke-linecap="butt" stroke-linejoin="round" stroke-miterlimit="10" stroke-opacity="1" fill="#BFBFBF" fill-rule="evenodd" fill-opacity="1"/><text fill="#000000" fill-opacity="1" font-family="Intel Clear,Intel Clear_MSFontService,sans-serif" font-style="normal" font-variant="normal" font-weight="400" font-stretch="normal" font-size="55" text-anchor="start" direction="ltr" writing-mode="lr-tb" unicode-bidi="normal" text-decoration="none" transform="matrix(1 0 0 1 436.916 1295)">Packet data starts at 256 <tspan fill="#000000" fill-opacity="1" font-family="Intel Clear,Intel Clear_MSFontService,sans-serif" font-style="normal" font-variant="normal" font-weight="400" font-stretch="normal" font-size="55" text-anchor="start" direction="ltr" writing-mode="lr-tb" unicode-bidi="normal" text-decoration="none" x="11.7333" y="59">bytes offset from buffer </tspan><tspan fill="#000000" fill-opacity="1" font-family="Intel Clear,Intel Clear_MSFontService,sans-serif" font-style="normal" font-variant="normal" font-weight="400" font-stretch="normal" font-size="55" text-anchor="start" direction="ltr" writing-mode="lr-tb" unicode-bidi="normal" text-decoration="none" x="-28.6458" y="118">XDP_PACKET_HEADROOM</tspan></text><path d="M386.5 837.729C386.5 819.377 401.377 804.5 419.729 804.5L1071.27 804.5C1089.62 804.5 1104.5 819.377 1104.5 837.729L1104.5 1134.27C1104.5 1152.62 1089.62 1167.5 1071.27 1167.5L419.729 1167.5C401.377 1167.5 386.5 1152.62 386.5 1134.27Z" stroke="#004A84" stroke-width="9.16667" stroke-linecap="butt" stroke-linejoin="round" stroke-miterlimit="10" stroke-opacity="1" fill="#F7E1D6" fill-rule="evenodd" fill-opacity="1"/><text fill="#000000" fill-opacity="1" font-family="Intel Clear,Intel Clear_MSFontService,sans-serif" font-style="normal" font-variant="normal" font-weight="400" font-stretch="normal" font-size="55" text-anchor="start" direction="ltr" writing-mode="lr-tb" unicode-bidi="normal" text-decoration="none" transform="matrix(1 0 0 1 478.738 971)">MBUF headroom 192 <tspan fill="#000000" fill-opacity="1" font-family="Intel Clear,Intel Clear_MSFontService,sans-serif" font-style="normal" font-variant="normal" font-weight="400" font-stretch="normal" font-size="55" text-anchor="start" direction="ltr" writing-mode="lr-tb" unicode-bidi="normal" text-decoration="none" x="197.931" y="59">bytes</tspan></text><path d="M240.5 1160.5C225.036 1160.5 212.5 1158.41 212.5 1155.83L212.5 887.666C212.5 885.089 199.964 883 184.499 883 199.964 883 212.5 880.911 212.5 878.334L212.5 610.166C212.5 607.589 225.036 605.5 240.5 605.5" stroke="#0066B5" stroke-width="3.4375" stroke-linecap="butt" stroke-linejoin="round" stroke-miterlimit="10" stroke-opacity="1" fill="none" fill-rule="evenodd"/><text fill="#000000" fill-opacity="1" font-family="Intel Clear,Intel Clear_MSFontService,sans-serif" font-style="normal" font-variant="normal" font-weight="400" font-stretch="normal" font-size="64" text-anchor="start" direction="ltr" writing-mode="lr-tb" unicode-bidi="normal" text-decoration="none" transform="matrix(-1.83697e-16 -1 1 -1.83697e-16 74.2478 1259)">XDP_PACKET_HEADROOM<tspan fill="#000000" fill-opacity="1" font-family="Intel Clear,Intel Clear_MSFontService,sans-serif" font-style="normal" font-variant="normal" font-weight="400" font-stretch="normal" font-size="64" text-anchor="start" direction="ltr" writing-mode="lr-tb" unicode-bidi="normal" text-decoration="none" x="249" y="92.0083">256 bytes</tspan></text><path d="M1205.5 1559.64C1205.5 1535.26 1225.26 1515.5 1249.64 1515.5L1878.36 1515.5C1902.74 1515.5 1922.5 1535.26 1922.5 1559.64L1922.5 2140.36C1922.5 2164.74 1902.74 2184.5 1878.36 2184.5L1249.64 2184.5C1225.26 2184.5 1205.5 2164.74 1205.5 2140.36Z" stroke="#004A84" stroke-width="9.16667" stroke-linecap="butt" stroke-linejoin="round" stroke-miterlimit="10" stroke-opacity="1" fill="#F7E1D6" fill-rule="evenodd" fill-opacity="1"/><text fill="#000000" fill-opacity="1" font-family="Intel Clear,Intel Clear_MSFontService,sans-serif" font-style="normal" font-variant="normal" font-weight="400" font-stretch="normal" font-size="55" text-anchor="start" direction="ltr" writing-mode="lr-tb" unicode-bidi="normal" text-decoration="none" transform="matrix(1 0 0 1 1352.66 1589)">Complete Queue</text><path d="M1244.5 1714.33C1244.5 1705.04 1252.04 1697.5 1261.33 1697.5L1866.67 1697.5C1875.96 1697.5 1883.5 1705.04 1883.5 1714.33L1883.5 1781.67C1883.5 1790.96 1875.96 1798.5 1866.67 1798.5L1261.33 1798.5C1252.04 1798.5 1244.5 1790.96 1244.5 1781.67Z" stroke="#004A84" stroke-width="9.16667" stroke-linecap="butt" stroke-linejoin="round" stroke-miterlimit="10" stroke-opacity="1" fill="#BDE3FF" fill-rule="evenodd" fill-opacity="1"/><text fill="#000000" fill-opacity="1" font-family="Intel Clear,Intel Clear_MSFontService,sans-serif" font-style="normal" font-variant="normal" font-weight="400" font-stretch="normal" font-size="55" text-anchor="start" direction="ltr" writing-mode="lr-tb" unicode-bidi="normal" text-decoration="none" transform="matrix(1 0 0 1 1332.9 1762)">Complete Address</text><path d="M1244.5 1826.33C1244.5 1817.04 1252.04 1809.5 1261.33 1809.5L1866.67 1809.5C1875.96 1809.5 1883.5 1817.04 1883.5 1826.33L1883.5 1893.67C1883.5 1902.96 1875.96 1910.5 1866.67 1910.5L1261.33 1910.5C1252.04 1910.5 1244.5 1902.96 1244.5 1893.67Z" stroke="#004A84" stroke-width="9.16667" stroke-linecap="butt" stroke-linejoin="round" stroke-miterlimit="10" stroke-opacity="1" fill="#BDE3FF" fill-rule="evenodd" fill-opacity="1"/><text fill="#000000" fill-opacity="1" font-family="Intel Clear,Intel Clear_MSFontService,sans-serif" font-style="normal" font-variant="normal" font-weight="400" font-stretch="normal" font-size="55" text-anchor="start" direction="ltr" writing-mode="lr-tb" unicode-bidi="normal" text-decoration="none" transform="matrix(1 0 0 1 1332.9 1875)">Complete Address</text><path d="M1244.5 2052.17C1244.5 2042.96 1251.96 2035.5 1261.17 2035.5L1866.83 2035.5C1876.04 2035.5 1883.5 2042.96 1883.5 2052.17L1883.5 2118.83C1883.5 2128.04 1876.04 2135.5 1866.83 2135.5L1261.17 2135.5C1251.96 2135.5 1244.5 2128.04 1244.5 2118.83Z" stroke="#004A84" stroke-width="9.16667" stroke-linecap="butt" stroke-linejoin="round" stroke-miterlimit="10" stroke-opacity="1" fill="#BDE3FF" fill-rule="evenodd" fill-opacity="1"/><text fill="#000000" fill-opacity="1" font-family="Intel Clear,Intel Clear_MSFontService,sans-serif" font-style="normal" font-variant="normal" font-weight="400" font-stretch="normal" font-size="55" text-anchor="start" direction="ltr" writing-mode="lr-tb" unicode-bidi="normal" text-decoration="none" transform="matrix(1 0 0 1 1332.9 2100)">Complete Address</text><path d="M1244.5 1939.33C1244.5 1930.04 1252.04 1922.5 1261.33 1922.5L1866.67 1922.5C1875.96 1922.5 1883.5 1930.04 1883.5 1939.33L1883.5 2006.67C1883.5 2015.96 1875.96 2023.5 1866.67 2023.5L1261.33 2023.5C1252.04 2023.5 1244.5 2015.96 1244.5 2006.67Z" stroke="#004A84" stroke-width="9.16667" stroke-linecap="butt" stroke-linejoin="round" stroke-miterlimit="10" stroke-opacity="1" fill="#BDE3FF" fill-rule="evenodd" fill-opacity="1"/><text fill="#000000" fill-opacity="1" font-family="Intel Clear,Intel Clear_MSFontService,sans-serif" font-style="normal" font-variant="normal" font-weight="400" font-stretch="normal" font-size="55" text-anchor="start" direction="ltr" writing-mode="lr-tb" unicode-bidi="normal" text-decoration="none" transform="matrix(1 0 0 1 1332.9 1987)">Complete Address</text><path d="M1205.5 637.808C1205.5 611.681 1226.68 590.5 1252.81 590.5L1875.19 590.5C1901.32 590.5 1922.5 611.681 1922.5 637.808L1922.5 1307.19C1922.5 1333.32 1901.32 1354.5 1875.19 1354.5L1252.81 1354.5C1226.68 1354.5 1205.5 1333.32 1205.5 1307.19Z" stroke="#004A84" stroke-width="9.16667" stroke-linecap="butt" stroke-linejoin="round" stroke-miterlimit="10" stroke-opacity="1" fill="#D1E0B3" fill-rule="evenodd" fill-opacity="1"/><text fill="#000000" fill-opacity="1" font-family="Intel Clear,Intel Clear_MSFontService,sans-serif" font-style="normal" font-variant="normal" font-weight="400" font-stretch="normal" font-size="55" text-anchor="start" direction="ltr" writing-mode="lr-tb" unicode-bidi="normal" text-decoration="none" transform="matrix(1 0 0 1 1467.53 666)">TX Ring</text><path d="M1244.5 818.168C1244.5 793.498 1264.5 773.5 1289.17 773.5L1838.83 773.5C1863.5 773.5 1883.5 793.498 1883.5 818.168L1883.5 996.832C1883.5 1021.5 1863.5 1041.5 1838.83 1041.5L1289.17 1041.5C1264.5 1041.5 1244.5 1021.5 1244.5 996.832Z" stroke="#004A84" stroke-width="9.16667" stroke-linecap="butt" stroke-linejoin="round" stroke-miterlimit="10" stroke-opacity="1" fill="#BDE3FF" fill-rule="evenodd" fill-opacity="1"/><path d="M1244.5 1101.33C1244.5 1076.57 1264.57 1056.5 1289.33 1056.5L1838.67 1056.5C1863.43 1056.5 1883.5 1076.57 1883.5 1101.33L1883.5 1280.67C1883.5 1305.43 1863.43 1325.5 1838.67 1325.5L1289.33 1325.5C1264.57 1325.5 1244.5 1305.43 1244.5 1280.67Z" stroke="#004A84" stroke-width="9.16667" stroke-linecap="butt" stroke-linejoin="round" stroke-miterlimit="10" stroke-opacity="1" fill="#BDE3FF" fill-rule="evenodd" fill-opacity="1"/><path d="M824.159 1183.74 1234.12 1727.14 1226.8 1732.66 816.841 1189.26ZM1238.68 1717.96 1244.26 1748.19 1216.72 1734.52Z" fill="#0066B5" fill-rule="nonzero" fill-opacity="1"/><path d="M3.07938-3.39475 361.338 321.582 355.179 328.371-3.07938 3.39475ZM364.103 311.714 375.233 340.374 345.626 332.082Z" fill="#0066B5" fill-rule="nonzero" fill-opacity="1" transform="matrix(-1 0 0 1 1312.73 866.5)"/><text fill="#004A86" fill-opacity="1" font-family="Intel Clear,Intel Clear_MSFontService,sans-serif" font-style="normal" font-variant="normal" font-weight="400" font-stretch="normal" font-size="49" text-anchor="start" direction="ltr" writing-mode="lr-tb" unicode-bidi="normal" text-decoration="none" transform="matrix(1 0 0 1 1297.64 837)">Tx Descriptor<tspan fill="#004A86" fill-opacity="1" font-family="Intel Clear,Intel Clear_MSFontService,sans-serif" font-style="normal" font-variant="normal" font-weight="400" font-stretch="normal" font-size="49" text-anchor="start" direction="ltr" writing-mode="lr-tb" unicode-bidi="normal" text-decoration="none" x="12.0313" y="59">-</tspan><tspan fill="#004A86" fill-opacity="1" font-family="Intel Clear,Intel Clear_MSFontService,sans-serif" font-style="normal" font-variant="normal" font-weight="400" font-stretch="normal" font-size="49" text-anchor="start" direction="ltr" writing-mode="lr-tb" unicode-bidi="normal" text-decoration="none" x="43.5418" y="59">Address</tspan><tspan fill="#004A86" fill-opacity="1" font-family="Intel Clear,Intel Clear_MSFontService,sans-serif" font-style="normal" font-variant="normal" font-weight="400" font-stretch="normal" font-size="49" text-anchor="start" direction="ltr" writing-mode="lr-tb" unicode-bidi="normal" text-decoration="none" x="12.0313" y="118">-</tspan><tspan fill="#004A86" fill-opacity="1" font-family="Intel Clear,Intel Clear_MSFontService,sans-serif" font-style="normal" font-variant="normal" font-weight="400" font-stretch="normal" font-size="49" text-anchor="start" direction="ltr" writing-mode="lr-tb" unicode-bidi="normal" text-decoration="none" x="43.5418" y="118">Length</tspan><tspan fill="#004A86" fill-opacity="1" font-family="Intel Clear,Intel Clear_MSFontService,sans-serif" font-style="normal" font-variant="normal" font-weight="400" font-stretch="normal" font-size="49" text-anchor="start" direction="ltr" writing-mode="lr-tb" unicode-bidi="normal" text-decoration="none" x="12.0313" y="176">-</tspan><tspan fill="#004A86" fill-opacity="1" font-family="Intel Clear,Intel Clear_MSFontService,sans-serif" font-style="normal" font-variant="normal" font-weight="400" font-stretch="normal" font-size="49" text-anchor="start" direction="ltr" writing-mode="lr-tb" unicode-bidi="normal" text-decoration="none" x="43.5418" y="176">options</tspan><tspan fill="#004A86" fill-opacity="1" font-family="Intel Clear,Intel Clear_MSFontService,sans-serif" font-style="normal" font-variant="normal" font-weight="400" font-stretch="normal" font-size="49" text-anchor="start" direction="ltr" writing-mode="lr-tb" unicode-bidi="normal" text-decoration="none" x="-8.5343" y="293">Tx Descriptor</tspan><tspan fill="#004A86" fill-opacity="1" font-family="Intel Clear,Intel Clear_MSFontService,sans-serif" font-style="normal" font-variant="normal" font-weight="400" font-stretch="normal" font-size="49" text-anchor="start" direction="ltr" writing-mode="lr-tb" unicode-bidi="normal" text-decoration="none" x="3.49695" y="352">-</tspan><tspan fill="#004A86" fill-opacity="1" font-family="Intel Clear,Intel Clear_MSFontService,sans-serif" font-style="normal" font-variant="normal" font-weight="400" font-stretch="normal" font-size="49" text-anchor="start" direction="ltr" writing-mode="lr-tb" unicode-bidi="normal" text-decoration="none" x="35.0073" y="352">Address</tspan><tspan fill="#004A86" fill-opacity="1" font-family="Intel Clear,Intel Clear_MSFontService,sans-serif" font-style="normal" font-variant="normal" font-weight="400" font-stretch="normal" font-size="49" text-anchor="start" direction="ltr" writing-mode="lr-tb" unicode-bidi="normal" text-decoration="none" x="3.49695" y="411">-</tspan><tspan fill="#004A86" fill-opacity="1" font-family="Intel Clear,Intel Clear_MSFontService,sans-serif" font-style="normal" font-variant="normal" font-weight="400" font-stretch="normal" font-size="49" text-anchor="start" direction="ltr" writing-mode="lr-tb" unicode-bidi="normal" text-decoration="none" x="35.0073" y="411">Length</tspan><tspan fill="#004A86" fill-opacity="1" font-family="Intel Clear,Intel Clear_MSFontService,sans-serif" font-style="normal" font-variant="normal" font-weight="400" font-stretch="normal" font-size="49" text-anchor="start" direction="ltr" writing-mode="lr-tb" unicode-bidi="normal" text-decoration="none" x="3.49695" y="469">-</tspan><tspan fill="#004A86" fill-opacity="1" font-family="Intel Clear,Intel Clear_MSFontService,sans-serif" font-style="normal" font-variant="normal" font-weight="400" font-stretch="normal" font-size="49" text-anchor="start" direction="ltr" writing-mode="lr-tb" unicode-bidi="normal" text-decoration="none" x="35.0073" y="469">options</tspan></text></g></svg>
